<svg width="176" height="177" viewBox="0 0 176 177" fill="none" xmlns="http://www.w3.org/2000/svg">
<circle cx="88" cy="88.9901" r="88" fill="#EDF5FF"/>
<path d="M114.934 21.943C115.801 21.039 117.327 21.5306 117.504 22.7711C118.364 28.8181 117.875 35.2954 115.815 41.6902C113.754 48.0848 110.369 53.6289 106.141 58.0363C105.273 58.9404 103.747 58.4487 103.571 57.2082C102.711 51.1612 103.199 44.6839 105.26 38.2892C107.32 31.8945 110.705 26.3503 114.934 21.943ZM82.6276 72.9082C87.3013 74.9539 92.1226 75.8978 96.6959 75.8501C97.634 75.8403 98.0854 74.8087 97.4563 74.113C94.3887 70.7209 90.4242 67.8191 85.7507 65.7735C81.0773 63.728 76.2557 62.7839 71.6825 62.8317C70.7444 62.8415 70.293 63.8731 70.9221 64.5687C73.9897 67.9609 77.954 70.8626 82.6276 72.9082ZM84.2496 61.8995C88.8298 65.3003 93.8421 67.5445 98.8286 68.6511C99.8514 68.878 100.597 67.8745 100.083 66.9611C97.5818 62.5079 93.9836 58.3591 89.4033 54.9583C84.8231 51.5575 79.8108 49.3133 74.8243 48.2067C73.8015 47.9798 73.0563 48.9832 73.5695 49.8966C76.0713 54.3498 79.6693 58.4986 84.2496 61.8995ZM92.3717 51.5976C94.297 56.4688 97.2099 60.6115 100.722 63.8273C101.442 64.487 102.604 64.0275 102.679 63.0537C103.044 58.3057 102.337 53.2911 100.412 48.4199C98.4865 43.5488 95.5736 39.4061 92.0618 36.1902C91.3416 35.5306 90.1791 35.9901 90.1043 36.9638C89.7399 41.7117 90.4464 46.7265 92.3717 51.5976ZM79.8215 82.5707C84.5585 83.9721 89.2921 84.3398 93.6579 83.8169C94.5534 83.7096 94.8494 82.7088 94.1564 82.1316C90.7779 79.3173 86.6062 77.0504 81.8692 75.6489C77.1322 74.2475 72.3986 73.8798 68.0329 74.4027C67.1373 74.51 66.8413 75.5108 67.5344 76.088C70.913 78.9022 75.0845 81.1692 79.8215 82.5707ZM79.5405 91.1319C83.3067 91.7104 86.9631 91.4958 90.2465 90.636C90.9201 90.4596 91.0428 89.6601 90.4534 89.2899C87.5795 87.4841 84.1561 86.1817 80.3901 85.603C76.624 85.0243 72.9674 85.239 69.6841 86.0989C69.0105 86.2753 68.8878 87.0748 69.4772 87.445C72.3509 89.251 75.7744 90.5534 79.5405 91.1319ZM81.1884 99.8337C84.2102 98.5434 86.7947 96.7312 88.8153 94.6235C89.2297 94.1911 88.9602 93.5595 88.3612 93.5597C85.4413 93.5614 82.3451 94.1748 79.3233 95.4651C76.3015 96.7554 73.717 98.5676 71.6964 100.675C71.282 101.108 71.5515 101.739 72.1505 101.739C75.0702 101.737 78.1665 101.124 81.1884 99.8337ZM124.85 86.1926C125.779 86.1344 126.18 85.0822 125.525 84.4206C122.33 81.1949 118.269 78.5048 113.544 76.7053C108.818 74.9056 103.996 74.2129 99.4653 74.4963C98.5359 74.5545 98.1352 75.6067 98.7904 76.2684C101.985 79.494 106.046 82.1841 110.772 83.9836C115.497 85.7833 120.319 86.476 124.85 86.1926ZM133.236 73.8679C134.244 73.5761 134.416 72.338 133.525 71.7829C129.179 69.0763 124.016 67.1628 118.349 66.3771C112.683 65.5914 107.194 66.0277 102.275 67.4499C101.266 67.7416 101.095 68.9797 101.986 69.5349C106.332 72.2414 111.495 74.1549 117.162 74.9406C122.828 75.7262 128.317 75.2899 133.236 73.8679ZM130.392 53.4242C131.021 52.6771 130.514 51.5347 129.538 51.5005C124.779 51.3338 119.798 52.248 115.011 54.3738C110.224 56.4997 106.206 59.5822 103.139 63.2246C102.51 63.9717 103.017 65.1141 103.993 65.1485C108.752 65.3152 113.733 64.401 118.52 62.2752C123.307 60.1491 127.325 57.0668 130.392 53.4242ZM119.2 96.788C120.085 96.8543 120.575 95.9329 120.025 95.2364C117.345 91.8401 113.789 88.8271 109.511 86.5518C105.233 84.2765 100.747 83.0123 96.4327 82.6887C95.5479 82.6223 95.0579 83.5438 95.6075 84.2403C98.2875 87.6366 101.844 90.6496 106.121 92.9249C110.399 95.2 114.886 96.4643 119.2 96.788ZM109.843 103.522C110.525 103.672 110.998 103.016 110.639 102.417C108.892 99.4978 106.426 96.7764 103.325 94.5436C100.224 92.3111 96.8611 90.8353 93.5384 90.1046C92.8569 89.9548 92.3844 90.6111 92.7427 91.2099C94.4896 94.1293 96.9559 96.8506 100.057 99.0834C103.158 101.316 106.521 102.792 109.843 103.522ZM97.9138 111.83C98.3505 112.273 98.9854 112.011 98.9831 111.389C98.9721 108.356 98.3446 105.122 97.036 101.946C95.7274 98.7694 93.8947 96.0319 91.7662 93.8715C91.3296 93.4283 90.6947 93.69 90.6969 94.312C90.708 97.3448 91.3354 100.579 92.644 103.755C93.9527 106.932 95.7854 109.669 97.9138 111.83Z" fill="#CFB21B"/>
<path d="M87.0468 70.3592C86.2706 72.4313 83.9154 73.4263 81.8867 72.5433C81.4262 72.3429 81.0656 72.1806 80.9087 72.1018C76.9768 70.1295 73.6059 67.5369 70.9218 64.5685C70.3223 63.9056 70.7891 62.841 71.6828 62.8316C75.744 62.7893 80.001 63.5289 84.1761 65.1277C84.3143 65.1806 84.6077 65.3053 84.9801 65.4683C86.8583 66.2905 87.766 68.4394 87.0468 70.3592V70.3592ZM83.3902 80.1203C84.1177 78.1784 83.0502 76.0241 81.0633 75.4311C80.8465 75.3664 80.6845 75.3197 80.6052 75.2992C76.2937 74.1893 72.0118 73.9265 68.035 74.4026C67.2034 74.5022 66.8906 75.5518 67.5343 76.0879C70.472 78.5349 74.0093 80.5683 77.9966 81.9786C78.174 82.0413 78.5478 82.1581 79.0074 82.2961C80.8124 82.838 82.7289 81.8854 83.3902 80.1203V80.1203ZM77.7989 85.3327C77.6493 85.3205 77.515 85.3114 77.402 85.3063C74.6935 85.1848 72.0819 85.4695 69.6718 86.1021C69.046 86.2664 68.9292 87.1007 69.4769 87.445C71.3564 88.6261 73.4711 89.5916 75.7629 90.2803C76.1521 90.3973 76.5464 90.5062 76.9454 90.607C78.259 90.9384 79.61 90.2112 80.0852 88.9425C80.7083 87.2792 79.5693 85.477 77.7989 85.3327ZM96.7892 50.3812C96.9949 50.2432 97.2047 50.1121 97.4186 49.9877C99.1113 49.0048 99.7812 46.9039 98.9092 45.1515C98.8076 44.9472 98.7115 44.7608 98.6247 44.6018C96.8517 41.3548 94.6112 38.5227 92.0533 36.1821C91.3339 35.5239 90.1789 35.9915 90.1042 36.9636C89.8219 40.6426 90.1825 44.4818 91.2549 48.2904C91.2579 48.3015 91.2612 48.3127 91.2645 48.3244C91.9468 50.6893 94.7459 51.7527 96.7892 50.3812V50.3812ZM84.2496 61.8995C84.2792 61.9215 84.3089 61.9435 84.3387 61.9655C86.6388 63.6636 89.9288 62.6653 90.9319 59.988C91.603 58.1963 91.0235 56.1675 89.4902 55.0229C89.4613 55.0014 89.4322 54.9797 89.4033 54.9582C84.823 51.5574 79.8106 49.3133 74.824 48.2065C73.8552 47.9915 73.0834 49.0313 73.5694 49.8963C76.0713 54.3497 79.6693 58.4987 84.2496 61.8995V61.8995ZM73.4181 99.0669C72.806 99.5795 72.2313 100.117 71.6959 100.676C71.3148 101.073 71.5994 101.739 72.15 101.739C72.9238 101.738 73.7098 101.695 74.5034 101.608C75.041 101.548 75.4983 101.187 75.6881 100.681C76.2062 99.2978 74.5503 98.1185 73.4181 99.0669V99.0669ZM114.925 21.9518C110.701 26.3579 107.319 31.8986 105.26 38.2891C104.663 40.1421 104.198 42.0018 103.859 43.8561C103.419 46.2681 104.723 48.6653 106.999 49.5774C107.032 49.5906 107.065 49.604 107.098 49.6174C109.62 50.6366 112.511 49.5288 113.68 47.0728C114.496 45.356 115.212 43.5593 115.814 41.69C117.875 35.2952 118.364 28.8179 117.503 22.7707C117.327 21.5313 115.792 21.048 114.925 21.9518V21.9518ZM96.6411 109.489C96.4896 109.894 96.5721 110.349 96.8535 110.677C97.1976 111.077 97.5515 111.462 97.9139 111.83C98.3044 112.226 98.9852 111.946 98.9832 111.389C98.9814 110.873 98.9617 110.352 98.9238 109.825C98.8326 108.559 97.0867 108.3 96.6411 109.489ZM118.349 66.3772C117.625 66.2768 116.904 66.1965 116.186 66.1354C114.287 65.974 112.516 67.1113 111.848 68.8962C110.926 71.3575 112.419 74.0824 115 74.5819C115.712 74.7197 116.433 74.8396 117.162 74.9406C122.828 75.7263 128.318 75.2899 133.236 73.8678C134.19 73.5919 134.368 72.308 133.525 71.7829C129.179 69.0765 124.016 67.1629 118.349 66.3772V66.3772ZM129.538 51.5005C126.258 51.3854 122.873 51.7841 119.518 52.7389C118.857 52.9271 117.713 53.3547 116.593 53.7977C114.941 54.4509 113.912 56.0963 114.024 57.8685C114.026 57.9073 114.029 57.9462 114.031 57.9851C114.194 60.8669 117.171 62.7075 119.797 61.5081C121.087 60.9187 122.19 60.3782 122.666 60.083C125.661 58.2239 128.257 55.9599 130.392 53.4246C131.019 52.6806 130.51 51.5346 129.538 51.5005V51.5005ZM113.544 76.7052C113.403 76.6516 113.262 76.5992 113.121 76.5475C111.109 75.8098 108.878 76.8244 108.126 78.8315C107.379 80.8235 108.374 83.0387 110.352 83.8206C110.491 83.8757 110.631 83.93 110.772 83.9835C115.497 85.7831 120.319 86.476 124.85 86.1924C125.744 86.1365 126.155 85.0572 125.525 84.4206C122.33 81.1951 118.269 78.5048 113.544 76.7052V76.7052ZM109.511 86.5519C109.495 86.543 109.478 86.5344 109.462 86.5256C107.592 85.5352 105.277 86.4365 104.535 88.4174L104.476 88.5759C103.859 90.222 104.543 92.0834 106.094 92.9101C106.103 92.9152 106.112 92.92 106.121 92.9249C110.4 95.2002 114.886 96.4646 119.2 96.7881C120.035 96.8507 120.544 95.8938 120.025 95.2366C117.345 91.8403 113.789 88.8271 109.511 86.5519V86.5519ZM106.002 96.7326C105.847 96.5884 105.636 96.4072 105.393 96.2067C103.981 95.04 101.839 95.6147 101.196 97.33C100.737 98.5564 101.24 99.9272 102.373 100.585C102.827 100.848 103.285 101.097 103.746 101.33C105.747 102.344 107.802 103.073 109.843 103.522C110.474 103.661 110.971 102.972 110.639 102.417C109.429 100.395 107.874 98.4682 106.002 96.7326Z" fill="#DAE746"/>
<path d="M106.32 57.1053C99.7062 76.5551 91.9146 94.7656 83.3487 110.792C82.3911 110.653 81.4392 110.485 80.4941 110.288C89.1563 94.2042 97.0352 75.8556 103.71 56.2267C103.918 55.6144 104.527 55.2334 105.169 55.3126C105.178 55.3139 105.187 55.3149 105.197 55.316C106.053 55.4212 106.598 56.2883 106.32 57.1053V57.1053Z" fill="#B09817"/>
<path d="M62.3001 156.717C62.1105 156.255 61.9536 155.77 61.8292 155.264C61.6238 154.428 62.2578 153.62 63.1177 153.62H112.883C113.743 153.62 114.377 154.428 114.171 155.264C114.047 155.77 113.89 156.255 113.7 156.717C112.42 159.84 109.306 161.818 105.932 161.818H70.0687C66.694 161.818 63.58 159.84 62.3001 156.717V156.717Z" fill="#A36D6D"/>
<path d="M112.883 153.62H106.657C107.516 153.62 108.15 154.428 107.945 155.263C107.821 155.77 107.663 156.255 107.474 156.717C106.194 159.84 103.08 161.818 99.7053 161.818H105.931C109.306 161.818 112.42 159.84 113.7 156.717C113.889 156.255 114.046 155.77 114.171 155.263C114.376 154.428 113.743 153.62 112.883 153.62Z" fill="#8A5C5C"/>
<path d="M72.1958 153.621C63.6003 139.361 60.5655 128.8 63.0916 107.908C63.2254 106.801 64.1926 105.967 65.3371 105.967H110.663C111.808 105.967 112.775 106.801 112.909 107.908C115.435 128.8 112.4 139.361 103.805 153.621H72.1958Z" fill="#CB895E"/>
<path d="M110.663 105.967H107.038C109.991 128.159 107.038 138.926 98.1805 153.62H103.804C112.4 139.361 115.435 128.799 112.909 107.907C112.775 106.8 111.807 105.967 110.663 105.967Z" fill="#C17D4F"/>
<path d="M107.969 44.7138L124.52 29.691L127.974 34.7429L107.969 44.7138Z" fill="#EDF5FF"/>
<path d="M112.229 42.6768L106.879 15.9688L120.606 16.7583L112.229 42.6768Z" fill="#EDF5FF"/>
<path d="M112.461 41.2217L117.739 24.7991L125.088 29.4692L112.461 41.2217Z" fill="#EDF5FF"/>
<path d="M78.5654 77.5801L63.5698 86.1056L61.3161 77.6947L78.5654 77.5801Z" fill="#EDF5FF"/>
<path d="M79.7401 75.6888L62.945 79.4108L63.1642 71.0879L79.7401 75.6888Z" fill="#EDF5FF"/>
<path d="M77.7421 79.1884L71.9637 82.392L71.1361 79.3033L77.7421 79.1884Z" fill="#EDF5FF"/>
<path d="M103.461 76.3596L117.854 75.8783L116.395 82.6939L103.461 76.3596Z" fill="#EDF5FF"/>
<path d="M105.27 80.4326L125.249 76.9175L122.762 90.7068L105.27 80.4326Z" fill="#EDF5FF"/>
<path d="M110.112 80.6577L130.273 77.4256L127.181 91.864L110.112 80.6577Z" fill="#EDF5FF"/>
<path d="M97.2067 104.145L96.6076 105.97L97.8316 105.961L97.2067 104.145Z" fill="#EDF5FF"/>
<path d="M97.2067 104.145L96.6076 105.97L97.8316 105.961L97.2067 104.145Z" fill="#EDF5FF"/>
<path d="M91.3292 103.946L90.7301 105.771L91.9542 105.762L91.3292 103.946Z" fill="#EDF5FF"/>
<path d="M108.479 88.3187L123.209 92.1028L119.972 98.2785L108.479 88.3187Z" fill="#EDF5FF"/>
<path d="M121.538 57.1296L136.744 57.3666L135.04 64.1278L121.538 57.1296Z" fill="#EDF5FF"/>
<path d="M108.884 92.002L129.124 101.634L125.185 107.387L108.884 92.002Z" fill="#EDF5FF"/>
<path d="M109.247 56.811L98.6194 37.1466L104.351 35.0014L109.247 56.811Z" fill="#EDF5FF"/>
<path fill-rule="evenodd" clip-rule="evenodd" d="M98.7915 110.031L97.2026 103.252L95.7426 109.905C94.6892 108.397 93.7654 106.719 93.0142 104.895C91.7056 101.719 91.0781 98.4847 91.0671 95.452C91.0648 94.8299 91.6998 94.5683 92.1364 95.0114C94.2649 97.1718 96.0976 99.9094 97.4062 103.086C98.4306 105.572 99.0376 108.094 99.2582 110.527C99.1535 110.308 98.9874 110.141 98.7915 110.031Z" fill="#CFB21B"/>
<path d="M120.957 71.3479L140.956 81.3317L137.499 86.3813L120.957 71.3479Z" fill="#EDF5FF"/>
<path d="M79.6419 70.1106L61.2043 57.474L65.3225 52.9472L79.6419 70.1106Z" fill="#EDF5FF"/>
<path d="M86.1048 55.5571L70.3936 39.6579L75.2944 35.9928L86.1048 55.5571Z" fill="#EDF5FF"/>
<path d="M78.0049 87.6008L55.9618 83.8953L57.7929 78.0559L78.0049 87.6008Z" fill="#EDF5FF"/>
<path d="M86.1181 101.952L90.9875 100.77L90.4844 99.4938L86.1181 101.952Z" fill="#EDF5FF"/>
<path d="M96.3789 80.3262L95.6078 76.5473L93.5013 77.7583L96.3789 80.3262Z" fill="#EDF5FF"/>
<path d="M99.2475 73.2269L103.05 72.5797L101.908 70.4347L99.2475 73.2269Z" fill="#EDF5FF"/>
<path d="M92.3946 98.8995L90.5986 105.634L93.1663 105.826L92.3946 98.8995Z" fill="#EDF5FF"/>
</svg>
