<svg width="176" height="177" viewBox="0 0 176 177" fill="none" xmlns="http://www.w3.org/2000/svg">
<circle cx="88" cy="88.9901" r="88" fill="#EDF5FF"/>
<path d="M114.934 21.9428C115.801 21.0388 117.327 21.5305 117.504 22.7709C118.364 28.818 117.875 35.2953 115.815 41.69C113.754 48.0846 110.369 53.6287 106.141 58.0361C105.273 58.9402 103.747 58.4485 103.571 57.2081C102.711 51.161 103.199 44.6837 105.26 38.289C107.32 31.8943 110.705 26.3502 114.934 21.9428ZM92.3717 51.5975C94.2971 56.4686 97.2099 60.6113 100.722 63.8272C101.442 64.4868 102.604 64.0273 102.679 63.0536C103.044 58.3055 102.337 53.291 100.412 48.4198C98.4865 43.5486 95.5736 39.4059 92.0619 36.1901C91.3416 35.5304 90.1791 35.9899 90.1043 36.9637C89.7399 41.7115 90.4464 46.7263 92.3717 51.5975ZM130.392 53.424C131.021 52.6769 130.514 51.5345 129.538 51.5004C124.779 51.3336 119.798 52.2478 115.011 54.3737C110.224 56.4995 106.206 59.582 103.139 63.2245C102.51 63.9716 103.017 65.114 103.993 65.1483C108.752 65.315 113.733 64.4008 118.52 62.275C123.307 60.1489 127.325 57.0667 130.392 53.424Z" fill="#CFB21B"/>
<path d="M96.7892 50.381C96.9949 50.243 97.2047 50.1119 97.4186 49.9875C99.1113 49.0046 99.7812 46.9037 98.9093 45.1513C98.8076 44.947 98.7115 44.7606 98.6247 44.6016C96.8517 41.3546 94.6112 38.5225 92.0533 36.1819C91.3339 35.5237 90.1789 35.9913 90.1042 36.9634C89.8219 40.6424 90.1825 44.4817 91.2549 48.2902C91.258 48.3013 91.2613 48.3125 91.2645 48.3242C91.9468 50.6891 94.7459 51.7525 96.7892 50.381ZM114.925 21.9516C110.701 26.3577 107.319 31.8984 105.26 38.2889C104.663 40.1419 104.198 42.0016 103.859 43.856C103.419 46.2679 104.723 48.6651 106.999 49.5772C107.032 49.5905 107.065 49.6038 107.098 49.6172C109.62 50.6364 112.511 49.5286 113.68 47.0726C114.496 45.3558 115.212 43.5591 115.814 41.6898C117.875 35.295 118.364 28.8177 117.503 22.7705C117.327 21.5311 115.792 21.0478 114.925 21.9516ZM129.538 51.5003C126.258 51.3852 122.873 51.7839 119.518 52.7387C118.857 52.9269 117.713 53.3545 116.593 53.7975C114.941 54.4507 113.912 56.0961 114.024 57.8683C114.026 57.9071 114.029 57.946 114.031 57.9849C114.194 60.8667 117.171 62.7073 119.797 61.5079C121.087 60.9185 122.19 60.378 122.666 60.0828C125.661 58.2237 128.257 55.9597 130.392 53.4244C131.019 52.6804 130.51 51.5344 129.538 51.5003Z" fill="#DAE746"/>
<path d="M106.32 57.1052C99.7062 76.555 91.9146 94.7654 83.3487 110.792C82.3911 110.653 81.4392 110.485 80.4941 110.288C89.1563 94.204 97.0352 75.8554 103.71 56.2265C103.918 55.6143 104.527 55.2333 105.169 55.3125C105.178 55.3138 105.187 55.3148 105.197 55.3159C106.053 55.421 106.598 56.2882 106.32 57.1052V57.1052Z" fill="#B09817"/>
<path d="M62.3002 156.717C62.1106 156.255 61.9536 155.77 61.8292 155.263C61.6238 154.428 62.2579 153.62 63.1177 153.62H112.883C113.743 153.62 114.377 154.428 114.171 155.263C114.047 155.77 113.89 156.255 113.7 156.717C112.42 159.839 109.306 161.818 105.932 161.818H70.0687C66.694 161.818 63.58 159.839 62.3002 156.717V156.717Z" fill="#A36D6D"/>
<path d="M112.883 153.62H106.657C107.516 153.62 108.15 154.428 107.945 155.263C107.821 155.77 107.664 156.255 107.474 156.717C106.194 159.839 103.08 161.818 99.7054 161.818H105.931C109.306 161.818 112.42 159.839 113.7 156.717C113.889 156.255 114.046 155.77 114.171 155.263C114.376 154.428 113.743 153.62 112.883 153.62Z" fill="#8A5C5C"/>
<path d="M72.1959 153.62C63.6003 139.361 60.5656 128.8 63.0916 107.908C63.2254 106.801 64.1926 105.967 65.3371 105.967H110.663C111.808 105.967 112.775 106.801 112.909 107.908C115.435 128.8 112.4 139.361 103.805 153.62H72.1959Z" fill="#CB895E"/>
<path d="M110.663 105.967H107.038C109.991 128.159 107.038 138.926 98.1805 153.62H103.805C112.4 139.361 115.435 128.799 112.909 107.907C112.775 106.8 111.808 105.967 110.663 105.967Z" fill="#C17D4F"/>
<path d="M87.1401 100.631L88.0742 93.7214L83.7575 94.5341L87.1401 100.631Z" fill="#EDF5FF"/>
<path d="M92.4514 88.1752L99.4021 87.6283L97.6957 83.5807L92.4514 88.1752Z" fill="#EDF5FF"/>
<path d="M96.3605 78.1276L104.098 72.1816L101.986 70.154L96.3605 78.1276Z" fill="#EDF5FF"/>
<path d="M96.5937 50.2489L89.4064 43.6484L87.7719 46.0775L96.5937 50.2489Z" fill="#EDF5FF"/>
<path d="M93.9139 45.6067L99.7886 30.9762L87.8361 31.0594L93.9139 45.6067Z" fill="#EDF5FF"/>
<path d="M109.512 62.1897L119.84 70.0507L122.387 60.5459L109.512 62.1897Z" fill="#EDF5FF"/>
<path d="M121.219 64.2444L135.61 52.1964L124.457 45.7574L121.219 64.2444Z" fill="#EDF5FF"/>
<path d="M115.119 58.4075L133.344 56.5291L129.66 47.2614L115.119 58.4075Z" fill="#EDF5FF"/>
<path d="M110.217 41.5422L127.645 26.7468L119.688 20.7347L110.217 41.5422Z" fill="#EDF5FF"/>
<path d="M107.099 53.1123L103.63 42.0425L99.2474 44.5728L107.099 53.1123Z" fill="#EDF5FF"/>
<path d="M115.227 58.1187L131.487 66.5608L133.5 56.793L115.227 58.1187Z" fill="#EDF5FF"/>
</svg>
