<svg width="177" height="176" viewBox="0 0 177 176" fill="none" xmlns="http://www.w3.org/2000/svg">
<circle cx="88.246" cy="88" r="88" fill="#EDF5FF"/>
<path d="M88.2461 94.6167L82.2161 94.6131L75.9758 89.5648C77.8709 87.2449 78.2338 83.8923 76.8856 81.1601C75.5821 78.5186 75.8747 75.2863 77.627 72.9698L78.8182 71.3948C80.4461 69.2423 80.8238 66.2828 79.7958 63.7325L79.3164 62.5431C78.4168 60.3114 78.5868 57.7428 79.771 55.6729L81.2571 53.076C82.345 51.1746 82.582 48.8422 81.9016 46.7297L81.4971 45.4741C81.017 43.9835 80.9818 42.3629 81.4156 40.8555C82.2946 37.8019 83.4004 34.9032 84.9371 32.2986C86.4741 29.6936 90.0183 29.6936 91.5553 32.2986C93.092 34.9032 94.1978 37.8019 95.0768 40.8555C95.5105 42.3626 95.4754 43.9835 94.9952 45.4741L94.5908 46.7297C93.9103 48.8422 94.1471 51.1746 95.2353 53.076L96.7213 55.6729C97.9056 57.7428 98.0756 60.3112 97.176 62.5431L96.6966 63.7325C95.6685 66.2828 96.0462 69.2423 97.6742 71.3948L98.8654 72.9698C100.618 75.2863 100.91 78.5186 99.6067 81.1601C98.2586 83.8921 98.6215 87.2449 100.517 89.5648L92.9251 94.6156L88.2461 94.6167Z" fill="#73AF69"/>
<path d="M88.9741 95.2669C88.6204 95.2669 88.2623 95.1719 87.9394 94.9721C87.0143 94.3997 86.7284 93.1858 87.3008 92.2607C88.4706 90.3705 88.4073 87.8304 87.1441 85.9405C85.091 82.8688 84.931 78.8317 86.7361 75.6555L87.7119 73.9386C88.6966 72.2056 88.6839 69.9359 87.679 68.1558L87.0482 67.0391C85.5711 64.423 85.3647 61.2135 86.496 58.4532C86.9081 57.4465 88.0592 56.9651 89.0654 57.3775C90.072 57.7898 90.5537 58.9405 90.1411 59.9469C89.4634 61.6006 89.5896 63.528 90.4788 65.1022L91.1095 66.2192C92.8063 69.2252 92.8167 72.9289 91.1368 75.8851L90.161 77.6021C89.1023 79.465 89.206 81.9363 90.4191 83.7513C92.5249 86.9018 92.6177 91.1544 90.6508 94.3337C90.2782 94.9356 89.6337 95.2669 88.9741 95.2669V95.2669Z" fill="#75A55E"/>
<path d="M85.8937 93.799L84.9829 95.9061C83.5221 99.2857 79.8202 101.384 75.9039 101.053L74.4278 100.928C72.0508 100.727 69.6792 101.423 67.8537 102.857L65.3857 104.795C63.6077 106.192 61.3089 106.889 58.9893 106.737L54.6543 106.452C52.2304 106.292 49.8343 107.061 48.031 108.578L47.44 109.075C44.6303 111.437 40.5132 111.898 37.2063 110.218L36.9999 110.114C35.5595 109.382 33.9221 109.039 32.274 109.123L28.8488 109.297C26.7865 109.402 25.8523 106.977 27.5162 105.838L28.7833 104.971C30.1299 104.05 31.1687 102.797 31.7785 101.358C33.1675 98.0823 36.6688 95.9777 40.4689 96.135L42.0902 96.202C44.5325 96.3032 46.9189 95.466 48.6812 93.89L51.0788 91.7459C52.7842 90.2209 55.0768 89.3855 57.4426 89.4271L60.4498 89.4801C62.5409 89.517 64.5843 88.8684 66.216 87.6498L68.5168 85.9316C70.1254 84.7302 72.1349 84.0824 74.1966 84.1002L80.825 84.1573L85.8937 93.799Z" fill="#81894F"/>
<path fill-rule="evenodd" clip-rule="evenodd" d="M50.4213 61.279L52.2833 64.7234L52.839 62.8447C52.8962 62.8946 52.9531 62.9452 53.0094 62.9966L53.8958 63.8044C55.4639 65.2334 57.4346 66.1348 59.2165 66.2375L62.0739 66.4024C63.7123 66.4969 65.5184 67.2676 67.0264 68.5156L76.0638 75.9959L74.7646 83.9023L64.3614 81.3528C62.8619 80.9853 61.3463 80.1326 60.1179 78.9652L57.3477 76.3328C55.8135 74.8748 53.8514 73.9253 52.0509 73.7688L51.4383 73.7155C48.6181 73.4706 45.5719 71.3161 44.2592 68.6382C43.686 67.4689 42.7553 66.3547 41.6049 65.4612L41.2091 65.1539C39.1245 63.5346 39.5473 61.0906 41.8404 61.5057C42.8853 61.6854 43.8519 61.6076 44.6404 61.2802L45.619 60.8737C46.9525 60.3201 48.7173 60.5023 50.4213 61.279Z" fill="#81894F"/>
<path d="M101.727 83.9023L112.13 81.3528C113.63 80.9853 115.146 80.1326 116.374 78.9652L119.144 76.3328C120.678 74.8748 122.64 73.9253 124.441 73.7688L125.054 73.7155C127.874 73.4706 130.92 71.3161 132.233 68.6382C132.806 67.4689 133.737 66.3547 134.887 65.4612L135.283 65.1539C137.367 63.5346 136.945 61.0906 134.651 61.5057C133.607 61.6854 132.64 61.6076 131.851 61.2802L130.873 60.8737C128.832 60.0263 125.78 60.903 123.482 62.9966L122.596 63.8044C121.028 65.2334 119.057 66.1348 117.275 66.2375L114.418 66.4024C112.78 66.4969 110.973 67.2676 109.465 68.5156L100.428 75.9964L101.727 83.9023Z" fill="#81894F"/>
<path d="M102.683 91.5469C103.677 90.7752 104.884 90.2479 106.287 89.9442C110.132 89.1118 114.497 90.7923 117.099 93.8464C117.578 94.4089 118.135 94.8933 118.757 95.3087C120.933 96.7629 123.71 97.1798 126.034 96.53C128.28 95.9018 130.366 95.9048 132.252 96.7051C135.155 97.9375 138.384 97.7418 140.461 96.1125L144.356 93.0589C145.843 91.893 145.474 89.6885 143.592 88.4867L142.029 87.4884C136.491 83.9524 130.014 81.8642 123.562 81.5341L123.324 81.5219C121.079 81.407 118.89 81.5938 116.778 81.9804C114.556 82.3874 112.164 82.3489 109.778 81.8547C104.716 80.8063 99.7078 81.669 96.1139 84.2088L93.1385 91.7363L100.925 92.8204L102.683 91.5469Z" fill="#84AF69"/>
<path d="M86.4388 111.176L97.6091 106.506L92.8528 103.022C90.6672 101.421 89.1275 98.4304 88.9929 95.5256C88.8629 92.7172 87.4174 89.818 85.3305 88.1794L83.9115 87.0652C81.9723 85.5427 80.5742 82.9193 80.2916 80.2734L80.1598 79.0395C79.9124 76.7239 78.8066 74.4025 77.2015 72.8298L75.188 70.8568C73.7137 69.412 72.653 67.3274 72.3023 65.1846L72.0939 63.9108C71.8464 62.3986 71.2457 60.8934 70.369 59.6261C68.593 57.0585 66.7219 54.6988 64.6706 52.7332C62.6188 50.767 60.2039 51.776 60.1608 54.6173C60.1177 57.4581 60.4814 60.4474 61.0597 63.5153C61.3451 65.0296 61.9937 66.5149 62.8956 67.7537L63.6553 68.7973C64.9334 70.5527 65.6711 72.7722 65.6627 74.8365L65.6513 77.6556C65.6421 79.9026 66.5165 82.3209 67.9898 84.1242L68.775 85.0852C70.4587 87.1457 71.3423 89.9842 71.0625 92.4336L70.8578 94.2259C70.5569 96.8623 71.6035 99.9282 73.51 101.994C75.4821 104.131 76.5272 107.328 76.1301 110.008L75.2662 115.84L86.4388 111.176Z" fill="#B6D695"/>
<path d="M62.546 155.727C62.3564 155.265 62.1994 154.78 62.075 154.273C61.8696 153.438 62.5037 152.63 63.3636 152.63H113.129C113.989 152.63 114.622 153.438 114.417 154.273C114.293 154.78 114.136 155.265 113.946 155.727C112.666 158.849 109.552 160.827 106.177 160.827H70.3146C66.9399 160.827 63.8259 158.849 62.546 155.727V155.727Z" fill="#A26D6D"/>
<path d="M113.128 152.63H106.902C107.762 152.63 108.396 153.438 108.191 154.273C108.067 154.78 107.909 155.265 107.72 155.727C106.44 158.849 103.326 160.827 99.9512 160.827H106.177C109.552 160.827 112.666 158.849 113.946 155.727C114.135 155.265 114.292 154.78 114.417 154.273C114.622 153.438 113.989 152.63 113.128 152.63Z" fill="#8A5C5C"/>
<path fill-rule="evenodd" clip-rule="evenodd" d="M90.0532 111.176L78.8829 106.506L83.6391 103.022C85.8247 101.421 87.3645 98.4304 87.4991 95.5256C87.629 92.7172 89.0745 89.818 91.1615 88.1794L92.5805 87.0652C94.5196 85.5427 95.9178 82.9193 96.2004 80.2734L96.3321 79.0395C96.5796 76.7239 97.6854 74.4025 99.2904 72.8298L101.304 70.8568C102.778 69.412 103.839 67.3274 104.19 65.1846L104.398 63.9108C104.646 62.3986 105.246 60.8934 106.123 59.6261C106.425 59.1894 106.73 58.7587 107.038 58.3349L110.133 59.4119L108.607 56.2766C109.634 54.9981 110.701 53.8068 111.821 52.7332C113.873 50.767 116.288 51.776 116.331 54.6173C116.374 57.4581 116.011 60.4474 115.432 63.5153C115.147 65.0296 114.498 66.5149 113.596 67.7537L112.837 68.7973C111.73 70.3169 111.029 72.1843 110.866 73.9976L108.255 74.7669L110.835 76.1652L110.841 77.6556C110.85 79.9026 109.975 82.3209 108.502 84.1242L107.717 85.0852C106.033 87.1457 105.15 89.9842 105.429 92.4336L105.634 94.2259C105.935 96.8623 104.888 99.9282 102.982 101.994C101.01 104.131 99.9648 107.328 100.362 110.008L101.226 115.84L90.0532 111.176Z" fill="#B6D695"/>
<path d="M72.4418 152.63C63.8462 138.371 60.8115 127.81 63.3376 106.918C63.4713 105.81 64.4385 104.977 65.583 104.977H110.909C112.053 104.977 113.021 105.81 113.155 106.918C115.681 127.81 112.646 138.371 104.05 152.63H72.4418Z" fill="#CB895E"/>
<path d="M110.909 104.977H107.284C110.237 127.169 107.284 137.936 98.4264 152.63H104.05C112.646 138.371 115.681 127.809 113.155 106.917C113.021 105.81 112.053 104.977 110.909 104.977Z" fill="#C17D4F"/>
<path d="M87.0224 105.698C85.6283 107.855 83.8492 109.68 81.8609 111.207C81.5214 111.468 81.1878 111.757 80.8593 112.075C77.861 114.974 76.5634 119.884 77.4367 124.075C77.5975 124.847 77.6488 125.64 77.6052 126.448C77.4528 129.276 76.1041 131.997 74.1736 133.66C72.3081 135.266 71.0456 137.12 70.5451 139.287C69.7742 142.623 67.6594 145.369 65.0928 146.21L60.2818 147.785C58.4449 148.386 56.8989 146.702 57.0755 144.29L57.2221 142.287C57.7415 135.193 59.992 128.158 63.6387 122.227L63.7732 122.008C65.0419 119.945 66.519 118.116 68.1092 116.48C69.7826 114.759 71.2018 112.612 72.2518 110.189C72.8369 108.839 73.5255 107.574 74.2993 106.412C77.4732 101.648 83.7893 100.981 87.4918 104.972L87.0224 105.698Z" fill="#79A55E"/>
<path fill-rule="evenodd" clip-rule="evenodd" d="M104.882 107.4C102.555 106.873 100.319 106.006 98.3228 104.7L97.6502 104.259C99.6859 99.3412 105.671 97.4018 110.167 100.251C111.263 100.946 112.316 101.764 113.303 102.696C115.075 104.369 117.091 105.657 119.196 106.477C120.225 106.878 121.245 107.335 122.244 107.858L124.352 111.758L125.013 109.525L125.204 109.658C130.523 113.325 134.94 118.502 137.798 124.418L138.605 126.089C139.576 128.1 138.732 130.169 136.855 130.381L131.937 130.937C129.314 131.233 126.462 129.705 124.638 127.132C123.454 125.461 121.679 124.364 119.438 123.719C117.118 123.053 114.974 121.24 113.884 118.86C113.573 118.18 113.353 117.476 113.241 116.746C112.629 112.78 109.796 109.059 106.086 107.75C105.68 107.606 105.279 107.49 104.882 107.4Z" fill="#84AF69"/>
<path fill-rule="evenodd" clip-rule="evenodd" d="M71.6105 107.4C73.9373 106.873 76.1733 106.006 78.1693 104.7L78.8421 104.259C76.8061 99.3412 70.8215 97.4018 66.3254 100.251C65.2293 100.946 64.176 101.764 63.1888 102.696C61.417 104.369 59.4012 105.657 57.2964 106.477C55.2961 107.256 53.3345 108.246 51.484 109.522L51.2878 109.658C45.9686 113.325 41.5518 118.502 38.6942 124.418L37.8873 126.089C36.9161 128.1 37.7597 130.169 39.6374 130.381L44.5547 130.937C46.3665 131.141 48.2871 130.476 49.9029 129.197L50.7332 126.248L51.4931 127.61C51.6173 127.455 51.7376 127.296 51.8538 127.132C53.0384 125.461 54.8129 124.364 57.0543 123.719C59.3737 123.053 61.5185 121.24 62.6077 118.86C62.9189 118.18 63.1386 117.476 63.2512 116.746C63.8631 112.78 66.6963 109.059 70.4056 107.75C70.8116 107.606 71.2135 107.49 71.6105 107.4Z" fill="#84AF69"/>
</svg>
