<svg width="177" height="176" viewBox="0 0 177 176" fill="none" xmlns="http://www.w3.org/2000/svg">
<circle cx="88.246" cy="88" r="88" fill="#EDF5FF"/>
<path fill-rule="evenodd" clip-rule="evenodd" d="M91.5553 32.2986C92.605 34.0778 93.4537 35.9942 94.1663 38.0035L92.4022 43.6197L95.3798 42.9562C95.3868 43.8079 95.2573 44.6604 94.9952 45.4741L94.5908 46.7297C93.9103 48.8422 94.1471 51.1746 95.2353 53.076L96.7213 55.6729C97.9056 57.7428 98.0756 60.3112 97.176 62.5431L96.6966 63.7325C95.6685 66.2828 96.0462 69.2423 97.6742 71.3948L98.8654 72.9698C100.618 75.2863 100.91 78.5186 99.6067 81.1601C98.2586 83.8921 98.6215 87.2449 100.517 89.5648L92.9251 94.6156L88.2461 94.6167L82.2161 94.6131L75.9758 89.5648C77.8709 87.2449 78.2338 83.8923 76.8856 81.1601C75.5821 78.5186 75.8747 75.2863 77.627 72.9698L78.8182 71.3948C80.4461 69.2423 80.8238 66.2828 79.7958 63.7325L79.3164 62.5431C78.7378 61.1077 78.6016 59.5329 78.8933 58.0411L84.4362 63.0856L80.4003 54.5732L81.2571 53.076C82.345 51.1746 82.582 48.8422 81.9016 46.7297L81.4971 45.4741C81.017 43.9835 80.9818 42.3629 81.4156 40.8555C82.2946 37.8019 83.4004 34.9032 84.9371 32.2986C86.4741 29.6936 90.0183 29.6936 91.5553 32.2986Z" fill="#AFA869"/>
<path d="M88.9741 95.267C88.6204 95.267 88.2623 95.1719 87.9394 94.9721C87.0143 94.3997 86.7284 93.1859 87.3008 92.2608C88.4706 90.3706 88.4073 87.8305 87.1441 85.9405C85.091 82.8688 84.931 78.8318 86.7361 75.6556L87.7119 73.9387C88.6966 72.2057 88.6839 69.936 87.679 68.1559L87.0482 67.0391C85.5711 64.4231 85.3647 61.2135 86.496 58.4533C86.9081 57.4466 88.0592 56.9652 89.0654 57.3775C90.072 57.7899 90.5537 58.9405 90.1411 59.9469C89.4634 61.6006 89.5896 63.5281 90.4788 65.1023L91.1095 66.2193C92.8063 69.2252 92.8167 72.929 91.1368 75.8852L90.161 77.6021C89.1023 79.4651 89.206 81.9363 90.4191 83.7514C92.5249 86.9018 92.6177 91.1545 90.6508 94.3337C90.2782 94.9357 89.6337 95.267 88.9741 95.267V95.267Z" fill="#A59A5E"/>
<path d="M101.727 83.9023L112.13 81.3528C113.63 80.9853 115.146 80.1326 116.374 78.9652L119.144 76.3328C120.678 74.8748 122.64 73.9253 124.441 73.7688L125.054 73.7155C127.874 73.4706 130.92 71.3161 132.233 68.6382C132.806 67.4689 133.737 66.3547 134.887 65.4612L135.283 65.1539C137.367 63.5346 136.945 61.0906 134.651 61.5057C133.607 61.6854 132.64 61.6076 131.851 61.2802L130.873 60.8737C128.832 60.0263 125.78 60.903 123.482 62.9966L122.596 63.8044C121.028 65.2334 119.057 66.1348 117.275 66.2375L114.418 66.4024C112.78 66.4969 110.973 67.2676 109.465 68.5156L100.428 75.9964L101.727 83.9023Z" fill="#897C4F"/>
<path fill-rule="evenodd" clip-rule="evenodd" d="M44.005 68.163L47.7804 68.4531L44.3879 61.3745C44.474 61.3458 44.5582 61.3143 44.6405 61.2802L45.6191 60.8737C46.9525 60.3201 48.7173 60.5023 50.4214 61.279L52.2834 64.7235L52.8391 62.8447C52.8963 62.8946 52.9531 62.9452 53.0095 62.9966L53.8959 63.8044C55.4639 65.2334 57.4347 66.1348 59.2166 66.2375L62.074 66.4024C63.7124 66.4969 65.5185 67.2676 67.0265 68.5156L76.0639 75.9959L74.7647 83.9023L64.3615 81.3528C63.1208 81.0488 61.869 80.4125 60.7781 79.5406L56.6929 71.6085L55.9282 75.2053C54.6956 74.3932 53.3324 73.8801 52.051 73.7688L51.4383 73.7155C48.6182 73.4706 45.572 71.3161 44.2592 68.6382C44.181 68.4786 44.0962 68.3201 44.005 68.163Z" fill="#897C4F"/>
<path fill-rule="evenodd" clip-rule="evenodd" d="M84.9829 95.9061L85.8937 93.799L80.825 84.1573L74.1966 84.1002C72.1349 84.0824 70.1254 84.7302 68.5168 85.9316L66.2161 87.6498C64.5842 88.8684 62.5409 89.517 60.4498 89.4801L57.4426 89.4271C55.0768 89.3855 52.7842 90.2209 51.0788 91.7459L48.6812 93.89C46.9189 95.466 44.5325 96.3032 42.0902 96.202L40.4689 96.135C36.6688 95.9777 33.1675 98.0823 31.7785 101.358C31.1687 102.797 30.1299 104.05 28.7833 104.971L27.5162 105.838C25.8523 106.977 26.7865 109.402 28.8488 109.297L32.274 109.123C33.8066 109.045 35.3299 109.336 36.6942 109.966L41.8675 106.784L38.6084 110.79C41.6189 111.735 45.016 111.113 47.44 109.075L48.031 108.578C49.8343 107.061 52.2304 106.292 54.6543 106.452L58.9893 106.737C61.3089 106.889 63.6077 106.192 65.3857 104.795L67.8537 102.857C69.6792 101.423 72.0508 100.727 74.4278 100.928L75.9039 101.053C79.8202 101.384 83.5221 99.2857 84.9829 95.9061Z" fill="#89804F"/>
<path d="M102.683 91.5468C103.677 90.7752 104.884 90.2479 106.287 89.9441C110.132 89.1118 114.497 90.7922 117.099 93.8464C117.578 94.4088 118.135 94.8933 118.757 95.3087C120.933 96.7628 123.71 97.1798 126.034 96.5299C128.28 95.9017 130.366 95.9048 132.252 96.705C135.155 97.9375 138.384 97.7417 140.461 96.1125L144.356 93.0589C145.843 91.8929 145.474 89.6885 143.592 88.4866L142.029 87.4884C136.491 83.9523 130.014 81.8641 123.562 81.5341L123.324 81.5218C121.079 81.4069 118.89 81.5937 116.778 81.9803C114.556 82.3873 112.164 82.3488 109.778 81.8547C104.716 80.8062 99.7078 81.6689 96.1139 84.2087L93.1385 91.7362L100.925 92.8203L102.683 91.5468Z" fill="#AFA469"/>
<path d="M62.546 155.727C62.3564 155.265 62.1994 154.78 62.075 154.273C61.8696 153.438 62.5037 152.63 63.3636 152.63H113.129C113.989 152.63 114.622 153.438 114.417 154.273C114.293 154.78 114.136 155.265 113.946 155.727C112.666 158.849 109.552 160.827 106.177 160.827H70.3146C66.9399 160.827 63.8259 158.849 62.546 155.727V155.727Z" fill="#A26D6D"/>
<path d="M113.128 152.63H106.902C107.762 152.63 108.396 153.438 108.191 154.273C108.067 154.78 107.909 155.265 107.72 155.727C106.44 158.849 103.326 160.827 99.9512 160.827H106.177C109.552 160.827 112.666 158.849 113.946 155.727C114.135 155.265 114.292 154.78 114.417 154.273C114.622 153.438 113.989 152.63 113.128 152.63Z" fill="#8A5C5C"/>
<path fill-rule="evenodd" clip-rule="evenodd" d="M67.698 56.0458L70.3358 65.4946L71.008 60.6824C71.54 61.6938 71.9121 62.8004 72.0939 63.9108L72.3023 65.1846C72.653 67.3274 73.7137 69.412 75.188 70.8568L77.2015 72.8298C78.8066 74.4025 79.9124 76.7239 80.1598 79.0395L80.2916 80.2734C80.5742 82.9193 81.9723 85.5427 83.9115 87.0652L85.3305 88.1794C87.4174 89.818 88.8629 92.7172 88.9929 95.5256C89.1275 98.4304 90.6672 101.421 92.8528 103.022L97.6091 106.506L86.4388 111.176L75.2662 115.84L76.1301 110.008C76.5272 107.328 75.4821 104.131 73.51 101.994C71.6035 99.9282 70.5569 96.8623 70.8578 94.2259L71.0625 92.4336C71.3423 89.9842 70.4587 87.1457 68.775 85.0852L67.9898 84.1242C66.5165 82.3209 65.6421 79.9026 65.6513 77.6556L65.6627 74.8365C65.6711 72.7722 64.9334 70.5527 63.6553 68.7973L62.8956 67.7537C61.9937 66.5149 61.3451 65.0296 61.0597 63.5153C60.4814 60.4474 60.1177 57.4581 60.1608 54.6173C60.2039 51.776 62.6188 50.767 64.6706 52.7332C65.7234 53.742 66.7287 54.8546 67.698 56.0458Z" fill="#C9D695"/>
<path fill-rule="evenodd" clip-rule="evenodd" d="M90.0532 111.176L78.8829 106.506L83.6391 103.022C85.8247 101.421 87.3645 98.4304 87.4991 95.5256C87.629 92.7172 89.0745 89.818 91.1615 88.1794L92.5805 87.0652C94.5196 85.5427 95.9178 82.9193 96.2004 80.2734L96.3321 79.0395C96.5796 76.7239 97.6854 74.4025 99.2904 72.8298L101.304 70.8568C102.778 69.412 103.839 67.3274 104.19 65.1846L104.398 63.9108C104.646 62.3986 105.246 60.8934 106.123 59.6261C106.425 59.1894 106.73 58.7587 107.038 58.3349L110.133 59.4119L108.607 56.2765C109.634 54.9981 110.701 53.8068 111.821 52.7332C113.873 50.767 116.288 51.776 116.331 54.6173C116.374 57.4581 116.011 60.4474 115.432 63.5153C115.147 65.0296 114.498 66.5149 113.596 67.7537L112.837 68.7973C111.73 70.3169 111.029 72.1843 110.866 73.9976L108.255 74.7669L110.835 76.1652L110.841 77.6556C110.85 79.9026 109.975 82.3209 108.502 84.1242L107.717 85.0852C106.033 87.1457 105.15 89.9842 105.429 92.4336L105.634 94.2259C105.935 96.8623 104.888 99.9282 102.982 101.994C101.01 104.131 99.9648 107.328 100.362 110.008L101.226 115.84L90.0532 111.176Z" fill="#C9D695"/>
<path d="M72.4418 152.63C63.8462 138.371 60.8115 127.81 63.3376 106.917C63.4713 105.81 64.4385 104.977 65.583 104.977H110.909C112.053 104.977 113.021 105.81 113.155 106.917C115.681 127.81 112.646 138.371 104.05 152.63H72.4418Z" fill="#CB895E"/>
<path fill-rule="evenodd" clip-rule="evenodd" d="M71.6104 107.4C73.9372 106.873 76.1733 106.006 78.1692 104.7L78.842 104.259C76.8061 99.3412 70.8214 97.4018 66.3254 100.251C65.2293 100.946 64.176 101.764 63.1887 102.696C61.417 104.369 59.4011 105.657 57.2963 106.477C55.296 107.256 53.3344 108.246 51.484 109.522L51.2877 109.658C47.3978 112.34 43.9904 115.829 41.3225 119.824L45.6907 120.421L39.2147 128.778L46.6057 127.598L45.3155 130.972C46.8946 130.944 48.5117 130.298 49.9028 129.197L50.7331 126.248L51.493 127.61C51.6172 127.455 51.7376 127.296 51.8538 127.132C53.0383 125.461 54.8128 124.364 57.0542 123.719C59.3736 123.053 61.5184 121.24 62.6076 118.86C62.9188 118.18 63.1385 117.476 63.2511 116.746C63.863 112.78 66.6962 109.059 70.4055 107.75C70.8115 107.606 71.2134 107.49 71.6104 107.4Z" fill="#AFA469"/>
<path d="M110.909 104.977H107.284C110.237 127.169 107.284 137.936 98.4264 152.63H104.05C112.646 138.371 115.681 127.809 113.155 106.917C113.021 105.81 112.053 104.977 110.909 104.977Z" fill="#C17D4F"/>
<path fill-rule="evenodd" clip-rule="evenodd" d="M81.8609 111.207C83.8492 109.68 85.6283 107.855 87.0224 105.698L87.4918 104.972C83.7893 100.981 77.4732 101.648 74.2993 106.412C73.5255 107.574 72.8369 108.839 72.2518 110.189C71.2018 112.612 69.7826 114.759 68.1092 116.48C66.519 118.116 65.0419 119.945 63.7732 122.008L63.6387 122.227C60.4168 127.467 58.2848 133.569 57.4736 139.812L61.6515 134.569L57.1947 142.661L57.0755 144.29C56.8989 146.702 58.4449 148.386 60.2818 147.785L65.0928 146.21C67.6594 145.369 69.7742 142.623 70.5451 139.287C71.0456 137.12 72.3081 135.266 74.1736 133.66C76.1041 131.997 77.4528 129.276 77.6052 126.448C77.6488 125.64 77.5975 124.847 77.4367 124.075C76.5634 119.884 77.861 114.974 80.8593 112.075C81.1878 111.757 81.5214 111.468 81.8609 111.207Z" fill="#A4A55E"/>
<path fill-rule="evenodd" clip-rule="evenodd" d="M125.204 109.658C126.033 110.229 126.84 110.837 127.622 111.479L122.344 120.62H125.844L120.759 124.175C120.339 124.003 119.898 123.852 119.438 123.719C117.118 123.053 114.974 121.24 113.884 118.86C113.573 118.18 113.353 117.476 113.241 116.746C112.629 112.78 109.796 109.059 106.086 107.75C105.68 107.606 105.279 107.49 104.882 107.4C102.555 106.873 100.319 106.006 98.3228 104.7L97.6502 104.259C99.6859 99.3412 105.671 97.4018 110.167 100.251C111.263 100.946 112.316 101.764 113.303 102.696C115.075 104.369 117.091 105.657 119.196 106.477C120.225 106.878 121.245 107.335 122.244 107.858L124.352 111.758L125.013 109.525L125.204 109.658Z" fill="#AFA469"/>
</svg>
