<svg width="176" height="177" viewBox="0 0 176 177" fill="none" xmlns="http://www.w3.org/2000/svg">
<circle cx="88" cy="88.6602" r="88" fill="#EDF5FF"/>
<path d="M114.934 21.6131C115.801 20.7091 117.327 21.2008 117.504 22.4412C118.364 28.4883 117.875 34.9656 115.815 41.3603C113.754 47.7549 110.369 53.299 106.141 57.7064C105.273 58.6105 103.747 58.1188 103.571 56.8784C102.711 50.8313 103.199 44.354 105.26 37.9593C107.32 31.5646 110.705 26.0205 114.934 21.6131ZM92.3717 51.2678C94.2971 56.1389 97.2099 60.2816 100.722 63.4975C101.442 64.1571 102.604 63.6976 102.679 62.7238C103.044 57.9758 102.337 52.9613 100.412 48.09C98.4865 43.2189 95.5736 39.0762 92.0619 35.8603C91.3416 35.2007 90.1791 35.6602 90.1043 36.634C89.7399 41.3818 90.4464 46.3966 92.3717 51.2678ZM130.392 53.0943C131.021 52.3472 130.514 51.2048 129.538 51.1706C124.779 51.0039 119.798 51.9181 115.011 54.044C110.224 56.1698 106.206 59.2523 103.139 62.8948C102.51 63.6419 103.017 64.7843 103.993 64.8186C108.752 64.9853 113.733 64.0711 118.52 61.9453C123.307 59.8192 127.325 56.7369 130.392 53.0943Z" fill="#ABCF1B"/>
<path d="M96.7892 50.0513C96.9949 49.9133 97.2047 49.7822 97.4186 49.6578C99.1113 48.6749 99.7812 46.574 98.9093 44.8216C98.8076 44.6173 98.7115 44.4309 98.6247 44.2719C96.8517 41.0249 94.6112 38.1928 92.0533 35.8522C91.3339 35.194 90.1789 35.6615 90.1042 36.6336C89.8219 40.3126 90.1825 44.1519 91.2549 47.9605C91.258 47.9716 91.2613 47.9828 91.2645 47.9945C91.9468 50.3594 94.7459 51.4228 96.7892 50.0513ZM114.925 21.6219C110.701 26.028 107.319 31.5687 105.26 37.9591C104.663 39.8121 104.198 41.6719 103.859 43.5262C103.419 45.9382 104.723 48.3354 106.999 49.2474C107.032 49.2607 107.065 49.2741 107.098 49.2875C109.62 50.3067 112.511 49.1989 113.68 46.7429C114.496 45.0261 115.212 43.2294 115.814 41.36C117.875 34.9653 118.364 28.488 117.503 22.4408C117.327 21.2014 115.792 20.7181 114.925 21.6219ZM129.538 51.1706C126.258 51.0555 122.873 51.4542 119.518 52.409C118.857 52.5972 117.713 53.0248 116.593 53.4678C114.941 54.121 113.912 55.7664 114.024 57.5386C114.026 57.5774 114.029 57.6163 114.031 57.6552C114.194 60.537 117.171 62.3776 119.797 61.1782C121.087 60.5888 122.19 60.0483 122.666 59.753C125.661 57.894 128.257 55.63 130.392 53.0947C131.019 52.3507 130.51 51.2047 129.538 51.1706Z" fill="#C7E746"/>
<path d="M106.32 56.7754C99.7062 76.2252 91.9146 94.4356 83.3487 110.462C82.3911 110.323 81.4392 110.155 80.4941 109.958C89.1563 93.8742 97.0352 75.5256 103.71 55.8967C103.918 55.2844 104.527 54.9034 105.169 54.9827C105.178 54.9839 105.187 54.9849 105.197 54.9861C106.053 55.0912 106.598 55.9584 106.32 56.7754V56.7754Z" fill="#B0AA17"/>
<path d="M62.3002 156.387C62.1106 155.925 61.9536 155.44 61.8292 154.934C61.6238 154.098 62.2579 153.291 63.1177 153.291H112.883C113.743 153.291 114.377 154.098 114.171 154.934C114.047 155.44 113.89 155.925 113.7 156.387C112.42 159.51 109.306 161.488 105.932 161.488H70.0687C66.694 161.488 63.58 159.51 62.3002 156.387V156.387Z" fill="#A36D6D"/>
<path d="M112.883 153.291H106.657C107.516 153.291 108.15 154.098 107.945 154.934C107.821 155.44 107.664 155.925 107.474 156.387C106.194 159.51 103.08 161.488 99.7054 161.488H105.931C109.306 161.488 112.42 159.51 113.7 156.387C113.889 155.925 114.046 155.44 114.171 154.934C114.376 154.098 113.743 153.291 112.883 153.291Z" fill="#8A5C5C"/>
<path d="M72.1959 153.291C63.6003 139.031 60.5656 128.47 63.0916 107.578C63.2254 106.471 64.1926 105.637 65.3371 105.637H110.663C111.808 105.637 112.775 106.471 112.909 107.578C115.435 128.47 112.4 139.031 103.805 153.291H72.1959Z" fill="#CB895E"/>
<path d="M110.663 105.637H107.038C109.991 127.829 107.038 138.596 98.1805 153.29H103.805C112.4 139.031 115.435 128.47 112.909 107.578C112.775 106.471 111.808 105.637 110.663 105.637Z" fill="#C17D4F"/>
<path d="M96.3605 78.0296L104.098 72.0836L101.986 70.056L96.3605 78.0296Z" fill="#EDF5FF"/>
<path d="M95.2278 41.3768L96.7453 36.5353L93.643 36.5569L95.2278 41.3768Z" fill="#EDF5FF"/>
<path d="M118.806 54.8167L129.402 49.7332L125.169 44.9364L118.806 54.8167Z" fill="#EDF5FF"/>
<path d="M114.626 35.5977L127.473 24.6914L121.608 20.2597L114.626 35.5977Z" fill="#EDF5FF"/>
<path d="M104.907 49.2166L101.617 45.6386L103.453 44.5784L104.907 49.2166Z" fill="#EDF5FF"/>
</svg>
