<svg width="176" height="177" viewBox="0 0 176 177" fill="none" xmlns="http://www.w3.org/2000/svg">
<circle cx="88" cy="88.6602" r="88" fill="#EDF5FF"/>
<path d="M114.934 21.6131C115.801 20.709 117.327 21.2007 117.504 22.4411C118.364 28.4882 117.875 34.9655 115.815 41.3602C113.754 47.7549 110.369 53.2989 106.141 57.7064C105.273 58.6104 103.747 58.1187 103.571 56.8783C102.711 50.8312 103.199 44.3539 105.26 37.9592C107.32 31.5646 110.705 26.0204 114.934 21.6131ZM82.6276 72.5783C87.3013 74.6239 92.1226 75.5679 96.6959 75.5202C97.634 75.5103 98.0854 74.4787 97.4563 73.7831C94.3887 70.3909 90.4242 67.4891 85.7507 65.4436C81.0773 63.398 76.2557 62.454 71.6825 62.5017C70.7444 62.5116 70.293 63.5431 70.9221 64.2388C73.9897 67.6309 77.954 70.5326 82.6276 72.5783ZM84.2496 61.5695C88.8298 64.9703 93.8421 67.2145 98.8286 68.3211C99.8514 68.548 100.597 67.5446 100.083 66.6312C97.5818 62.178 93.9836 58.0292 89.4033 54.6283C84.8231 51.2275 79.8108 48.9833 74.8243 47.8767C73.8015 47.6498 73.0563 48.6533 73.5695 49.5667C76.0713 54.0198 79.6693 58.1687 84.2496 61.5695ZM92.3717 51.2677C94.297 56.1388 97.2099 60.2815 100.722 63.4974C101.442 64.157 102.604 63.6975 102.679 62.7238C103.044 57.9758 102.337 52.9612 100.412 48.09C98.4865 43.2188 95.5736 39.0761 92.0618 35.8603C91.3416 35.2006 90.1791 35.6601 90.1043 36.6339C89.7399 41.3817 90.4464 46.3965 92.3717 51.2677ZM79.8215 82.2407C84.5585 83.6422 89.2921 84.0098 93.6579 83.4869C94.5534 83.3796 94.8494 82.3788 94.1564 81.8016C90.7779 78.9874 86.6062 76.7204 81.8692 75.319C77.1322 73.9175 72.3986 73.5499 68.0329 74.0728C67.1373 74.1801 66.8413 75.1809 67.5344 75.7581C70.913 78.5722 75.0845 80.8393 79.8215 82.2407ZM79.5405 90.8019C83.3067 91.3804 86.9631 91.1659 90.2465 90.306C90.9201 90.1297 91.0428 89.3301 90.4534 88.9599C87.5795 87.1541 84.1561 85.8518 80.3901 85.273C76.624 84.6943 72.9674 84.9091 69.6841 85.769C69.0105 85.9453 68.8878 86.7448 69.4772 87.1151C72.3509 88.9211 75.7744 90.2235 79.5405 90.8019ZM81.1884 99.5037C84.2102 98.2134 86.7947 96.4012 88.8153 94.2935C89.2297 93.8611 88.9602 93.2296 88.3612 93.2298C85.4413 93.2314 82.3451 93.8448 79.3233 95.1351C76.3015 96.4254 73.717 98.2376 71.6964 100.345C71.282 100.778 71.5515 101.409 72.1505 101.409C75.0702 101.407 78.1665 100.794 81.1884 99.5037ZM124.85 85.8626C125.779 85.8045 126.18 84.7522 125.525 84.0906C122.33 80.8649 118.269 78.1749 113.544 76.3754C108.818 74.5757 103.996 73.883 99.4653 74.1664C98.5359 74.2246 98.1352 75.2768 98.7904 75.9384C101.985 79.1641 106.046 81.8542 110.772 83.6537C115.497 85.4533 120.319 86.1461 124.85 85.8626ZM133.236 73.5379C134.244 73.2462 134.416 72.0081 133.525 71.4529C129.179 68.7464 124.016 66.8329 118.349 66.0471C112.683 65.2614 107.194 65.6977 102.275 67.1199C101.266 67.4116 101.095 68.6498 101.986 69.2049C106.332 71.9114 111.495 73.8249 117.162 74.6107C122.828 75.3962 128.317 74.9599 133.236 73.5379ZM130.392 53.0942C131.021 52.3472 130.514 51.2047 129.538 51.1706C124.779 51.0039 119.798 51.918 115.011 54.0439C110.224 56.1697 106.206 59.2522 103.139 62.8947C102.51 63.6418 103.017 64.7842 103.993 64.8185C108.752 64.9852 113.733 64.0711 118.52 61.9452C123.307 59.8191 127.325 56.7369 130.392 53.0942ZM119.2 96.458C120.085 96.5244 120.575 95.6029 120.025 94.9064C117.345 91.5102 113.789 88.4972 109.511 86.2219C105.233 83.9465 100.747 82.6823 96.4327 82.3588C95.5479 82.2924 95.0579 83.2138 95.6075 83.9104C98.2875 87.3066 101.844 90.3196 106.121 92.5949C110.399 94.8701 114.886 96.1343 119.2 96.458ZM109.843 103.192C110.525 103.342 110.998 102.686 110.639 102.087C108.892 99.1678 106.426 96.4465 103.325 94.2137C100.224 91.9812 96.8611 90.5053 93.5384 89.7747C92.8569 89.6249 92.3844 90.2812 92.7427 90.88C94.4896 93.7993 96.9559 96.5207 100.057 98.7534C103.158 100.986 106.521 102.462 109.843 103.192ZM97.9138 111.5C98.3505 111.943 98.9854 111.681 98.9831 111.059C98.9721 108.026 98.3446 104.792 97.036 101.616C95.7274 98.4395 93.8947 95.7019 91.7662 93.5415C91.3296 93.0984 90.6947 93.36 90.6969 93.9821C90.708 97.0149 91.3354 100.249 92.644 103.425C93.9527 106.602 95.7854 109.339 97.9138 111.5Z" fill="#ABCF1B"/>
<path d="M106.32 56.7754C99.7062 76.2252 91.9146 94.4356 83.3487 110.462C82.3911 110.323 81.4392 110.155 80.4941 109.958C89.1563 93.8742 97.0352 75.5256 103.71 55.8967C103.918 55.2844 104.527 54.9034 105.169 54.9827C105.178 54.9839 105.187 54.9849 105.197 54.9861C106.053 55.0912 106.598 55.9584 106.32 56.7754V56.7754Z" fill="#A4B017"/>
<path d="M62.3001 156.387C62.1105 155.925 61.9536 155.44 61.8292 154.934C61.6238 154.098 62.2578 153.291 63.1177 153.291H112.883C113.743 153.291 114.377 154.098 114.171 154.934C114.047 155.44 113.89 155.925 113.7 156.387C112.42 159.51 109.306 161.488 105.932 161.488H70.0687C66.694 161.488 63.58 159.51 62.3001 156.387V156.387Z" fill="#A36D6D"/>
<path d="M112.883 153.291H106.657C107.516 153.291 108.15 154.098 107.945 154.934C107.821 155.44 107.663 155.925 107.474 156.387C106.194 159.51 103.08 161.488 99.7053 161.488H105.931C109.306 161.488 112.42 159.51 113.7 156.387C113.889 155.925 114.046 155.44 114.171 154.934C114.376 154.098 113.743 153.291 112.883 153.291Z" fill="#8A5C5C"/>
<path d="M72.1958 153.291C63.6003 139.031 60.5655 128.47 63.0916 107.578C63.2254 106.471 64.1926 105.637 65.3371 105.637H110.663C111.808 105.637 112.775 106.471 112.909 107.578C115.435 128.47 112.4 139.031 103.805 153.291H72.1958Z" fill="#CB895E"/>
<path d="M98.284 112.64C98.7206 113.083 99.3556 112.821 99.3533 112.199C99.3423 109.166 98.7148 105.932 97.4062 102.756C96.0976 99.5795 94.2649 96.8419 92.1364 94.6815C91.6998 94.2384 91.0648 94.5 91.0671 95.122C91.0781 98.1548 91.7056 101.389 93.0142 104.565C94.3229 107.742 96.1556 110.479 98.284 112.64Z" fill="#ABCF1B"/>
<path d="M97.0909 110.308C96.9393 110.713 97.0219 111.168 97.3033 111.495C97.6474 111.896 98.0012 112.281 98.3636 112.649C98.7542 113.045 99.4349 112.765 99.433 112.208C99.4312 111.692 99.4114 111.17 99.3736 110.644C99.2824 109.378 97.5364 109.119 97.0909 110.308Z" fill="#B9E746"/>
<path d="M110.663 105.637H107.038C109.991 127.829 107.038 138.596 98.1805 153.29H103.804C112.4 139.031 115.435 128.47 112.909 107.578C112.775 106.471 111.807 105.637 110.663 105.637Z" fill="#C17D4F"/>
<path fill-rule="evenodd" clip-rule="evenodd" d="M81.8867 72.2133C83.9154 73.0964 86.2706 72.1013 87.0468 70.0293C87.766 68.1094 86.8583 65.9606 84.9801 65.1383C84.6077 64.9754 84.3143 64.8507 84.1761 64.7978C80.001 63.199 75.744 62.4594 71.6828 62.5016C70.7891 62.5111 70.3223 63.5757 70.9218 64.2386C73.6059 67.207 76.9768 69.7996 80.9087 71.7718C81.0656 71.8507 81.4263 72.013 81.8867 72.2133ZM81.0633 75.1011C83.0503 75.6942 84.1177 77.8484 83.3902 79.7904C82.7289 81.5554 80.8125 82.508 79.0074 81.9662C78.5478 81.8281 78.174 81.7114 77.9966 81.6487C74.0093 80.2383 70.472 78.205 67.5343 75.758C66.8906 75.2218 67.2034 74.1723 68.035 74.0727C72.0118 73.5966 76.2937 73.8594 80.6052 74.9693C80.6845 74.9897 80.8465 75.0364 81.0633 75.1011ZM77.402 84.9764C77.515 84.9814 77.6493 84.9906 77.7989 85.0028C79.5693 85.1471 80.7083 86.9493 80.0852 88.6126C79.61 89.8813 78.259 90.6085 76.9454 90.2771C76.5464 90.1763 76.1521 90.0674 75.7629 89.9504C73.4711 89.2617 71.3564 88.2961 69.4769 87.115C68.9292 86.7708 69.046 85.9365 69.6718 85.7722C72.0819 85.1396 74.6935 84.8548 77.402 84.9764ZM97.4186 49.6578C97.2047 49.7821 96.9949 49.9133 96.7892 50.0512C94.7459 51.4228 91.9468 50.3594 91.2645 47.9944L91.2549 47.9605C90.1825 44.1519 89.8219 40.3126 90.1042 36.6336C90.1789 35.6615 91.3339 35.1939 92.0533 35.8521C94.6112 38.1928 96.8517 41.0249 98.6247 44.2719C98.7115 44.4308 98.8076 44.6172 98.9092 44.8215C99.7812 46.574 99.1113 48.6749 97.4186 49.6578ZM84.3365 61.6339C84.3075 61.6125 84.2784 61.5911 84.2496 61.5696C79.6693 58.1687 76.0713 54.0197 73.5694 49.5664C73.0834 48.7013 73.8552 47.6616 74.824 47.8765C79.8106 48.9833 84.823 51.2274 89.4033 54.6282L89.4902 54.693C91.0235 55.8375 91.603 57.8664 90.9319 59.6581C89.9288 62.3354 86.6388 63.3336 84.3387 61.6355L84.3365 61.6339ZM71.6959 100.346C72.2313 99.7872 72.806 99.2496 73.4181 98.7369C74.5503 97.7886 76.2062 98.9679 75.6881 100.351C75.4983 100.857 75.041 101.218 74.5034 101.278C73.7098 101.365 72.9238 101.408 72.15 101.409C71.5994 101.409 71.3148 100.743 71.6959 100.346ZM105.26 37.9591C107.319 31.5687 110.701 26.0279 114.925 21.6219C115.792 20.7181 117.327 21.2013 117.503 22.4408C118.364 28.488 117.875 34.9653 115.814 41.36C115.212 43.2293 114.496 45.0261 113.68 46.7428C112.511 49.1988 109.62 50.3067 107.098 49.2875L106.999 49.2474C104.723 48.3354 103.419 45.9382 103.859 43.5262C104.198 41.6719 104.663 39.8121 105.26 37.9591ZM96.8535 110.347C96.5721 110.019 96.4896 109.564 96.6411 109.159C97.0867 107.97 98.8326 108.229 98.9238 109.495C98.9617 110.022 98.9814 110.543 98.9832 111.059C98.9852 111.616 98.3044 111.896 97.9139 111.5C97.5515 111.132 97.1976 110.747 96.8535 110.347ZM116.186 65.8054C116.904 65.8665 117.625 65.9469 118.349 66.0472C124.016 66.833 129.179 68.7465 133.525 71.453C134.368 71.978 134.19 73.262 133.236 73.5378C131.541 74.028 129.778 74.401 127.963 74.6473L120.957 71.1497L125.113 74.9261C122.531 75.0823 119.867 74.9857 117.162 74.6107C116.433 74.5096 115.712 74.3898 115 74.252C112.419 73.7525 110.926 71.0276 111.848 68.5662C112.516 66.7814 114.287 65.6441 116.186 65.8054ZM119.518 52.409C122.873 51.4541 126.258 51.0555 129.538 51.1706C130.51 51.2047 131.019 52.3507 130.392 53.0946C128.257 55.63 125.661 57.894 122.666 59.753C122.19 60.0483 121.087 60.5887 119.797 61.1782C117.171 62.3776 114.194 60.537 114.031 57.6552C114.03 57.6319 114.028 57.6087 114.027 57.5855C114.026 57.5698 114.025 57.5542 114.024 57.5386C113.912 55.7664 114.941 54.1209 116.593 53.4678C117.713 53.0248 118.857 52.5972 119.518 52.409ZM113.121 76.2175C113.262 76.2692 113.403 76.3216 113.544 76.3753C118.269 78.1748 122.33 80.8652 125.525 84.0907C126.155 84.7273 125.744 85.8066 124.85 85.8625C120.319 86.146 115.497 85.4532 110.772 83.6536C110.631 83.6001 110.491 83.5458 110.352 83.4907C108.374 82.7087 107.379 80.4936 108.126 78.5015C108.878 76.4944 111.109 75.4798 113.121 76.2175ZM109.462 86.1956L109.511 86.2219C113.789 88.4972 117.345 91.5103 120.025 94.9067C120.544 95.5638 120.035 96.5207 119.2 96.4582C114.886 96.1346 110.4 94.8702 106.121 92.595L106.094 92.5802C104.543 91.7534 103.859 89.892 104.476 88.246L104.535 88.0875C105.277 86.1066 107.592 85.2053 109.462 86.1956ZM105.393 95.8768C105.636 96.0772 105.847 96.2584 106.002 96.4027C107.874 98.1382 109.429 100.065 110.639 102.087C110.971 102.642 110.474 103.331 109.843 103.192C107.802 102.743 105.747 102.014 103.746 101C103.285 100.767 102.827 100.518 102.373 100.255C101.24 99.5973 100.737 98.2264 101.196 97C101.839 95.2847 103.981 94.7101 105.393 95.8768Z" fill="#C7E746"/>
<path d="M120.957 71.1826L140.956 81.1664L137.499 86.2161L120.957 71.1826Z" fill="#EDF5FF"/>
<path d="M81.7942 73.1122L63.3566 60.4756L67.4748 55.9488L81.7942 73.1122Z" fill="#EDF5FF"/>
<path d="M88.2572 58.5587L72.5459 42.6595L77.4467 38.9944L88.2572 58.5587Z" fill="#EDF5FF"/>
<path d="M108.376 56.481L97.7485 36.8165L103.48 34.6714L108.376 56.481Z" fill="#EDF5FF"/>
<path d="M80.1572 90.6024L58.1141 86.8969L59.9452 81.0575L80.1572 90.6024Z" fill="#EDF5FF"/>
<path d="M85.3407 102.294L90.21 101.112L89.7069 99.8355L85.3407 102.294Z" fill="#EDF5FF"/>
</svg>
