<svg width="176" height="177" viewBox="0 0 176 177" fill="none" xmlns="http://www.w3.org/2000/svg">
<circle cx="88" cy="88.8206" r="88" fill="#EDF5FF"/>
<path d="M114.934 21.7735C115.801 20.8695 117.327 21.3612 117.504 22.6016C118.364 28.6487 117.875 35.126 115.815 41.5207C113.754 47.9153 110.369 53.4594 106.141 57.8668C105.273 58.7709 103.747 58.2792 103.571 57.0388C102.711 50.9917 103.199 44.5144 105.26 38.1197C107.32 31.725 110.705 26.1809 114.934 21.7735ZM92.3717 51.4282C94.2971 56.2993 97.2099 60.442 100.722 63.6579C101.442 64.3175 102.604 63.858 102.679 62.8842C103.044 58.1362 102.337 53.1217 100.412 48.2504C98.4865 43.3793 95.5736 39.2366 92.0619 36.0207C91.3416 35.3611 90.1791 35.8206 90.1043 36.7944C89.7399 41.5422 90.4464 46.557 92.3717 51.4282ZM130.392 53.2547C131.021 52.5076 130.514 51.3652 129.538 51.331C124.779 51.1643 119.798 52.0785 115.011 54.2044C110.224 56.3302 106.206 59.4127 103.139 63.0552C102.51 63.8023 103.017 64.9447 103.993 64.979C108.752 65.1457 113.733 64.2315 118.52 62.1057C123.307 59.9796 127.325 56.8973 130.392 53.2547Z" fill="#75CF1B"/>
<path d="M96.7892 50.2117C96.9949 50.0737 97.2047 49.9426 97.4186 49.8182C99.1113 48.8353 99.7812 46.7344 98.9093 44.982C98.8076 44.7777 98.7115 44.5913 98.6247 44.4323C96.8517 41.1853 94.6112 38.3532 92.0533 36.0126C91.3339 35.3544 90.1789 35.8219 90.1042 36.794C89.8219 40.473 90.1825 44.3123 91.2549 48.1209C91.258 48.132 91.2613 48.1432 91.2645 48.1549C91.9468 50.5198 94.7459 51.5832 96.7892 50.2117ZM114.925 21.7823C110.701 26.1884 107.319 31.7291 105.26 38.1195C104.663 39.9725 104.198 41.8323 103.859 43.6866C103.419 46.0986 104.723 48.4958 106.999 49.4078C107.032 49.4211 107.065 49.4345 107.098 49.4479C109.62 50.4671 112.511 49.3593 113.68 46.9033C114.496 45.1865 115.212 43.3898 115.814 41.5204C117.875 35.1257 118.364 28.6484 117.503 22.6012C117.327 21.3618 115.792 20.8785 114.925 21.7823ZM129.538 51.331C126.258 51.2159 122.873 51.6146 119.518 52.5694C118.857 52.7576 117.713 53.1852 116.593 53.6282C114.941 54.2814 113.912 55.9268 114.024 57.699C114.026 57.7378 114.029 57.7767 114.031 57.8156C114.194 60.6974 117.171 62.538 119.797 61.3386C121.087 60.7492 122.19 60.2087 122.666 59.9134C125.661 58.0544 128.257 55.7904 130.392 53.2551C131.019 52.5111 130.51 51.3651 129.538 51.331Z" fill="#83E646"/>
<path d="M106.32 56.9358C99.7062 76.3856 91.9146 94.596 83.3487 110.623C82.3911 110.484 81.4392 110.315 80.4941 110.118C89.1563 94.0346 97.0352 75.686 103.71 56.0571C103.918 55.4448 104.527 55.0638 105.169 55.1431C105.178 55.1443 105.187 55.1453 105.197 55.1465C106.053 55.2516 106.598 56.1188 106.32 56.9358V56.9358Z" fill="#61C027"/>
<path d="M62.3002 156.548C62.1106 156.085 61.9536 155.6 61.8292 155.094C61.6238 154.259 62.2579 153.451 63.1177 153.451H112.883C113.743 153.451 114.377 154.259 114.171 155.094C114.047 155.6 113.89 156.085 113.7 156.548C112.42 159.67 109.306 161.648 105.932 161.648H70.0687C66.694 161.648 63.58 159.67 62.3002 156.548V156.548Z" fill="#A36D6D"/>
<path d="M112.883 153.451H106.657C107.516 153.451 108.15 154.259 107.945 155.094C107.821 155.6 107.664 156.085 107.474 156.548C106.194 159.67 103.08 161.648 99.7054 161.648H105.931C109.306 161.648 112.42 159.67 113.7 156.548C113.889 156.085 114.046 155.6 114.171 155.094C114.376 154.259 113.743 153.451 112.883 153.451Z" fill="#8A5C5C"/>
<path d="M72.1959 153.451C63.6003 139.192 60.5656 128.63 63.0916 107.738C63.2254 106.631 64.1926 105.798 65.3371 105.798H110.663C111.808 105.798 112.775 106.631 112.909 107.738C115.435 128.63 112.4 139.192 103.805 153.451H72.1959Z" fill="#CB895E"/>
<path d="M110.663 105.798H107.038C109.991 127.99 107.038 138.757 98.1805 153.451H103.805C112.4 139.191 115.435 128.63 112.909 107.738C112.775 106.631 111.808 105.798 110.663 105.798Z" fill="#C17D4F"/>
</svg>
