<svg width="176" height="177" viewBox="0 0 176 177" fill="none" xmlns="http://www.w3.org/2000/svg">
<circle cx="88" cy="88.3301" r="88" fill="#EDF5FF"/>
<g clip-path="url(#clip0)">
<path d="M88 94.9468L81.97 94.9432L75.7298 89.8949C77.6249 87.5751 77.9878 84.2225 76.6396 81.4903C75.3361 78.8488 75.6286 75.6165 77.381 73.2999L78.5721 71.725C80.2001 69.5725 80.5778 66.6129 79.5497 64.0627L79.0704 62.8733C78.1707 60.6416 78.3407 58.073 79.525 56.0031L81.011 53.4062C82.099 51.5047 82.336 49.1723 81.6556 47.0599L81.2511 45.8043C80.771 44.3137 80.7358 42.6931 81.1696 41.1856C82.0485 38.132 83.1543 35.2334 84.6911 32.6288C86.2281 30.0238 89.7722 30.0238 91.3092 32.6288C92.846 35.2334 93.9518 38.132 94.8307 41.1856C95.2645 42.6928 95.2293 44.3137 94.7492 45.8043L94.3447 47.0599C93.6643 49.1723 93.9011 51.5047 94.9893 53.4062L96.4753 56.0031C97.6596 58.073 97.8296 60.6413 96.9299 62.8733L96.4506 64.0627C95.4225 66.6129 95.8002 69.5725 97.4282 71.725L98.6193 73.2999C100.372 75.6165 100.664 78.8488 99.3607 81.4903C98.0125 84.2223 98.3754 87.5751 100.271 89.8949L92.6791 94.9458L88 94.9468Z" fill="#65BE84"/>
<path d="M88.7282 95.5972C88.3744 95.5972 88.0164 95.5021 87.6935 95.3023C86.7684 94.7299 86.4824 93.5161 87.0548 92.591C88.2246 90.7008 88.1614 88.1607 86.8981 86.2707C84.845 83.199 84.685 79.162 86.4901 75.9858L87.4659 74.2689C88.4506 72.5359 88.4379 70.2662 87.433 68.4861L86.8023 67.3693C85.3252 64.7533 85.1187 61.5437 86.25 58.7835C86.6621 57.7768 87.8133 57.2954 88.8194 57.7077C89.826 58.1201 90.3077 59.2707 89.8951 60.2771C89.2175 61.9308 89.3436 63.8583 90.2328 65.4325L90.8635 66.5495C92.5603 69.5554 92.5708 73.2591 90.8908 76.2154L89.915 77.9323C88.8564 79.7953 88.9601 82.2665 90.1732 84.0816C92.279 87.232 92.3717 91.4847 90.4048 94.6639C90.0322 95.2659 89.3877 95.5972 88.7282 95.5972V95.5972Z" fill="#58B06E"/>
<path d="M74.5188 84.2325L64.1156 81.683C62.6161 81.3155 61.1005 80.4628 59.8721 79.2953L57.1019 76.663C55.5677 75.205 53.6056 74.2554 51.8051 74.0989L51.1925 74.0457C48.3723 73.8007 45.3261 71.6463 44.0134 68.9683C43.4402 67.7991 42.5095 66.6849 41.3591 65.7914L40.9633 65.484C38.8787 63.8647 39.3015 61.4207 41.5946 61.8358C42.6395 62.0155 43.6061 61.9378 44.3946 61.6103L45.3733 61.2038C47.4143 60.3564 50.4662 61.2331 52.7636 63.3267L53.65 64.1346C55.2181 65.5635 57.1888 66.4649 58.9707 66.5676L61.8281 66.7325C63.4665 66.8271 65.2726 67.5977 66.7806 68.8457L75.818 76.326L74.5188 84.2325Z" fill="#40867B"/>
<path d="M85.6479 94.129L84.737 96.2361C83.2762 99.6157 79.5743 101.714 75.658 101.383L74.1819 101.258C71.805 101.057 69.4333 101.753 67.6079 103.187L65.1399 105.125C63.3618 106.522 61.0631 107.219 58.7434 107.067L54.4085 106.782C51.9846 106.622 49.5885 107.391 47.7852 108.908L47.1942 109.405C44.3845 111.767 40.2674 112.228 36.9605 110.548L36.754 110.444C35.3136 109.712 33.6762 109.369 32.0281 109.453L28.6029 109.627C26.5407 109.732 25.6064 107.307 27.2703 106.168L28.5374 105.301C29.8841 104.38 30.9228 103.127 31.5327 101.688C32.9216 98.4123 36.423 96.3077 40.223 96.465L41.8444 96.532C44.2866 96.6332 46.673 95.796 48.4353 94.22L50.8329 92.076C52.5384 90.5509 54.831 89.7156 57.1968 89.7571L60.204 89.8101C62.295 89.8471 64.3384 89.1985 65.9702 87.9798L68.271 86.2616C69.8796 85.0602 71.8891 84.4124 73.9508 84.4302L80.5792 84.4873L85.6479 94.129Z" fill="#40867B"/>
<path d="M73.5627 91.8769C72.5693 91.1052 71.3621 90.5779 69.9586 90.2742C66.114 89.4418 61.7494 91.1223 59.1471 94.1764C58.668 94.7389 58.1112 95.2233 57.4894 95.6387C55.3132 97.0929 52.5364 97.5098 50.2121 96.86C47.9661 96.2318 45.8797 96.2348 43.9946 97.0351C41.0913 98.2675 37.8621 98.0718 35.7846 96.4425L31.8905 93.3889C30.4035 92.223 30.7717 90.0186 32.654 88.8167L34.2175 87.8184C39.7552 84.2824 46.2319 82.1942 52.6844 81.8642L52.9222 81.8519C55.1669 81.737 57.3566 81.9238 59.468 82.3104C61.6898 82.7174 64.082 82.6789 66.4679 82.1848C71.5305 81.1363 76.5383 81.999 80.1322 84.5388L86.2855 88.887L75.3206 93.1504L73.5627 91.8769Z" fill="#5EB87D"/>
<path d="M101.481 84.2325L111.885 81.683C113.384 81.3155 114.9 80.4628 116.128 79.2953L118.898 76.663C120.433 75.205 122.395 74.2554 124.195 74.0989L124.808 74.0457C127.628 73.8007 130.674 71.6463 131.987 68.9683C132.56 67.7991 133.491 66.6849 134.641 65.7914L135.037 65.484C137.122 63.8647 136.699 61.4207 134.406 61.8358C133.361 62.0155 132.394 61.9378 131.606 61.6103L130.627 61.2038C128.586 60.3564 125.534 61.2331 123.237 63.3267L122.35 64.1346C120.782 65.5635 118.811 66.4649 117.03 66.5676L114.172 66.7325C112.534 66.8271 110.728 67.5977 109.22 68.8457L100.182 76.3266L101.481 84.2325Z" fill="#40867B"/>
<path d="M90.3523 94.129L91.2631 96.2361C92.7239 99.6157 96.4259 101.714 100.342 101.383L101.818 101.258C104.195 101.057 106.567 101.753 108.392 103.187L110.86 105.125C112.638 106.522 114.937 107.219 117.257 107.067L121.592 106.782C124.016 106.622 126.412 107.391 128.215 108.908L128.806 109.405C131.616 111.767 135.733 112.228 139.04 110.548L139.246 110.444C140.687 109.712 142.324 109.369 143.972 109.453L147.397 109.627C149.459 109.732 150.394 107.307 148.73 106.168L147.463 105.301C146.116 104.38 145.077 103.127 144.467 101.688C143.079 98.4123 139.577 96.3077 135.777 96.465L134.156 96.532C131.714 96.6332 129.327 95.796 127.565 94.22L125.167 92.076C123.462 90.5509 121.169 89.7156 118.803 89.7571L115.796 89.8101C113.705 89.8471 111.662 89.1985 110.03 87.9798L107.729 86.2616C106.121 85.0602 104.111 84.4124 102.049 84.4302L95.421 84.4873L90.3523 94.129Z" fill="#40867B"/>
<path d="M102.438 91.8769C103.431 91.1052 104.638 90.5779 106.042 90.2742C109.886 89.4418 114.251 91.1223 116.853 94.1764C117.332 94.7389 117.889 95.2233 118.511 95.6387C120.687 97.0929 123.464 97.5098 125.788 96.86C128.034 96.2318 130.121 96.2348 132.006 97.0351C134.909 98.2675 138.138 98.0718 140.216 96.4425L144.11 93.3889C145.597 92.223 145.229 90.0186 143.346 88.8167L141.783 87.8184C136.245 84.2824 129.768 82.1942 123.316 81.8642L123.078 81.8519C120.833 81.737 118.644 81.9238 116.532 82.3104C114.311 82.7174 111.918 82.6789 109.532 82.1848C104.47 81.1363 99.462 81.999 95.8681 84.5388L92.8928 92.0663L100.679 93.1504L102.438 91.8769Z" fill="#5EB87D"/>
<path d="M86.1929 111.506L97.3632 106.836L92.607 103.351C90.4214 101.751 88.8816 98.7604 88.747 95.8556C88.6171 93.0472 87.1716 90.148 85.0846 88.5093L83.6656 87.3951C81.7265 85.8727 80.3284 83.2492 80.0457 80.6034L79.914 79.3694C79.6665 77.0539 78.5607 74.7324 76.9557 73.1598L74.9421 71.1867C73.4678 69.742 72.4071 67.6573 72.0565 65.5145L71.848 64.2408C71.6005 62.7285 70.9999 61.2234 70.1232 59.956C68.3471 57.3884 66.476 55.0288 64.4248 53.0631C62.373 51.097 59.958 52.1059 59.9149 54.9472C59.8719 57.788 60.2356 60.7774 60.8138 63.8453C61.0992 65.3596 61.7478 66.8449 62.6497 68.0837L63.4094 69.1273C64.6875 70.8827 65.4253 73.1022 65.4169 75.1664L65.4054 77.9856C65.3962 80.2326 66.2706 82.6509 67.7439 84.4542L68.5291 85.4152C70.2129 87.4757 71.0964 90.3142 70.8166 92.7635L70.612 94.5559C70.311 97.1923 71.3577 100.258 73.2642 102.324C75.2362 104.461 76.2814 107.658 75.8843 110.338L75.0204 116.17L86.1929 111.506Z" fill="#88E39D"/>
<path d="M89.8072 111.506L78.6369 106.836L83.3932 103.351C85.5787 101.751 87.1185 98.7604 87.2531 95.8556C87.3831 93.0472 88.8286 90.148 90.9155 88.5093L92.3345 87.3951C94.2737 85.8727 95.6718 83.2492 95.9544 80.6034L96.0862 79.3694C96.3336 77.0539 97.4394 74.7324 99.0444 73.1598L101.058 71.1867C102.532 69.742 103.593 67.6573 103.944 65.5145L104.152 64.2408C104.4 62.7285 105 61.2234 105.877 59.956C107.653 57.3884 109.524 55.0288 111.575 53.0631C113.627 51.097 116.042 52.1059 116.085 54.9472C116.128 57.788 115.765 60.7774 115.186 63.8453C114.901 65.3596 114.252 66.8449 113.35 68.0837L112.591 69.1273C111.313 70.8827 110.575 73.1022 110.583 75.1664L110.595 77.9856C110.604 80.2326 109.73 82.6509 108.256 84.4542L107.471 85.4152C105.787 87.4757 104.904 90.3142 105.184 92.7635L105.388 94.5559C105.689 97.1923 104.642 100.258 102.736 102.324C100.764 104.461 99.7188 107.658 100.116 110.338L100.98 116.17L89.8072 111.506Z" fill="#88E39D"/>
<path d="M62.3001 156.057C62.1105 155.595 61.9536 155.11 61.8292 154.603C61.6238 153.768 62.2578 152.96 63.1177 152.96H112.883C113.743 152.96 114.377 153.768 114.171 154.603C114.047 155.11 113.89 155.595 113.7 156.057C112.42 159.18 109.306 161.158 105.932 161.158H70.0687C66.694 161.158 63.58 159.18 62.3001 156.057V156.057Z" fill="#A36D6D"/>
<path d="M112.883 152.96H106.657C107.516 152.96 108.15 153.768 107.945 154.603C107.821 155.11 107.663 155.595 107.474 156.057C106.194 159.18 103.08 161.158 99.7053 161.158H105.931C109.306 161.158 112.42 159.18 113.7 156.057C113.889 155.595 114.046 155.11 114.171 154.603C114.376 153.768 113.743 152.96 112.883 152.96Z" fill="#8A5C5C"/>
<path d="M72.1959 152.96C63.6003 138.701 60.5656 128.14 63.0916 107.248C63.2254 106.141 64.1926 105.307 65.3371 105.307H110.663C111.808 105.307 112.775 106.141 112.909 107.248C115.435 128.14 112.4 138.701 103.805 152.96H72.1959Z" fill="#CB895E"/>
<path d="M110.663 105.307H107.038C109.991 127.499 107.038 138.266 98.1805 152.96H103.805C112.4 138.701 115.435 128.139 112.909 107.247C112.775 106.14 111.808 105.307 110.663 105.307Z" fill="#C17D4F"/>
<path d="M77.9235 105.03C75.9275 106.336 73.6914 107.203 71.3647 107.73C70.9676 107.82 70.5657 107.937 70.1597 108.08C66.4504 109.389 63.6172 113.111 63.0054 117.076C62.8927 117.806 62.673 118.511 62.3619 119.191C61.2726 121.571 59.1278 123.383 56.8084 124.05C54.567 124.694 52.7925 125.792 51.608 127.462C49.7838 130.035 46.9323 131.563 44.3088 131.267L39.3915 130.712C37.5138 130.5 36.6703 128.43 37.6415 126.419L38.4483 124.749C41.306 118.832 45.7228 113.656 51.042 109.988L51.2382 109.853C53.0887 108.577 55.0502 107.586 57.0505 106.807C59.1553 105.987 61.1712 104.699 62.9429 103.026C63.9302 102.094 64.9835 101.276 66.0796 100.581C70.5756 97.7321 76.5603 99.6715 78.5963 104.59L77.9235 105.03Z" fill="#56B476"/>
<path d="M98.0768 105.03C100.073 106.336 102.309 107.203 104.636 107.73C105.033 107.82 105.435 107.937 105.841 108.08C109.55 109.389 112.383 113.111 112.995 117.076C113.108 117.806 113.327 118.511 113.638 119.191C114.728 121.571 116.872 123.383 119.192 124.05C121.433 124.694 123.208 125.792 124.392 127.462C126.216 130.035 129.068 131.563 131.691 131.267L136.609 130.712C138.486 130.5 139.33 128.43 138.359 126.419L137.552 124.749C134.694 118.832 130.277 113.656 124.958 109.988L124.762 109.853C122.912 108.577 120.95 107.586 118.95 106.807C116.845 105.987 114.829 104.699 113.057 103.026C112.07 102.094 111.017 101.276 109.921 100.581C105.425 97.7321 99.44 99.6715 97.4042 104.59L98.0768 105.03Z" fill="#56B476"/>
<path d="M89.2237 106.029C90.6177 108.185 92.3968 110.01 94.3852 111.537C94.7246 111.798 95.0585 112.087 95.3867 112.405C98.385 115.305 99.6827 120.214 98.8093 124.406C98.6485 125.177 98.5973 125.97 98.6409 126.778C98.7933 129.606 100.142 132.328 102.072 133.99C103.938 135.596 105.2 137.451 105.701 139.617C106.472 142.953 108.587 145.699 111.153 146.54L115.964 148.115C117.801 148.717 119.347 147.032 119.171 144.62L119.024 142.618C118.504 135.524 116.254 128.488 112.607 122.557L112.473 122.338C111.204 120.275 109.727 118.446 108.137 116.81C106.463 115.089 105.044 112.942 103.994 110.519C103.409 109.169 102.72 107.904 101.947 106.742C98.7727 101.978 92.4565 101.312 88.754 105.302L89.2237 106.029Z" fill="#5EA570"/>
<path d="M86.7766 106.029C85.3825 108.185 83.6034 110.01 81.6151 111.537C81.2756 111.798 80.9421 112.087 80.6136 112.405C77.6153 115.305 76.3176 120.214 77.1909 124.406C77.3517 125.177 77.403 125.97 77.3594 126.778C77.207 129.606 75.8583 132.328 73.9278 133.99C72.0623 135.597 70.7998 137.451 70.2993 139.617C69.5284 142.953 67.4136 145.699 64.8471 146.54L60.036 148.115C58.1991 148.717 56.6531 147.032 56.8298 144.62L56.9763 142.618C57.4957 135.524 59.7463 128.488 63.3929 122.557L63.5274 122.338C64.7961 120.275 66.2732 118.446 67.8634 116.81C69.5368 115.089 70.956 112.942 72.006 110.519C72.5912 109.169 73.2798 107.904 74.0535 106.742C77.2274 101.978 83.5436 101.312 87.246 105.302L86.7766 106.029Z" fill="#5EA570"/>
</g>
<defs>
<clipPath id="clip0">
<rect width="130.483" height="130.483" fill="white" transform="translate(22.7587 30.6749)"/>
</clipPath>
</defs>
</svg>
