<svg width="176" height="177" viewBox="0 0 176 177" fill="none" xmlns="http://www.w3.org/2000/svg">
<circle cx="88" cy="88.8206" r="88" fill="#EDF5FF"/>
<path d="M114.934 21.7735C115.801 20.8694 117.327 21.3611 117.504 22.6015C118.364 28.6486 117.875 35.1259 115.815 41.5206C113.754 47.9153 110.369 53.4593 106.141 57.8668C105.273 58.7708 103.747 58.2791 103.571 57.0387C102.711 50.9916 103.199 44.5143 105.26 38.1196C107.32 31.725 110.705 26.1808 114.934 21.7735ZM82.6276 72.7387C87.3013 74.7843 92.1226 75.7283 96.6959 75.6806C97.634 75.6707 98.0854 74.6391 97.4563 73.9435C94.3887 70.5513 90.4242 67.6495 85.7507 65.604C81.0773 63.5584 76.2557 62.6144 71.6825 62.6621C70.7444 62.672 70.293 63.7035 70.9221 64.3992C73.9897 67.7913 77.954 70.693 82.6276 72.7387ZM84.2496 61.7299C88.8298 65.1307 93.8421 67.3749 98.8286 68.4815C99.8514 68.7084 100.597 67.705 100.083 66.7916C97.5818 62.3384 93.9836 58.1896 89.4033 54.7887C84.8231 51.3879 79.8108 49.1437 74.8243 48.0371C73.8015 47.8102 73.0563 48.8137 73.5695 49.7271C76.0713 54.1802 79.6693 58.3291 84.2496 61.7299ZM92.3717 51.4281C94.297 56.2992 97.2099 60.4419 100.722 63.6578C101.442 64.3174 102.604 63.8579 102.679 62.8842C103.044 58.1362 102.337 53.1216 100.412 48.2504C98.4865 43.3792 95.5736 39.2365 92.0618 36.0207C91.3416 35.361 90.1791 35.8205 90.1043 36.7943C89.7399 41.5421 90.4464 46.5569 92.3717 51.4281ZM79.8215 82.4011C84.5585 83.8026 89.2921 84.1702 93.6579 83.6473C94.5534 83.54 94.8494 82.5392 94.1564 81.962C90.7779 79.1478 86.6062 76.8808 81.8692 75.4794C77.1322 74.0779 72.3986 73.7103 68.0329 74.2332C67.1373 74.3405 66.8413 75.3413 67.5344 75.9185C70.913 78.7326 75.0845 80.9997 79.8215 82.4011ZM79.5405 90.9623C83.3067 91.5408 86.9631 91.3263 90.2465 90.4664C90.9201 90.2901 91.0428 89.4905 90.4534 89.1203C87.5795 87.3145 84.1561 86.0122 80.3901 85.4334C76.624 84.8547 72.9674 85.0695 69.6841 85.9294C69.0105 86.1057 68.8878 86.9052 69.4772 87.2755C72.3509 89.0815 75.7744 90.3839 79.5405 90.9623ZM81.1884 99.6641C84.2102 98.3738 86.7947 96.5616 88.8153 94.4539C89.2297 94.0215 88.9602 93.39 88.3612 93.3902C85.4413 93.3918 82.3451 94.0052 79.3233 95.2955C76.3015 96.5858 73.717 98.398 71.6964 100.506C71.282 100.938 71.5515 101.57 72.1505 101.569C75.0702 101.568 78.1665 100.954 81.1884 99.6641ZM124.85 86.023C125.779 85.9649 126.18 84.9126 125.525 84.251C122.33 81.0253 118.269 78.3353 113.544 76.5358C108.818 74.7361 103.996 74.0434 99.4653 74.3268C98.5359 74.385 98.1352 75.4372 98.7904 76.0988C101.985 79.3245 106.046 82.0146 110.772 83.8141C115.497 85.6137 120.319 86.3065 124.85 86.023ZM133.236 73.6983C134.244 73.4066 134.416 72.1685 133.525 71.6133C129.179 68.9068 124.016 66.9933 118.349 66.2076C112.683 65.4218 107.194 65.8581 102.275 67.2803C101.266 67.572 101.095 68.8102 101.986 69.3653C106.332 72.0718 111.495 73.9853 117.162 74.7711C122.828 75.5566 128.317 75.1203 133.236 73.6983ZM130.392 53.2546C131.021 52.5076 130.514 51.3651 129.538 51.331C124.779 51.1643 119.798 52.0784 115.011 54.2043C110.224 56.3301 106.206 59.4126 103.139 63.0551C102.51 63.8022 103.017 64.9446 103.993 64.9789C108.752 65.1456 113.733 64.2315 118.52 62.1056C123.307 59.9795 127.325 56.8973 130.392 53.2546ZM119.2 96.6184C120.085 96.6848 120.575 95.7633 120.025 95.0668C117.345 91.6706 113.789 88.6576 109.511 86.3823C105.233 84.1069 100.747 82.8427 96.4327 82.5192C95.5479 82.4528 95.0579 83.3742 95.6075 84.0708C98.2875 87.467 101.844 90.48 106.121 92.7553C110.399 95.0305 114.886 96.2947 119.2 96.6184ZM109.843 103.353C110.525 103.503 110.998 102.846 110.639 102.248C108.892 99.3282 106.426 96.6069 103.325 94.3741C100.224 92.1416 96.8611 90.6657 93.5384 89.9351C92.8569 89.7853 92.3844 90.4416 92.7427 91.0404C94.4896 93.9597 96.9559 96.6811 100.057 98.9138C103.158 101.146 106.521 102.622 109.843 103.353ZM97.9138 111.66C98.3505 112.103 98.9854 111.842 98.9831 111.22C98.9721 108.187 98.3446 104.953 97.036 101.776C95.7274 98.5999 93.8947 95.8623 91.7662 93.7019C91.3296 93.2588 90.6947 93.5204 90.6969 94.1425C90.708 97.1753 91.3354 100.409 92.644 103.586C93.9527 106.762 95.7854 109.5 97.9138 111.66Z" fill="#75CF1B"/>
<path d="M87.0468 70.1897C86.2706 72.2617 83.9154 73.2568 81.8867 72.3737C81.4262 72.1734 81.0656 72.0111 80.9087 71.9322C76.9768 69.9599 73.6059 67.3673 70.9218 64.399C70.3223 63.736 70.7891 62.6714 71.6828 62.662C75.744 62.6197 80.001 63.3593 84.1761 64.9581C84.3143 65.011 84.6077 65.1358 84.9801 65.2987C86.8583 66.121 87.766 68.2698 87.0468 70.1897V70.1897ZM83.3902 79.9508C84.1177 78.0088 83.0502 75.8546 81.0633 75.2615C80.8465 75.1968 80.6845 75.1501 80.6052 75.1297C76.2937 74.0198 72.0118 73.757 68.035 74.233C67.2034 74.3327 66.8906 75.3822 67.5343 75.9184C70.472 78.3653 74.0093 80.3987 77.9966 81.809C78.174 81.8718 78.5478 81.9885 79.0074 82.1266C80.8124 82.6684 82.7289 81.7158 83.3902 79.9508V79.9508ZM77.7989 85.1632C77.6493 85.1509 77.515 85.1418 77.402 85.1368C74.6935 85.0152 72.0819 85.3 69.6718 85.9326C69.046 86.0969 68.9292 86.9312 69.4769 87.2754C71.3564 88.4565 73.4711 89.4221 75.7629 90.1108C76.1521 90.2278 76.5464 90.3366 76.9454 90.4375C78.259 90.7689 79.61 90.0417 80.0852 88.773C80.7083 87.1097 79.5693 85.3075 77.7989 85.1632ZM96.7892 50.2116C96.9949 50.0737 97.2047 49.9425 97.4186 49.8182C99.1113 48.8353 99.7812 46.7343 98.9092 44.9819C98.8076 44.7776 98.7115 44.5912 98.6247 44.4322C96.8517 41.1853 94.6112 38.3531 92.0533 36.0125C91.3339 35.3543 90.1789 35.8219 90.1042 36.794C89.8219 40.473 90.1825 44.3123 91.2549 48.1209C91.2579 48.132 91.2612 48.1432 91.2645 48.1548C91.9468 50.5198 94.7459 51.5832 96.7892 50.2116V50.2116ZM84.2496 61.73C84.2792 61.752 84.3089 61.7739 84.3387 61.7959C86.6388 63.494 89.9288 62.4958 90.9319 59.8185C91.603 58.0268 91.0235 55.9979 89.4902 54.8534C89.4613 54.8318 89.4322 54.8101 89.4033 54.7886C84.823 51.3878 79.8106 49.1437 74.824 48.0369C73.8552 47.8219 73.0834 48.8617 73.5694 49.7268C76.0713 54.1801 79.6693 58.3291 84.2496 61.73V61.73ZM73.4181 98.8973C72.806 99.41 72.2313 99.9476 71.6959 100.506C71.3148 100.903 71.5994 101.57 72.15 101.569C72.9238 101.569 73.7098 101.525 74.5034 101.438C75.041 101.379 75.4983 101.017 75.6881 100.511C76.2062 99.1283 74.5503 97.949 73.4181 98.8973V98.8973ZM114.925 21.7822C110.701 26.1883 107.319 31.7291 105.26 38.1195C104.663 39.9725 104.198 41.8322 103.859 43.6866C103.419 46.0985 104.723 48.4958 106.999 49.4078C107.032 49.4211 107.065 49.4345 107.098 49.4478C109.62 50.4671 112.511 49.3592 113.68 46.9032C114.496 45.1865 115.212 43.3897 115.814 41.5204C117.875 35.1257 118.364 28.6484 117.503 22.6012C117.327 21.3617 115.792 20.8785 114.925 21.7822V21.7822ZM96.6411 109.32C96.4896 109.724 96.5721 110.179 96.8535 110.507C97.1976 110.908 97.5515 111.292 97.9139 111.66C98.3044 112.057 98.9852 111.776 98.9832 111.22C98.9814 110.704 98.9617 110.182 98.9238 109.655C98.8326 108.389 97.0867 108.131 96.6411 109.32ZM118.349 66.2076C117.625 66.1073 116.904 66.0269 116.186 65.9658C114.287 65.8044 112.516 66.9417 111.848 68.7266C110.926 71.1879 112.419 73.9129 115 74.4124C115.712 74.5502 116.433 74.67 117.162 74.771C122.828 75.5568 128.318 75.1204 133.236 73.6982C134.19 73.4224 134.368 72.1384 133.525 71.6134C129.179 68.9069 124.016 66.9933 118.349 66.2076V66.2076ZM129.538 51.331C126.258 51.2159 122.873 51.6145 119.518 52.5694C118.857 52.7576 117.713 53.1852 116.593 53.6282C114.941 54.2813 113.912 55.9268 114.024 57.699C114.026 57.7378 114.029 57.7766 114.031 57.8156C114.194 60.6973 117.171 62.538 119.797 61.3385C121.087 60.7491 122.19 60.2087 122.666 59.9134C125.661 58.0544 128.257 55.7904 130.392 53.255C131.019 52.511 130.51 51.3651 129.538 51.331V51.331ZM113.544 76.5356C113.403 76.482 113.262 76.4296 113.121 76.3779C111.109 75.6402 108.878 76.6548 108.126 78.6619C107.379 80.654 108.374 82.8691 110.352 83.6511C110.491 83.7061 110.631 83.7605 110.772 83.8139C115.497 85.6135 120.319 86.3064 124.85 86.0228C125.744 85.967 126.155 84.8877 125.525 84.2511C122.33 81.0256 118.269 78.3352 113.544 76.5356V76.5356ZM109.511 86.3823C109.495 86.3735 109.478 86.3648 109.462 86.356C107.592 85.3657 105.277 86.267 104.535 88.2478L104.476 88.4064C103.859 90.0524 104.543 91.9138 106.094 92.7406C106.103 92.7456 106.112 92.7505 106.121 92.7554C110.4 95.0306 114.886 96.295 119.2 96.6185C120.035 96.6811 120.544 95.7242 120.025 95.067C117.345 91.6707 113.789 88.6575 109.511 86.3823V86.3823ZM106.002 96.563C105.847 96.4188 105.636 96.2376 105.393 96.0372C103.981 94.8705 101.839 95.4451 101.196 97.1604C100.737 98.3868 101.24 99.7576 102.373 100.415C102.827 100.679 103.285 100.927 103.746 101.161C105.747 102.174 107.802 102.904 109.843 103.353C110.474 103.491 110.971 102.802 110.639 102.248C109.429 100.226 107.874 98.2986 106.002 96.563Z" fill="#83E646"/>
<path d="M106.32 56.9357C99.7062 76.3855 91.9146 94.5959 83.3487 110.622C82.3911 110.483 81.4392 110.315 80.4941 110.118C89.1563 94.0346 97.0352 75.6859 103.71 56.057C103.918 55.4448 104.527 55.0638 105.169 55.143C105.178 55.1443 105.187 55.1453 105.197 55.1464C106.053 55.2515 106.598 56.1187 106.32 56.9357V56.9357Z" fill="#61C027"/>
<path d="M62.3001 156.548C62.1105 156.085 61.9536 155.6 61.8292 155.094C61.6238 154.259 62.2578 153.451 63.1177 153.451H112.883C113.743 153.451 114.377 154.259 114.171 155.094C114.047 155.6 113.89 156.085 113.7 156.548C112.42 159.67 109.306 161.648 105.932 161.648H70.0687C66.694 161.648 63.58 159.67 62.3001 156.548V156.548Z" fill="#A36D6D"/>
<path d="M112.883 153.451H106.657C107.516 153.451 108.15 154.259 107.945 155.094C107.821 155.6 107.663 156.085 107.474 156.548C106.194 159.67 103.08 161.648 99.7053 161.648H105.931C109.306 161.648 112.42 159.67 113.7 156.548C113.889 156.085 114.046 155.6 114.171 155.094C114.376 154.259 113.743 153.451 112.883 153.451Z" fill="#8A5C5C"/>
<path d="M72.1958 153.451C63.6003 139.192 60.5655 128.63 63.0916 107.738C63.2254 106.631 64.1926 105.798 65.3371 105.798H110.663C111.808 105.798 112.775 106.631 112.909 107.738C115.435 128.63 112.4 139.192 103.805 153.451H72.1958Z" fill="#CB895E"/>
<path d="M98.284 112.8C98.7206 113.243 99.3556 112.982 99.3533 112.36C99.3423 109.327 98.7148 106.093 97.4062 102.916C96.0976 99.7399 94.2649 97.0023 92.1364 94.8419C91.6998 94.3988 91.0648 94.6604 91.0671 95.2824C91.0781 98.3152 91.7056 101.549 93.0142 104.726C94.3229 107.902 96.1556 110.64 98.284 112.8Z" fill="#75CF1B"/>
<path d="M97.0909 110.469C96.9393 110.873 97.0219 111.328 97.3033 111.656C97.6474 112.057 98.0012 112.441 98.3636 112.809C98.7542 113.206 99.4349 112.925 99.433 112.369C99.4312 111.853 99.4114 111.331 99.3736 110.804C99.2824 109.538 97.5364 109.28 97.0909 110.469Z" fill="#83E646"/>
<path d="M110.663 105.797H107.038C109.991 127.989 107.038 138.757 98.1805 153.451H103.804C112.4 139.191 115.435 128.63 112.909 107.738C112.775 106.631 111.807 105.797 110.663 105.797Z" fill="#C17D4F"/>
</svg>
