<svg width="176" height="176" viewBox="0 0 176 176" fill="none" xmlns="http://www.w3.org/2000/svg">
<circle cx="88" cy="88" r="88" fill="#EDF5FF"/>
<path d="M106.983 85.4917C106.891 85.5628 106.781 85.6062 106.665 85.6169C106.55 85.6276 106.434 85.6051 106.33 85.552L104.595 84.657C104.504 84.6105 104.403 84.5875 104.301 84.59C104.2 84.5926 104.1 84.6207 104.012 84.6717C103.924 84.7227 103.85 84.795 103.797 84.882C103.744 84.969 103.714 85.0679 103.709 85.1697L103.532 89.0073C103.528 89.1024 103.501 89.1952 103.456 89.2786C99.4184 96.5434 94.0203 96.037 91.4929 95.2862C90.6568 95.0376 89.9205 94.5313 89.3891 93.8396C89.3181 93.746 89.2492 93.6487 89.1842 93.5478C89.1456 93.4858 89.1053 93.4218 89.0688 93.3562C87.8303 91.1852 86.3439 86.4276 90.3669 78.9814C91.3512 77.1651 92.4894 75.4364 93.7692 73.8146C93.9852 73.5384 94.2046 73.2699 94.4219 73.007C98.804 67.7384 103.607 64.8535 105.164 64.0009C105.231 63.9642 105.305 63.9411 105.381 63.933C105.458 63.9249 105.535 63.9319 105.609 63.9537C105.682 63.9754 105.751 64.0115 105.811 64.0598C105.87 64.1081 105.92 64.1676 105.957 64.2351L106.835 65.8455C106.884 65.9359 106.955 66.0119 107.043 66.0656C107.13 66.1194 107.231 66.1491 107.333 66.1517C107.436 66.1544 107.537 66.1298 107.628 66.0806C107.718 66.0314 107.793 65.9592 107.847 65.8714L109.875 62.5406C109.972 62.3794 110.108 62.2446 110.269 62.1484C113.197 60.3933 116.65 59.7264 120.02 60.2651C120.65 60.3653 121.225 60.6808 121.648 61.1579C122.071 61.635 122.316 62.244 122.34 62.8811C122.639 72.8605 109.201 83.7603 106.983 85.4917V85.4917Z" fill="#568C1F"/>
<path d="M110.948 68.257C106.168 71.5159 100.111 76.3864 94.9996 82.8216L95.3095 82.7178C95.6384 82.6068 95.9827 82.8561 95.9199 83.1582C95.1057 87.2123 92.9419 90.871 89.7815 93.5376C89.6561 93.6451 89.5252 93.7459 89.3892 93.8396C89.3182 93.7459 89.2493 93.6486 89.1843 93.5478C89.1457 93.4858 89.1054 93.4218 89.0689 93.3561C88.9619 93.1684 88.8531 92.9601 88.7461 92.7338C88.4392 93.376 88.1423 94.0263 87.863 94.6885L89.4524 100.07C94.5643 86.0286 104.68 75.3496 111.693 69.2205C111.809 69.118 111.882 68.9752 111.897 68.8209C111.911 68.6666 111.867 68.5124 111.772 68.3898C111.677 68.2671 111.539 68.1851 111.386 68.1605C111.233 68.1358 111.077 68.1704 110.948 68.257V68.257Z" fill="#99DD43"/>
<path d="M93.5391 83.3103C93.1681 83.4363 92.8009 83.1125 92.9511 82.7938C93.7606 81.0747 95.3994 77.1274 94.8558 74.339C94.8134 74.1362 94.7565 73.9366 94.6856 73.742C94.6241 73.5641 94.5357 73.3172 94.422 73.007C94.2047 73.2699 93.9853 73.5384 93.7693 73.8146C92.4895 75.4364 91.3513 77.1651 90.367 78.9815C86.6918 85.784 87.6148 90.3413 88.7461 92.7338C90.4515 89.2051 92.5495 85.88 95.0004 82.8217L93.5391 83.3103Z" fill="#486814"/>
<path d="M89.1843 93.5477C89.2493 93.6486 89.3182 93.7459 89.3892 93.8395C89.5251 93.7458 89.6561 93.645 89.7815 93.5376C92.9419 90.871 95.1057 87.2123 95.9199 83.1581C95.9827 82.8561 95.6384 82.6068 95.3095 82.7178L94.9996 82.8216C92.5488 85.8797 90.4509 89.2046 88.7455 92.7332C88.8526 92.9595 88.9614 93.1678 89.0683 93.3555C89.1054 93.4217 89.1457 93.4857 89.1843 93.5477V93.5477Z" fill="#4DC13A"/>
<path d="M89.5953 93.0248C91.2224 91.4287 93.3319 88.6186 94.1126 84.3084C94.1231 84.2508 94.118 84.1915 94.0979 84.1365C94.0777 84.0815 94.0433 84.0329 93.9982 83.9957C93.953 83.9584 93.8988 83.9339 93.841 83.9246C93.7832 83.9153 93.724 83.9216 93.6694 83.9428L92.3785 84.448C92.3187 84.4716 92.2533 84.477 92.1905 84.4637C92.1276 84.4503 92.07 84.4188 92.025 84.373C91.9799 84.3273 91.9492 84.2692 91.9368 84.2062C91.9245 84.1431 91.9309 84.0778 91.9554 84.0184C92.5527 82.5751 93.7639 79.2621 93.383 76.9341C93.3534 76.7657 93.3133 76.5993 93.263 76.4359C92.6507 74.3544 88.262 60.6344 77.3246 54.6341C76.8544 54.3738 76.3339 54.2172 75.7981 54.1748C75.2624 54.1324 74.7237 54.2051 74.2184 54.388C73.713 54.571 73.2527 54.86 72.8682 55.2356C72.4838 55.6112 72.1842 56.0647 71.9896 56.5656C70.7582 59.7433 69.3373 64.5112 69.8526 68.6336C69.864 68.7229 69.8975 68.808 69.95 68.8811L73.2458 73.5047C73.2908 73.5672 73.3174 73.641 73.3227 73.7178C73.328 73.7946 73.3118 73.8714 73.2758 73.9394C73.2399 74.0075 73.1857 74.0642 73.1193 74.1032C73.0529 74.1421 72.9769 74.1618 72.9 74.1599L70.8182 74.1184C70.7584 74.1173 70.699 74.1291 70.6442 74.153C70.5893 74.1769 70.5403 74.2124 70.5005 74.2571C70.4607 74.3018 70.431 74.3545 70.4135 74.4117C70.3959 74.4689 70.391 74.5293 70.399 74.5886C70.6432 76.4222 71.7189 83.1263 74.8941 87.8137C74.8941 87.8137 77.2568 91.5151 85.2709 94.0545C86.0173 94.2915 86.8141 94.3209 87.5759 94.1395C88.3378 93.9581 89.0358 93.5728 89.5953 93.0248V93.0248Z" fill="#568C1F"/>
<path d="M84.9902 74.2878C85.3013 72.7825 85.758 71.311 86.3538 69.8941C86.3842 69.8205 86.3866 69.7384 86.3605 69.6632C86.3345 69.588 86.2819 69.5249 86.2125 69.4858C86.1432 69.4467 86.0619 69.4344 85.9841 69.4511C85.9063 69.4678 85.8373 69.5124 85.7901 69.5765C84.8393 70.8852 84.0452 72.3009 83.4243 73.7946C82.1375 70.6184 80.807 67.6781 79.5602 65.093C79.5016 64.9776 79.4012 64.8888 79.2794 64.845C79.1577 64.8011 79.0238 64.8054 78.9051 64.857C78.7864 64.9085 78.6918 65.0035 78.6408 65.1224C78.5897 65.2414 78.5861 65.3753 78.6305 65.4969C88.6457 91.5529 88.158 112.442 88.158 112.442L89.8135 111.397C91.7319 101.149 89.0348 89.1526 85.3338 78.8007C84.8137 77.355 84.695 75.7955 84.9902 74.2878V74.2878Z" fill="#99DD43"/>
<path d="M81.5176 100.001C81.5176 100.001 71.8967 93.6508 65.5504 84.2458C64.8069 83.1403 63.7889 82.2471 62.5961 81.6537C60.9765 80.8516 58.4199 80.0641 54.5905 80.0263C54.5121 80.0254 54.4354 80.0493 54.3713 80.0944C54.3071 80.1395 54.2588 80.2037 54.2332 80.2778C54.2076 80.3519 54.2059 80.4322 54.2284 80.5074C54.251 80.5825 54.2966 80.6486 54.3588 80.6963C56.1285 82.0409 59.9582 85.2273 60.8637 88.2361C62.0238 92.092 63.4458 96.2337 65.9746 98.3519C66.0928 98.449 66.2423 98.4996 66.3952 98.4944L68.7472 98.4314C68.8475 98.4287 68.9471 98.4498 69.0378 98.4931C69.1284 98.5363 69.2075 98.6004 69.2687 98.6801C69.3298 98.7597 69.3711 98.8528 69.3894 98.9515C69.4076 99.0503 69.4023 99.1519 69.3737 99.2482L68.6753 101.599C68.6301 101.751 68.6428 101.913 68.7111 102.056C68.7793 102.198 68.8981 102.31 69.0443 102.369C71.1193 103.208 78.7099 105.791 81.5176 100.001V100.001Z" fill="#568C1F"/>
<path d="M120.628 89.3576C119.088 90.3192 115.834 92.5476 114.612 94.9161C114.547 95.0382 114.448 95.1388 114.327 95.2058C114.206 95.2728 114.068 95.3033 113.93 95.2936L112.871 95.226C112.741 95.2178 112.612 95.2449 112.496 95.3043C112.38 95.3637 112.282 95.4533 112.213 95.5636C112.144 95.6739 112.106 95.8008 112.103 95.931C112.1 96.0611 112.132 96.1897 112.196 96.3031L113.036 97.7912C113.093 97.8922 113.125 98.0056 113.129 98.1216C113.133 98.2376 113.109 98.3529 113.059 98.4577C112.024 100.612 110.792 102.567 109.192 103.674C109.083 103.749 108.95 103.781 108.819 103.764L106.793 103.522C106.707 103.512 106.619 103.522 106.537 103.552C106.456 103.582 106.382 103.631 106.323 103.695C106.264 103.759 106.221 103.836 106.197 103.92C106.173 104.004 106.17 104.092 106.187 104.178L106.603 106.264C106.63 106.398 106.605 106.537 106.535 106.654C106.464 106.771 106.353 106.858 106.222 106.898C104.365 107.458 97.6053 109.082 95.6415 103.86C95.6415 103.86 104.454 99.1433 110.683 91.5296C111.413 90.6343 112.364 89.9443 113.441 89.5276C114.903 88.9624 117.172 88.4871 120.482 88.7599C120.55 88.7651 120.615 88.7916 120.667 88.8358C120.719 88.8799 120.756 88.9394 120.772 89.0058C120.788 89.0721 120.783 89.1419 120.757 89.2051C120.731 89.2683 120.686 89.3216 120.628 89.3576V89.3576Z" fill="#568C1F"/>
<path d="M81.5175 100.001L88.1724 104.187L87.7919 106.948L79.5654 100.785L81.5175 100.001Z" fill="#568C1F"/>
<path d="M89.6059 109.855C90.9522 107.754 95.6404 103.862 95.6404 103.862L98.2835 104.75C98.2835 104.75 91.6492 109.884 90.2939 114.965L89.6059 109.855Z" fill="#568C1F"/>
<path d="M93.5586 122.42L81.8634 121.882L84.0928 110.504C85.6645 108.385 85.9808 104.739 86.005 100.739L87.2231 94.521C87.649 92.3457 90.5117 92.4775 90.7358 94.6828L92.0243 107.337C91.7095 108.529 92.7409 115.437 93.3823 120.69L93.5586 122.42Z" fill="#99DD43"/>
<path d="M93.3822 120.69L84.0927 110.504L86.005 100.739L92.0242 107.338L93.3822 120.69Z" fill="#568C1F"/>
<path d="M67.8186 154.435H61.9897C61.0138 154.435 60.2228 153.574 60.2228 152.513V149.131H69.5856V152.513C69.5856 153.574 68.7945 154.435 67.8186 154.435Z" fill="#FC6E6E"/>
<path opacity="0.2" d="M67.8186 154.435H61.9897C61.0138 154.435 60.2228 153.574 60.2228 152.513V149.131H69.5856V152.513C69.5856 153.574 68.7945 154.435 67.8186 154.435Z" fill="black"/>
<path d="M114.01 154.435H108.181C107.205 154.435 106.414 153.574 106.414 152.513V149.131H115.777V152.513C115.777 153.574 114.986 154.435 114.01 154.435Z" fill="#FC6E6E"/>
<path opacity="0.2" d="M114.01 154.435H108.181C107.205 154.435 106.414 153.574 106.414 152.513V149.131H115.777V152.513C115.777 153.574 114.986 154.435 114.01 154.435Z" fill="black"/>
<path d="M115.777 149.131H60.2227C57.5798 149.131 55.2021 147.385 54.215 144.719L48.7928 130.073H127.207L121.785 144.719C120.798 147.385 118.42 149.131 115.777 149.131Z" fill="#FC6E6E"/>
<path opacity="0.1" d="M127.207 130.073H48.7927L54.2149 144.719C55.2022 147.385 57.5797 149.131 60.2226 149.131H71.5142C68.8713 149.131 66.4936 147.385 65.5065 144.719L61.9641 135.151H125.327L127.207 130.073Z" fill="black"/>
<path d="M130.859 130.074H45.1408C43.454 130.074 42.0867 128.587 42.0867 126.752V124.498C42.0867 122.663 43.4542 121.176 45.1408 121.176H130.859C132.546 121.176 133.913 122.663 133.913 124.498V126.752C133.913 128.587 132.546 130.074 130.859 130.074Z" fill="#FC6E6E"/>
<path opacity="0.2" d="M54.0327 126.751V124.497C54.0327 122.662 55.4002 121.175 57.0869 121.175H45.1408C43.454 121.175 42.0867 122.662 42.0867 124.497V126.751C42.0867 128.586 43.4542 130.073 45.1408 130.073H57.0871C55.4002 130.073 54.0327 128.586 54.0327 126.751Z" fill="black"/>
<path d="M67.8496 90.3276L35.2246 56.3361L54.7246 45.0778L67.8496 90.3276Z" fill="#EDF5FF"/>
<path d="M85.8497 74.361L83.5794 27.3008L105.678 31.6214L85.8497 74.361Z" fill="#EDF5FF"/>
<path d="M105.778 80.8548L146.165 58.4013L150.818 70.5295L105.778 80.8548Z" fill="#EDF5FF"/>
</svg>
