<svg width="176" height="176" viewBox="0 0 176 176" fill="none" xmlns="http://www.w3.org/2000/svg">
<circle cx="88" cy="88" r="88" fill="#EDF5FF"/>
<path d="M103.219 113.506C109.297 111.393 113.22 106.793 111.981 103.231C110.743 99.6699 104.813 98.4955 98.7353 100.608C92.6578 102.721 88.7347 107.321 89.9728 110.883C91.2109 114.444 97.1414 115.618 103.219 113.506Z" fill="#43DD5C"/>
<path d="M87.9196 110.485C89.7025 107.162 86.5518 102.003 80.8823 98.96C75.2128 95.9175 69.1714 96.1443 67.3884 99.4667C65.6055 102.789 68.7562 107.949 74.4257 110.991C80.0953 114.034 86.1367 113.807 87.9196 110.485Z" fill="#1F8C31"/>
<path d="M108.119 83.4852C107.046 80.9293 102.48 80.4098 97.92 82.3249C93.3604 84.2399 90.0104 88.4281 91.0839 90.9838C92.1574 93.5395 97.2471 93.4951 101.807 91.5801C106.367 89.665 109.193 86.0412 108.119 83.4852Z" fill="#1F8C31"/>
<path d="M89.5234 91.3523C91.4218 88.4588 89.0218 83.529 84.163 80.3412C79.3042 77.1534 73.8264 76.9148 71.9281 79.8083C70.0298 82.7018 72.4297 87.6316 77.2885 90.8193C82.1473 94.0071 87.6251 94.2457 89.5234 91.3523Z" fill="#43DD5C"/>
<path d="M98.0611 106.602C95.4029 106.636 91.7081 108.053 89.9414 110.077C89.9414 110.077 91.1337 95.0817 91.1526 94.9687C91.1804 94.737 91.2278 94.5083 91.275 94.2782C91.605 92.8687 92.2989 91.5704 93.2874 90.5128C94.7033 89.0748 96.4951 87.9644 98.3327 87.1402C98.3711 87.1249 98.4026 87.096 98.4213 87.0591C98.44 87.0222 98.4446 86.9797 98.4341 86.9396C98.4017 86.4678 95.5872 87.8212 95.2588 87.9693C93.8676 88.6307 92.5163 89.4428 91.482 90.6121L92.614 76.3094C92.635 76.0439 92.5496 75.7808 92.3767 75.5782C92.2038 75.3756 91.9575 75.2499 91.6919 75.2289C91.4263 75.2079 91.1633 75.2932 90.9607 75.4661C90.758 75.6391 90.6324 75.8854 90.6113 76.151L89.5071 90.1038C89.2013 89.8083 88.8661 89.5448 88.5069 89.3173C87.1126 88.3674 85.7025 87.4456 84.2552 86.5769C83.2903 85.999 82.3099 85.4419 81.2855 84.9593C81.2321 84.9344 81.1712 84.9308 81.1154 84.9494C81.0595 84.968 81.0128 85.0073 80.985 85.0592C80.9572 85.1111 80.9504 85.1718 80.9659 85.2286C80.9814 85.2854 81.0181 85.3341 81.0685 85.3647C83.4044 86.8467 85.5349 88.6505 87.6352 90.4482C88.131 90.8344 88.5318 91.3291 88.8068 91.8942C89.0818 92.4593 89.2237 93.08 89.2217 93.7084C89.2217 93.7084 89.1792 94.1974 89.178 94.2371C89.1872 94.2689 87.9575 109.601 87.9616 109.63C87.3115 108.762 86.4295 108.133 85.5435 107.532C84.5232 106.82 83.4308 106.217 82.2845 105.734C81.9655 105.626 80.3334 104.956 80.2626 105.359C80.2556 105.384 80.2537 105.411 80.257 105.436C80.2604 105.462 80.2689 105.487 80.282 105.51C80.2951 105.533 80.3126 105.552 80.3334 105.568C80.3543 105.584 80.378 105.595 80.4033 105.602C82.3966 106.182 84.0779 107.551 85.6086 108.918C86.6675 109.81 87.3833 111.043 87.6335 112.405C87.6648 112.584 87.6867 112.763 87.6993 112.944L87.059 121.034C86.9859 122.35 88.9223 122.517 89.0617 121.193C89.0836 121.098 89.6101 113.751 89.6838 113.95C89.8788 113.039 90.2317 112.168 90.7265 111.378C91.6633 109.82 93.2181 108.785 94.8363 108.023C95.8597 107.531 96.9393 107.109 98.0734 106.992C98.1221 106.986 98.1668 106.963 98.1987 106.925C98.2307 106.888 98.2475 106.841 98.246 106.792C98.2444 106.743 98.2246 106.696 98.1903 106.661C98.1561 106.626 98.11 106.605 98.0611 106.602V106.602Z" fill="#38AD44"/>
<path d="M96.6382 75.9489C98.7203 74.5712 99.7822 72.5083 99.01 71.3413C98.2378 70.1742 95.924 70.3449 93.8418 71.7225C91.7597 73.1002 90.6978 75.1631 91.47 76.3302C92.2421 77.4972 94.556 77.3265 96.6382 75.9489Z" fill="#43DD5C"/>
<path d="M91.7919 76.4745C93.0714 75.505 92.7065 72.8685 90.9768 70.5858C89.2472 68.303 86.8077 67.2384 85.5282 68.2079C84.2487 69.1774 84.6136 71.8139 86.3433 74.0966C88.0729 76.3794 90.5123 77.444 91.7919 76.4745Z" fill="#1F8C31"/>
<path d="M67.8186 154.435H61.9897C61.0138 154.435 60.2228 153.575 60.2228 152.513V149.131H69.5856V152.513C69.5856 153.575 68.7945 154.435 67.8186 154.435Z" fill="#FC6E6E"/>
<path opacity="0.2" d="M67.8186 154.435H61.9897C61.0138 154.435 60.2228 153.575 60.2228 152.513V149.131H69.5856V152.513C69.5856 153.575 68.7945 154.435 67.8186 154.435Z" fill="black"/>
<path d="M114.01 154.435H108.181C107.205 154.435 106.414 153.575 106.414 152.513V149.131H115.777V152.513C115.777 153.575 114.986 154.435 114.01 154.435Z" fill="#FC6E6E"/>
<path opacity="0.2" d="M114.01 154.435H108.181C107.205 154.435 106.414 153.575 106.414 152.513V149.131H115.777V152.513C115.777 153.575 114.986 154.435 114.01 154.435Z" fill="black"/>
<path d="M115.777 149.132H60.2227C57.5798 149.132 55.2021 147.385 54.215 144.719L48.7928 130.073H127.207L121.785 144.719C120.798 147.385 118.42 149.132 115.777 149.132Z" fill="#FC6E6E"/>
<path opacity="0.1" d="M127.207 130.073H48.7927L54.2149 144.719C55.2022 147.385 57.5797 149.132 60.2226 149.132H71.5142C68.8713 149.132 66.4936 147.385 65.5065 144.719L61.9641 135.151H125.327L127.207 130.073Z" fill="black"/>
<path d="M130.859 130.074H45.1408C43.454 130.074 42.0867 128.587 42.0867 126.753V124.498C42.0867 122.663 43.4542 121.176 45.1408 121.176H130.859C132.546 121.176 133.913 122.664 133.913 124.498V126.753C133.913 128.587 132.546 130.074 130.859 130.074Z" fill="#FC6E6E"/>
<path opacity="0.2" d="M54.0327 126.752V124.497C54.0327 122.662 55.4002 121.175 57.0869 121.175H45.1408C43.454 121.175 42.0867 122.663 42.0867 124.497V126.752C42.0867 128.586 43.4542 130.073 45.1408 130.073H57.0871C55.4002 130.074 54.0327 128.586 54.0327 126.752Z" fill="black"/>
</svg>
