<svg width="176" height="176" viewBox="0 0 176 176" fill="none" xmlns="http://www.w3.org/2000/svg">
<circle cx="88" cy="88" r="88" fill="#EDF5FF"/>
<path d="M64.5908 90.4064C63.4721 91.2669 62.319 92.093 61.1315 92.8675C60.3915 93.3494 59.6858 94.0034 58.9286 94.5541C58.0271 95.22 56.9343 95.5762 55.8135 95.5695H55.3488C54.3547 95.5704 53.3806 95.2905 52.5385 94.7621C51.6964 94.2337 51.0207 93.4782 50.5891 92.5827C50.1575 91.6871 49.9876 90.6879 50.0989 89.7C50.2103 88.7122 50.5983 87.7758 51.2184 86.9988C51.3734 86.8104 51.5116 86.6089 51.6314 86.3964C51.7711 86.2064 51.8492 85.9782 51.8551 85.7424C51.8301 85.502 51.7342 85.2744 51.5798 85.0884C51.4421 84.8819 51.3044 84.6582 51.1667 84.4172C50.4241 83.1307 50.0435 81.6671 50.0653 80.1818V78.7361C50.048 77.0391 50.5461 75.3768 51.4937 73.9689C54.0821 70.5157 57.7449 68.0208 61.906 66.8765C64.2445 66.4501 66.6201 66.2609 68.9966 66.312L69.3408 66.0538C69.6506 66.4669 69.9776 66.8627 70.2874 67.2413C71.9452 69.1832 73.9245 70.8255 76.1389 72.0964C76.4073 72.2217 76.6256 72.434 76.7585 72.6987C76.8132 72.9531 76.8249 73.2149 76.7929 73.4732C76.7942 73.9814 76.9303 74.4801 77.1873 74.9185C77.4443 75.3569 77.813 75.7193 78.2558 75.9687C79.0642 76.5427 80.063 76.7825 81.0439 76.6382C80.8356 77.2676 80.4985 77.8467 80.054 78.3385C79.6095 78.8304 79.0674 79.2243 78.4623 79.4951C77.0619 80.3158 75.5866 81.0015 74.0565 81.5431C73.939 81.5965 73.8183 81.6425 73.6951 81.6808C73.3837 81.7665 73.0876 81.9 72.8173 82.0766C72.5698 82.2841 72.3551 82.5278 72.1805 82.7995C70.03 85.6872 67.4737 88.2493 64.5908 90.4064V90.4064Z" fill="#2E6026"/>
<path d="M110.146 30.098C110.253 30.3348 110.304 30.593 110.295 30.8527C110.287 31.1124 110.218 31.3665 110.095 31.5953C109.931 31.8123 109.724 31.993 109.487 32.1263C109.25 32.2596 108.988 32.3425 108.718 32.3698C107.173 32.7164 105.601 32.9351 104.02 33.0238C104.072 33.8407 103.854 34.6521 103.4 35.3334H101.679C98.452 35.4412 95.2476 35.9146 92.1273 36.7447C89.4121 37.4705 86.8029 38.5466 84.3654 39.9458C82.943 39.6163 81.6022 39.0015 80.4243 38.1387C80.1184 37.9459 79.8604 37.6862 79.6696 37.3791C79.4788 37.072 79.3602 36.7256 79.3228 36.366C79.3491 35.9371 79.4855 35.5222 79.7187 35.1613C80.4384 33.9259 81.4561 32.8905 82.6788 32.1495C82.9084 32.0424 83.1179 31.8969 83.2984 31.7192C83.5103 31.4478 83.668 31.1381 83.7631 30.8071C84.5641 28.8703 85.8544 27.1747 87.5077 25.8865C89.1609 24.5983 91.1205 23.7615 93.1943 23.4583C94.2652 23.3005 95.3495 23.2543 96.4299 23.3206C97.2953 23.3861 98.157 23.4953 99.0114 23.6476C99.7343 23.7681 100.457 23.8885 101.18 24.0606C104.293 24.8352 107.111 26.5052 109.286 28.864C109.65 29.2158 109.942 29.6349 110.146 30.098V30.098Z" fill="#2E6026"/>
<path d="M98.5295 66.7388C97.1528 68.9494 95.3927 70.8965 93.332 72.4888C92.8329 72.919 92.351 73.3321 91.8691 73.6935C89.8355 75.5332 87.21 76.5834 84.4687 76.6537L81.0438 76.6382C80.0627 76.782 79.0639 76.5416 78.2557 75.967C77.813 75.7176 77.4442 75.3552 77.1872 74.9168C76.9302 74.4784 76.7942 73.9797 76.7929 73.4715C76.8248 73.2132 76.8132 72.9514 76.7585 72.697C76.6256 72.4322 76.4073 72.22 76.1389 72.0947C73.9245 70.8237 71.9451 69.1815 70.2874 67.2396C69.9776 66.861 69.6506 66.4652 69.3408 66.0521C68.769 65.3234 68.2622 64.546 67.8263 63.7287C67.4317 62.9082 67.237 62.0058 67.2584 61.0956L67.2756 58.6861C67.2637 57.2712 67.5312 55.8679 68.0628 54.5566C68.5944 53.2454 69.3796 52.0519 70.3734 51.0447C72.0031 49.1233 73.983 47.5289 76.2077 46.3463C76.8852 45.981 77.4962 45.5038 78.0148 44.9351C78.7282 44.1555 79.4991 43.4306 80.321 42.7666C81.5834 41.7085 82.9368 40.764 84.3654 39.9441C86.8029 38.5449 89.4121 37.4689 92.1273 36.743C95.2476 35.9135 98.452 35.4406 101.679 35.3334H108.563C109.011 35.3506 109.441 35.4195 109.888 35.4711C112.454 35.7858 114.996 36.2746 117.495 36.934C118.261 37.089 118.97 37.4522 119.543 37.9838C120.146 38.6206 119.474 39.8253 118.907 40.4965C118.907 40.4965 125.791 40.4965 125.791 45.6596V47.3807C120.906 47.2597 116.115 48.7339 112.143 51.58C110.387 52.9224 108.77 54.9704 109.372 57.0529C109.58 57.507 109.725 57.9877 109.802 58.4813C107.307 61.2866 99.9579 61.1661 99.9579 61.1661C99.9814 63.1171 99.4886 65.0397 98.5295 66.7388V66.7388Z" fill="#54A847"/>
<path d="M121.695 73.0568C120.856 72.6393 120.056 72.1498 119.302 71.5939C118.696 71.2385 118.178 70.7502 117.787 70.1656C117.397 69.581 117.144 68.9154 117.048 68.2189C117.102 67.8894 117.048 67.551 116.893 67.2552C116.702 67.0599 116.456 66.9278 116.187 66.8765C114.811 66.4635 113.416 66.0332 112.022 65.6202C111.374 65.4439 110.746 65.2017 110.147 64.8973C109.658 64.6456 109.243 64.2721 108.942 63.8131C108.666 63.1052 108.57 62.3399 108.663 61.5859C108.757 60.8319 109.036 60.1128 109.475 59.4933C109.629 59.2393 109.734 58.9593 109.785 58.6672C109.785 58.5984 109.802 58.5295 109.802 58.4779C109.725 57.9843 109.58 57.5036 109.372 57.0494C108.77 54.967 110.387 52.9189 112.143 51.5765C116.115 48.7317 120.906 47.2588 125.791 47.3807C127.598 47.383 129.401 47.55 131.178 47.8798C132.791 48.1258 134.35 48.6438 135.79 49.4115C136.562 49.9523 137.373 50.4355 138.217 50.8571C138.903 51.0964 139.605 51.2918 140.316 51.4423C141.649 51.8059 142.882 52.4673 143.923 53.3765C144.963 54.2857 145.784 55.4192 146.323 56.6914C147.161 56.8634 147.937 57.262 148.565 57.844C149.193 58.426 149.65 59.169 149.885 59.9924C152.639 62.2297 155.565 64.9318 156.459 68.2878C156.945 70.377 156.832 72.5607 156.133 74.5885C155.992 75.3114 155.698 75.9958 155.27 76.5955C154.843 77.1952 154.292 77.6963 153.654 78.065C152.49 78.4784 151.213 78.4416 150.074 77.9617C149.676 77.8096 149.267 77.6832 148.853 77.5831C148.419 77.5315 147.981 77.5143 147.545 77.5314C144.447 77.497 141.71 75.0187 138.63 75.3113C135.282 75.6901 131.901 75.6554 128.562 75.208C126.175 74.8509 123.858 74.1252 121.695 73.0568V73.0568Z" fill="#60D54D"/>
<path d="M127.512 100.714C127.074 100.034 126.863 99.2322 126.909 98.4247C125.322 98.3361 123.745 98.1173 122.194 97.7707C121.683 97.7142 121.214 97.4612 120.886 97.0651C120.851 97.0479 120.834 97.0135 120.817 96.9963C120.698 96.7661 120.632 96.5124 120.623 96.2534C120.614 95.9945 120.662 95.7368 120.765 95.499C120.969 95.034 121.261 94.6131 121.626 94.2598C121.814 94.0518 122.015 93.8564 122.228 93.6747C123.714 92.2082 125.466 91.0398 127.391 90.2326C128.155 89.9102 128.943 89.6512 129.749 89.4581C130.455 89.286 131.177 89.1656 131.9 89.0451C132.761 88.9074 133.621 88.7697 134.482 88.7181C135.562 88.6518 136.647 88.698 137.717 88.8558C139.792 89.1567 141.753 89.9926 143.406 91.2811C145.06 92.5696 146.35 94.2664 147.149 96.2046C147.25 96.5366 147.413 96.8462 147.631 97.1167C147.808 97.2903 148.011 97.4355 148.233 97.547C149.456 98.288 150.473 99.3234 151.193 100.559C151.431 100.918 151.574 101.333 151.606 101.764C151.565 102.124 151.443 102.471 151.25 102.778C151.056 103.085 150.795 103.344 150.487 103.536C147.939 105.209 144.927 106.034 141.882 105.894C140.537 105.925 139.191 105.862 137.855 105.705C134.806 105.465 131.876 104.413 129.37 102.658C128.629 102.138 127.998 101.477 127.512 100.714V100.714Z" fill="#54A847"/>
<path d="M122.435 107.649C122.141 107.722 121.842 107.768 121.54 107.787L106.98 108.837C104.266 109.006 101.613 109.716 99.1781 110.925C96.7427 112.134 94.5737 113.818 92.7985 115.878C92.2371 116.503 91.7571 117.197 91.3701 117.943L93.0911 119.664L96.5332 123.106L99.9752 126.548L103.417 129.99L86.207 126.548L70.7177 129.99H55.2284V128.269L70.1153 125.292C70.474 125.215 70.8099 125.056 71.0963 124.827H72.4387V121.385C72.5583 119.002 73.1552 116.666 74.1942 114.518C76.5176 109.51 81.9904 103.433 94.8121 102.454H111.868C113.007 102.456 114.135 102.232 115.186 101.794C116.238 101.357 117.193 100.715 117.994 99.9065L120.628 97.2906L120.886 97.0668C121.214 97.4629 121.683 97.7159 122.194 97.7725C123.745 98.1191 125.322 98.3378 126.909 98.4265C126.863 99.234 127.074 100.035 127.512 100.715V102.454L125.464 105.517C124.756 106.581 123.675 107.342 122.435 107.649V107.649Z" fill="#A67350"/>
<path d="M119.251 79.3918L127.391 90.2343C125.466 91.0416 123.714 92.21 122.228 93.6764L116.101 84.7959C115.684 83.9851 114.968 83.3681 114.105 83.0748L111.386 82.1627C110.677 81.9218 109.909 81.9218 109.2 82.1627L92.4715 87.7388C91.6863 88.0006 90.8332 87.9707 90.0682 87.6547C89.3033 87.3386 88.6779 86.7575 88.3066 86.0178L87.928 85.2433H84.4859L91.9896 78.9788L94.8121 81.8013L107.41 77.0684C108.183 76.7882 108.998 76.6426 109.819 76.6382H113.743C114.812 76.6382 115.866 76.887 116.822 77.365C117.778 77.8429 118.61 78.5369 119.251 79.3918V79.3918Z" fill="#A67350"/>
<path d="M115.464 123.106H96.5331L93.0911 119.664L99.9752 117.943H103.417L115.464 123.106Z" fill="#5D241D"/>
<path d="M74.1597 114.501L74.1941 114.518C73.1552 116.666 72.5582 119.002 72.4387 121.385V124.827H71.0963C71.4975 124.51 71.7707 124.058 71.8655 123.555C71.9604 123.052 71.8705 122.532 71.6126 122.091C71.5931 122.043 71.5701 121.997 71.5437 121.953C70.8783 120.969 70.0021 120.145 68.9787 119.542C67.9552 118.939 66.8103 118.571 65.627 118.465C64.4437 118.36 63.2518 118.519 62.1378 118.932C61.0238 119.345 60.0157 120 59.1867 120.851L58.6704 121.385H50.0652L56.9494 117.943L59.6858 114.294C60.4383 113.293 61.4127 112.479 62.5325 111.918C63.6523 111.357 64.887 111.063 66.1397 111.059H66.5527C68.1464 111.056 69.7045 111.53 71.0274 112.418L74.1597 114.501Z" fill="#5D241D"/>
<path d="M72.1805 82.7977C72.3551 82.5261 72.5698 82.2824 72.8173 82.0749C73.0876 81.8983 73.3837 81.7648 73.695 81.6791C73.8183 81.6408 73.939 81.5948 74.0565 81.5414C75.5866 80.9998 77.0619 80.314 78.4623 79.4934C79.0673 79.2228 79.6092 78.8292 80.0537 78.3376C80.4982 77.846 80.8354 77.2672 81.0438 76.6382C80.0627 76.782 79.0639 76.5416 78.2558 75.967C77.813 75.7176 77.4443 75.3552 77.1873 74.9168C76.9303 74.4784 76.7942 73.9797 76.7929 73.4715C76.8248 73.2132 76.8132 72.9514 76.7585 72.697C76.6256 72.4322 76.4073 72.22 76.1389 72.0947C73.9249 70.8232 71.9456 69.181 70.2874 67.2396C70.0327 66.9281 69.7711 66.5977 69.5078 66.2638C66.4134 67.6837 63.758 69.9099 61.8199 72.7091C60.867 74.2181 60.3709 75.9705 60.3915 77.7551V79.2851C60.3696 80.8464 60.7488 82.3871 61.4929 83.7598C61.6306 84.0145 61.7683 84.2509 61.906 84.4689C62.061 84.6677 62.1565 84.9064 62.1813 85.1573C62.1753 85.4036 62.0976 85.6429 61.9576 85.8457C61.8384 86.0694 61.7002 86.2824 61.5446 86.4825C60.7854 87.4887 60.38 88.7175 60.3915 89.9779C60.3928 90.9846 60.6567 91.9735 61.1573 92.8469C62.3362 92.0776 63.4893 91.2583 64.5908 90.4064C67.4738 88.2488 70.0301 85.6861 72.1805 82.7977V82.7977Z" fill="#233D1B"/>
<path d="M83.2984 36.8823C83.5103 36.6109 83.668 36.3012 83.7631 35.9702C84.5642 34.0335 85.8546 32.338 87.5078 31.0498C89.1611 29.7616 91.1205 28.9248 93.1943 28.6214C94.2652 28.4636 95.3495 28.4174 96.4299 28.4837C97.2953 28.5492 98.157 28.6583 99.0114 28.8107C99.7343 28.9312 100.457 29.0516 101.18 29.2237C103.583 29.8188 105.816 30.9595 107.706 32.5574C108.05 32.4937 108.382 32.4472 108.718 32.3732C108.988 32.3459 109.25 32.263 109.487 32.1297C109.724 31.9965 109.931 31.8157 110.095 31.5988C110.218 31.3699 110.287 31.1158 110.295 30.8561C110.304 30.5965 110.253 30.3383 110.146 30.1015C109.943 29.6365 109.651 29.2156 109.286 28.8623C107.111 26.5045 104.293 24.8352 101.18 24.0606C100.457 23.8885 99.7343 23.7681 99.0114 23.6476C98.157 23.4953 97.2953 23.3861 96.4299 23.3206C95.3495 23.2543 94.2652 23.3005 93.1943 23.4583C91.1205 23.7617 89.1611 24.5985 87.5078 25.8867C85.8546 27.1749 84.5642 28.8704 83.7631 30.8071C83.668 31.1381 83.5103 31.4478 83.2984 31.7192C83.1179 31.8969 82.9084 32.0424 82.6788 32.1495C81.4561 32.8905 80.4384 33.9259 79.7187 35.1613C79.4855 35.5222 79.3491 35.9371 79.3228 36.366C79.3602 36.7256 79.4788 37.072 79.6696 37.3791C79.8604 37.6862 80.1184 37.9459 80.4243 38.1387C80.636 38.297 80.858 38.433 81.0765 38.5707C81.5563 38.0864 82.0945 37.6638 82.6788 37.3126C82.9084 37.2055 83.1179 37.06 83.2984 36.8823Z" fill="#396D2C"/>
<path d="M139.576 100.542C136.527 100.302 133.597 99.2503 131.091 97.4953C130.35 96.9751 129.719 96.3144 129.233 95.5506C128.795 94.8706 128.584 94.0691 128.63 93.2616C127.043 93.1729 125.466 92.9542 123.915 92.6076C123.794 92.5783 123.674 92.5491 123.555 92.5129C123.093 92.8772 122.65 93.2649 122.228 93.6746C122.015 93.8563 121.814 94.0518 121.626 94.2598C121.261 94.613 120.969 95.0339 120.765 95.4989C120.662 95.7368 120.614 95.9945 120.623 96.2534C120.632 96.5123 120.698 96.766 120.817 96.9962C120.834 97.0134 120.851 97.0479 120.886 97.0651C121.214 97.4611 121.683 97.7142 122.194 97.7707C123.745 98.1173 125.322 98.336 126.909 98.4247C126.863 99.2322 127.074 100.034 127.512 100.714C127.998 101.477 128.629 102.138 129.37 102.658C131.876 104.413 134.806 105.465 137.855 105.705C139.191 105.862 140.537 105.925 141.882 105.894C144.927 106.034 147.939 105.209 150.487 103.536C150.795 103.344 151.056 103.085 151.249 102.779C151.443 102.472 151.565 102.126 151.606 101.765C151.574 101.335 151.431 100.92 151.193 100.56C150.958 100.168 150.692 99.7956 150.398 99.4453C148.244 100.332 145.932 100.77 143.603 100.733C142.258 100.763 140.912 100.7 139.576 100.542V100.542Z" fill="#3A8A2D"/>
<path d="M146.472 72.9896C145.194 72.7213 143.961 72.2691 142.812 71.6472C140.746 70.4425 139.272 68.3566 137.155 67.2328C134.688 65.9248 131.744 66.0934 128.968 65.7974C126.192 65.5014 123.116 64.3913 122.104 61.7874C121.76 60.8735 121.646 59.7738 120.875 59.1714C120.334 58.8257 119.702 58.6462 119.06 58.6551C117.165 58.5066 115.262 58.4939 113.365 58.6173C112.178 58.7507 110.978 58.7206 109.799 58.5278C109.799 58.5742 109.785 58.6276 109.785 58.6844C109.734 58.9765 109.629 59.2565 109.475 59.5105C109.036 60.13 108.757 60.8491 108.663 61.6031C108.57 62.3571 108.666 63.1224 108.942 63.8303C109.243 64.2893 109.658 64.6628 110.147 64.9145C110.746 65.2141 111.375 65.4517 112.022 65.6236C113.416 66.0366 114.811 66.4669 116.187 66.8799C116.456 66.9312 116.702 67.0633 116.893 67.2586C117.048 67.5545 117.102 67.8928 117.048 68.2223C117.144 68.9188 117.397 69.5844 117.787 70.169C118.178 70.7536 118.696 71.2419 119.302 71.5973C120.056 72.1532 120.856 72.6427 121.695 73.0602C123.858 74.1286 126.175 74.8543 128.562 75.2115C131.901 75.6588 135.282 75.6935 138.63 75.3147C141.71 75.0221 144.447 77.5004 147.545 77.5348C147.981 77.5177 148.419 77.5349 148.853 77.5865C149.267 77.6866 149.676 77.813 150.074 77.9651C151.213 78.445 152.49 78.4818 153.654 78.0684C154.292 77.6997 154.843 77.1986 155.27 76.5989C155.698 75.9992 155.992 75.3148 156.133 74.5919C156.432 73.6175 156.629 72.6144 156.719 71.599C155.956 72.2969 155.053 72.8248 154.071 73.1479C151.572 73.795 148.942 73.7402 146.472 72.9896V72.9896Z" fill="#54A847"/>
<path d="M156.459 68.2877C155.565 64.9317 152.639 62.2297 149.885 59.9923C149.65 59.1683 149.194 58.4246 148.566 57.8419C147.938 57.2593 147.162 56.8601 146.323 56.6879C145.784 55.4157 144.963 54.2822 143.923 53.373C142.882 52.4638 141.649 51.8024 140.316 51.4388C139.605 51.2883 138.903 51.0929 138.217 50.8536C137.373 50.432 136.562 49.9488 135.79 49.408C134.35 48.6403 132.791 48.1223 131.178 47.8763C129.401 47.5477 127.598 47.3818 125.791 47.3806C120.906 47.2597 116.115 48.7339 112.143 51.5799C110.387 52.9223 108.77 54.9704 109.372 57.0528C109.422 57.2008 109.482 57.3523 109.544 57.5037C109.824 57.2348 110.117 56.9809 110.424 56.743C114.395 53.8973 119.185 52.4232 124.07 52.5437C125.877 52.546 127.68 52.7131 129.456 53.0428C131.07 53.2889 132.629 53.8068 134.069 54.5745C134.841 55.1153 135.652 55.5985 136.496 56.0202C137.182 56.2594 137.884 56.4548 138.595 56.6053C139.928 56.969 141.161 57.6303 142.202 58.5395C143.242 59.4488 144.063 60.5822 144.602 61.8545C145.44 62.0264 146.216 62.425 146.844 63.007C147.472 63.589 147.929 64.3321 148.164 65.1554C150.965 67.115 153.176 69.8041 154.558 72.931C155.35 72.6146 156.082 72.1627 156.719 71.5955C156.83 70.4862 156.742 69.3661 156.459 68.2877Z" fill="#76E95A"/>
<path d="M80.1352 65.51C81.0525 65.8972 81.8218 66.5702 82.7167 67.0193C83.8648 67.5673 85.1569 67.7377 86.4078 67.5062C87.6587 67.2746 88.8042 66.6529 89.68 65.7303C91.7005 63.5084 91.833 59.97 94.0239 57.9134C95.9446 56.1097 98.8428 55.9841 101.318 55.0651C101.875 54.8823 102.39 54.5897 102.832 54.2045C103.607 53.1809 104.137 51.9934 104.381 50.7332C105.572 48.0652 107.731 45.9486 110.422 44.8111C111.771 44.2929 113.084 43.684 114.351 42.9886C115.787 41.9433 117.342 41.0711 118.982 40.3898C119.53 39.7014 120.115 38.5844 119.54 37.9804C118.967 37.4488 118.258 37.0855 117.492 36.9305C116.268 36.6001 115.031 36.3247 113.787 36.0855C113.685 36.1974 113.587 36.3092 113.48 36.4108C112.173 37.5234 110.649 38.3536 109.005 38.8495C107.367 39.3426 105.793 40.029 104.317 40.8941C102.486 42.0988 101.132 43.9506 99.2524 45.0865C94.5695 47.9193 88.0657 45.6252 83.3655 48.4425C82.252 49.112 81.3003 50.0396 80.1593 50.654C78.9706 51.2698 77.6304 51.5322 76.2972 51.4102C74.9641 51.2882 73.6938 50.7869 72.6366 49.9656C72.4026 49.7835 72.2013 49.5629 72.0412 49.3134C71.4413 49.8499 70.8816 50.4297 70.3666 51.0482C69.3728 52.0554 68.5876 53.2488 68.056 54.5601C67.5244 55.8713 67.2569 57.2747 67.2687 58.6895L67.2515 61.099C67.2302 62.0093 67.4248 62.9116 67.8195 63.7322C68.2554 64.5494 68.7621 65.3269 69.334 66.0556C69.4648 66.2277 69.5973 66.3877 69.7315 66.5547C70.8013 66.5123 71.8637 66.3589 72.9017 66.0969C75.3025 65.5048 77.8651 64.5497 80.1352 65.51V65.51Z" fill="#3A8A2D"/>
<path d="M72.6435 49.9622C73.7007 50.7834 74.971 51.2847 76.3041 51.4067C77.6373 51.5287 78.9774 51.2663 80.1661 50.6506C81.3106 50.0362 82.2589 49.1017 83.3724 48.4391C88.0657 45.6217 94.5763 47.9228 99.2593 45.083C101.139 43.9472 102.493 42.1022 104.324 40.8906C105.8 40.0255 107.374 39.3392 109.012 38.846C110.656 38.3502 112.179 37.5199 113.487 36.4073C113.594 36.3058 113.692 36.1939 113.793 36.082C112.498 35.8388 111.196 35.634 109.888 35.4676C109.441 35.416 109.011 35.3472 108.563 35.33H101.679C98.452 35.4377 95.2476 35.9111 92.1273 36.7412C89.4121 37.4671 86.803 38.5432 84.3655 39.9423C82.9368 40.7622 81.5834 41.7067 80.321 42.7648C79.4991 43.4289 78.7282 44.1538 78.0149 44.9333C77.4962 45.5021 76.8853 45.9792 76.2078 46.3446C74.7106 47.1672 73.3145 48.1618 72.048 49.3082C72.208 49.5584 72.4094 49.7795 72.6435 49.9622V49.9622Z" fill="#54A847"/>
<path d="M118.907 40.4965C118.932 40.4655 118.958 40.4294 118.986 40.3967C117.345 41.0779 115.791 41.9502 114.354 42.9954C113.087 43.6908 111.775 44.2997 110.425 44.818C107.734 45.9554 105.575 48.072 104.384 50.7401C104.14 52.0003 103.61 53.1878 102.836 54.2114C102.393 54.5966 101.878 54.8892 101.321 55.0719C98.8514 55.9909 95.948 56.1166 94.0273 57.9202C91.8364 59.9855 91.7039 63.5153 89.6834 65.7371C88.8076 66.6598 87.6621 67.2814 86.4112 67.513C85.1603 67.7446 83.8682 67.5742 82.7201 67.0262C81.8304 66.577 81.0611 65.9041 80.1386 65.5169C77.8685 64.5565 75.3059 65.5168 72.9103 66.0986C71.8723 66.3606 70.8098 66.514 69.7401 66.5564C69.9243 66.787 70.1101 67.0262 70.2891 67.2448C71.9473 69.1861 73.9266 70.8283 76.1406 72.0998C76.409 72.2252 76.6273 72.4374 76.7602 72.7022C76.8149 72.9566 76.8266 73.2184 76.7946 73.4766C76.7959 73.9848 76.932 74.4835 77.189 74.922C77.446 75.3604 77.8147 75.7228 78.2575 75.9721C79.0659 76.5445 80.064 76.783 81.0438 76.6382L84.4687 76.6554C87.2101 76.5851 89.8356 75.5349 91.8691 73.6952C92.351 73.3338 92.8329 72.9207 93.332 72.4905C95.3924 70.8978 97.1524 68.9507 98.5295 66.7405C99.4892 65.0403 99.982 63.1165 99.958 61.1644C99.958 61.1644 107.307 61.2848 109.802 58.4795C109.725 57.9859 109.58 57.5053 109.372 57.0511C108.77 54.9686 110.387 52.9206 112.143 51.5782C116.115 48.7328 120.906 47.2592 125.791 47.3806V45.6596C125.791 40.4965 118.907 40.4965 118.907 40.4965V40.4965Z" fill="#2E6026"/>
<path d="M122.194 97.7707C121.683 97.7142 121.214 97.4612 120.886 97.0651L120.628 97.2906L118.034 99.8721L119.908 100.676C120.229 100.813 120.501 101.045 120.687 101.34C120.873 101.635 120.965 101.98 120.951 102.329C120.936 102.678 120.816 103.014 120.606 103.293C120.397 103.572 120.107 103.78 119.776 103.891L118.907 104.175L96.5332 105.896C96.5332 105.896 82.7649 107.617 82.7649 119.664C82.7649 120.626 82.4237 121.557 81.8019 122.291C81.1802 123.025 80.3182 123.514 79.3693 123.672L72.4387 124.827H71.0963C70.8099 125.056 70.474 125.215 70.1153 125.292L55.2284 128.269V129.99H70.7177L86.207 126.548L103.417 129.99L99.9752 126.548L96.5332 123.106L93.0911 119.664L91.3701 117.943C91.7571 117.197 92.2371 116.503 92.7985 115.878C94.5737 113.818 96.7427 112.134 99.1781 110.925C101.613 109.716 104.266 109.006 106.98 108.837L121.54 107.787C121.8 107.771 122.058 107.735 122.312 107.679C123.603 107.392 124.732 106.616 125.464 105.515L127.512 102.454V100.715C127.074 100.035 126.863 99.234 126.909 98.4265C125.322 98.3372 123.745 98.1179 122.194 97.7707V97.7707Z" fill="#704D35"/>
<path d="M88.3066 86.0161C88.6779 86.7557 89.3033 87.3368 90.0682 87.6529C90.8332 87.969 91.6863 87.9989 92.4715 87.7371L109.2 82.161C109.909 81.9201 110.677 81.9201 111.386 82.161L114.105 83.0731C114.968 83.3664 115.684 83.9834 116.101 84.7941L122.228 93.6747C123.714 92.2082 125.466 91.0398 127.391 90.2326L125.171 87.2741L123.774 87.9729C123.387 88.1644 122.942 88.2035 122.527 88.0823C122.113 87.9612 121.759 87.6887 121.536 87.3189L119.815 84.4585C118.366 82.0423 116.083 80.2398 113.396 79.3908C110.71 78.5418 107.806 78.705 105.231 79.8496L93.0911 85.2433L94.8121 81.8013L91.9896 78.9788L84.4859 85.2433H87.928L88.3066 86.0161Z" fill="#704D35"/>
<path d="M121.695 73.0584C120.856 72.641 120.056 72.1515 119.302 71.5956C118.899 71.2991 118.521 70.968 118.175 70.606L114.088 69.7885C113.974 69.7653 113.859 69.7538 113.743 69.7541H108.682L110.775 65.5668L111.243 65.3671C110.866 65.2411 110.499 65.0852 110.146 64.9008C109.904 64.7689 109.676 64.6113 109.467 64.4309C109.443 64.4653 109.396 64.4774 109.377 64.5152L106.758 69.7541H101.696C101.661 69.7564 101.626 69.7634 101.593 69.7747L99.1749 66.1743L98.9374 65.9041C98.8066 66.1881 98.681 66.4738 98.5295 66.7423C98.3781 67.0107 98.1853 67.2586 98.0132 67.5253L100.046 70.5595L94.2786 74.8879L92.5369 73.1462C92.3149 73.3286 92.0894 73.53 91.8691 73.6952C91.6488 73.8604 91.4045 74.048 91.1807 74.2115L92.919 75.9687L83.8629 83.5223H81.0438C80.7393 83.5295 80.4422 83.6181 80.1833 83.7787L75.2698 81.0492C74.8671 81.2213 74.4712 81.3934 74.0651 81.5431C73.9476 81.5965 73.8269 81.6425 73.7036 81.6808C73.5315 81.7376 73.3594 81.7978 73.2045 81.8684L78.6344 84.8991L73.5866 88.6854H66.7025C66.0141 89.2786 65.3096 89.8523 64.5891 90.4064C63.9747 90.8797 63.3241 91.31 62.6959 91.7592L63.0711 91.9467C63.308 92.0648 63.5689 92.1266 63.8335 92.1275H74.1597C74.5321 92.1275 74.8944 92.0067 75.1923 91.7832L81.6169 86.9644H84.4859C84.8891 86.9646 85.2795 86.8233 85.5891 86.5651L87.1742 85.2433L93.2184 80.2076L95.8912 77.9789L102.269 73.1961H113.571L121.338 74.745L121.992 74.8844C122.11 74.9072 122.229 74.9181 122.349 74.9171C122.661 74.9146 122.967 74.8263 123.233 74.6618C123.499 74.4973 123.714 74.263 123.856 73.9843C123.119 73.7172 122.397 73.4081 121.695 73.0584V73.0584Z" fill="#664530"/>
<path d="M137.855 105.706C137.199 105.636 136.547 105.526 135.9 105.4L132.208 109.09L124.539 106.536C123.709 107.279 122.652 107.721 121.54 107.789L120.602 107.856L120.906 108.443C121.112 108.841 121.466 109.143 121.891 109.284L132.133 112.692C132.436 112.793 132.761 112.807 133.071 112.733C133.382 112.66 133.666 112.501 133.892 112.276L140.29 105.877C139.478 105.854 138.667 105.81 137.855 105.706V105.706Z" fill="#664530"/>
<path d="M61.4169 154.435H55.588C54.6121 154.435 53.821 153.575 53.821 152.513V149.131H63.1838V152.513C63.1838 153.575 62.3928 154.435 61.4169 154.435Z" fill="#FC6E6E"/>
<path opacity="0.2" d="M61.4169 154.435H55.588C54.6121 154.435 53.821 153.575 53.821 152.513V149.131H63.1838V152.513C63.1838 153.575 62.3928 154.435 61.4169 154.435Z" fill="black"/>
<path d="M107.608 154.435H101.779C100.803 154.435 100.012 153.575 100.012 152.513V149.131H109.375V152.513C109.375 153.575 108.584 154.435 107.608 154.435Z" fill="#FC6E6E"/>
<path opacity="0.2" d="M107.608 154.435H101.779C100.803 154.435 100.012 153.575 100.012 152.513V149.131H109.375V152.513C109.375 153.575 108.584 154.435 107.608 154.435Z" fill="black"/>
<path d="M109.375 149.132H53.821C51.1782 149.132 48.8004 147.385 47.8133 144.719L42.3912 130.073H120.805L115.383 144.719C114.396 147.385 112.018 149.132 109.375 149.132Z" fill="#FC6E6E"/>
<path opacity="0.1" d="M120.805 130.073H42.3909L47.8131 144.719C48.8004 147.385 51.1779 149.132 53.8208 149.132H65.1124C62.4695 149.132 60.0918 147.385 59.1047 144.719L55.5623 135.151H118.925L120.805 130.073Z" fill="black"/>
<path d="M124.457 130.074H38.7391C37.0522 130.074 35.6849 128.587 35.6849 126.753V124.498C35.6849 122.663 37.0524 121.176 38.7391 121.176H124.458C126.144 121.176 127.512 122.664 127.512 124.498V126.753C127.512 128.587 126.144 130.074 124.457 130.074Z" fill="#FC6E6E"/>
<path opacity="0.2" d="M47.631 126.752V124.497C47.631 122.662 48.9985 121.175 50.6851 121.175H38.7391C37.0522 121.175 35.6849 122.663 35.6849 124.497V126.752C35.6849 128.586 37.0524 130.073 38.7391 130.073H50.6853C48.9985 130.074 47.631 128.586 47.631 126.752Z" fill="black"/>
</svg>
