<svg width="176" height="176" viewBox="0 0 176 176" fill="none" xmlns="http://www.w3.org/2000/svg">
<circle cx="88" cy="88" r="88" fill="#EDF5FF"/>
<g clip-path="url(#clip0)">
<path d="M98.5296 66.7389C97.1528 68.9494 95.3928 70.8966 93.332 72.4888C92.8329 72.9191 92.3511 73.3321 91.8692 73.6936C89.8356 75.5333 87.2101 76.5835 84.4687 76.6537L81.0439 76.6382C80.0628 76.7821 79.064 76.5416 78.2558 75.967C77.813 75.7177 77.4443 75.3553 77.1873 74.9169C76.9303 74.4785 76.7942 73.9797 76.7929 73.4715C76.8249 73.2133 76.8132 72.9515 76.7585 72.6971C76.6256 72.4323 76.4073 72.2201 76.1389 72.0947C73.9245 70.8238 71.9452 69.1815 70.2874 67.2397C69.9776 66.8611 69.6507 66.4652 69.3409 66.0522C68.769 65.3235 68.2623 64.5461 67.8264 63.7288C67.4317 62.9082 67.2371 62.0059 67.2584 61.0956L67.2756 58.6862C67.2638 57.2713 67.5313 55.868 68.0629 54.5567C68.5945 53.2454 69.3797 52.052 70.3735 51.0448C72.0032 49.1234 73.9831 47.529 76.2078 46.3464C76.8853 45.981 77.4962 45.5039 78.0149 44.9351C78.7282 44.1556 79.4991 43.4307 80.321 42.7666C81.5834 41.7085 82.9368 40.764 84.3655 39.9441C86.803 38.545 89.4122 37.4689 92.1273 36.743C95.2477 35.9135 98.4521 35.4407 101.679 35.3335H108.563C109.011 35.3507 109.441 35.4195 109.888 35.4712C112.454 35.7859 114.996 36.2746 117.495 36.9341C118.262 37.089 118.97 37.4523 119.543 37.9839C120.146 38.6207 119.475 39.8254 118.907 40.4966C118.907 40.4966 125.791 40.4966 125.791 45.6597V47.3807C120.906 47.2598 116.115 48.734 112.143 51.58C110.387 52.9224 108.77 54.9705 109.372 57.0529C109.58 57.5071 109.725 57.9877 109.802 58.4814C107.307 61.2866 99.958 61.1662 99.958 61.1662C99.9815 63.1172 99.4887 65.0397 98.5296 66.7389V66.7389Z" fill="#7DA847"/>
<path d="M121.695 73.0568C120.856 72.6393 120.056 72.1498 119.302 71.5939C118.696 71.2385 118.178 70.7502 117.787 70.1656C117.397 69.581 117.144 68.9154 117.048 68.2189C117.102 67.8894 117.048 67.551 116.893 67.2552C116.702 67.0599 116.456 66.9278 116.187 66.8765C114.811 66.4635 113.416 66.0332 112.022 65.6202C111.374 65.4439 110.746 65.2017 110.147 64.8973C109.658 64.6456 109.243 64.2721 108.942 63.8131C108.666 63.1052 108.57 62.3399 108.663 61.5859C108.757 60.8319 109.036 60.1128 109.475 59.4933C109.629 59.2393 109.734 58.9593 109.785 58.6672C109.785 58.5984 109.802 58.5295 109.802 58.4779C109.725 57.9843 109.58 57.5036 109.372 57.0494C108.77 54.967 110.387 52.9189 112.143 51.5765C116.115 48.7317 120.906 47.2588 125.791 47.3807C127.598 47.383 129.401 47.55 131.178 47.8798C132.791 48.1258 134.35 48.6438 135.79 49.4115C136.562 49.9523 137.373 50.4355 138.217 50.8571C138.903 51.0964 139.605 51.2918 140.316 51.4423C141.649 51.8059 142.882 52.4673 143.923 53.3765C144.963 54.2857 145.784 55.4192 146.323 56.6914C147.161 56.8634 147.937 57.262 148.565 57.844C149.193 58.426 149.65 59.169 149.885 59.9924C152.639 62.2297 155.565 64.9318 156.459 68.2878C156.945 70.377 156.832 72.5607 156.133 74.5885C155.992 75.3114 155.698 75.9958 155.27 76.5955C154.843 77.1952 154.292 77.6963 153.654 78.065C152.49 78.4784 151.213 78.4416 150.074 77.9617C149.676 77.8096 149.267 77.6832 148.853 77.5831C148.419 77.5315 147.981 77.5143 147.545 77.5314C144.447 77.497 141.71 75.0187 138.63 75.3113C135.282 75.6901 131.901 75.6554 128.562 75.208C126.175 74.8509 123.858 74.1252 121.695 73.0568V73.0568Z" fill="#A9D54D"/>
<path d="M127.512 100.714C127.074 100.034 126.863 99.2323 126.909 98.4248C125.322 98.3361 123.745 98.1174 122.194 97.7708C121.683 97.7142 121.214 97.4612 120.886 97.0652C120.851 97.048 120.834 97.0135 120.817 96.9963C120.698 96.7661 120.632 96.5124 120.623 96.2535C120.614 95.9946 120.663 95.7369 120.765 95.499C120.969 95.034 121.261 94.6131 121.626 94.2599C121.814 94.0519 122.015 93.8564 122.228 93.6747C123.714 92.2083 125.466 91.0399 127.391 90.2327C128.155 89.9103 128.943 89.6512 129.749 89.4582C130.455 89.2861 131.178 89.1656 131.9 89.0452C132.761 88.9075 133.621 88.7698 134.482 88.7182C135.562 88.6519 136.647 88.698 137.717 88.8558C139.792 89.1568 141.753 89.9927 143.406 91.2812C145.06 92.5697 146.35 94.2665 147.149 96.2047C147.25 96.5366 147.413 96.8463 147.631 97.1168C147.808 97.2904 148.011 97.4355 148.233 97.5471C149.456 98.288 150.473 99.3235 151.193 100.559C151.432 100.919 151.574 101.333 151.606 101.764C151.565 102.124 151.443 102.471 151.25 102.778C151.056 103.085 150.795 103.344 150.488 103.536C147.939 105.209 144.927 106.034 141.882 105.894C140.537 105.925 139.191 105.862 137.855 105.705C134.806 105.465 131.876 104.414 129.37 102.659C128.629 102.138 127.998 101.478 127.512 100.714V100.714Z" fill="#7DA847"/>
<path d="M122.435 107.65C122.141 107.722 121.842 107.768 121.54 107.787L106.98 108.837C104.266 109.006 101.613 109.716 99.1781 110.925C96.7427 112.134 94.5737 113.818 92.7985 115.878C92.2371 116.503 91.7571 117.197 91.3701 117.943L93.0911 119.664L96.5332 123.106L99.9752 126.548L103.417 129.99L86.207 126.548L70.7177 129.99H55.2284V128.269L70.1153 125.292C70.474 125.215 70.8099 125.056 71.0963 124.827H72.4387V121.385C72.5583 119.002 73.1552 116.667 74.1942 114.518C76.5176 109.51 81.9904 103.433 94.8121 102.454H111.868C113.007 102.456 114.135 102.232 115.186 101.794C116.238 101.357 117.193 100.716 117.994 99.9066L120.628 97.2906L120.886 97.0669C121.214 97.4629 121.683 97.716 122.194 97.7725C123.745 98.1191 125.322 98.3379 126.909 98.4265C126.863 99.234 127.074 100.035 127.512 100.715V102.454L125.464 105.517C124.756 106.581 123.675 107.342 122.435 107.65V107.65Z" fill="#AC7E60"/>
<path d="M119.251 79.3919L127.391 90.2344C125.466 91.0416 123.714 92.21 122.228 93.6765L116.101 84.7959C115.684 83.9852 114.968 83.3682 114.105 83.0749L111.386 82.1628C110.677 81.9219 109.909 81.9219 109.2 82.1628L92.4716 87.7389C91.6864 88.0007 90.8332 87.9708 90.0683 87.6547C89.3034 87.3386 88.678 86.7575 88.3067 86.0179L87.928 85.2434H84.486L91.9897 78.9788L94.8122 81.8013L107.41 77.0685C108.183 76.7882 108.998 76.6427 109.82 76.6382H113.744C114.812 76.6382 115.866 76.8871 116.822 77.365C117.778 77.843 118.61 78.5369 119.251 79.3919V79.3919Z" fill="#AC7E60"/>
<path d="M115.465 123.106H96.5332L93.0911 119.664L99.9753 117.943H103.417L115.465 123.106Z" fill="#633B36"/>
<path d="M139.576 100.542C136.527 100.302 133.597 99.2504 131.091 97.4954C130.35 96.9752 129.719 96.3144 129.233 95.5506C128.795 94.8706 128.584 94.0692 128.63 93.2617C127.043 93.173 125.466 92.9543 123.915 92.6077C123.794 92.5784 123.674 92.5491 123.555 92.513C123.093 92.8773 122.65 93.265 122.228 93.6747C122.015 93.8564 121.814 94.0518 121.626 94.2598C121.261 94.6131 120.969 95.034 120.765 95.499C120.663 95.7368 120.614 95.9945 120.623 96.2534C120.632 96.5124 120.698 96.7661 120.817 96.9963C120.834 97.0135 120.851 97.0479 120.886 97.0651C121.214 97.4612 121.683 97.7142 122.194 97.7708C123.745 98.1174 125.322 98.3361 126.909 98.4248C126.863 99.2323 127.074 100.034 127.512 100.714C127.998 101.478 128.629 102.138 129.37 102.658C131.876 104.413 134.806 105.465 137.855 105.705C139.191 105.862 140.537 105.925 141.882 105.894C144.927 106.034 147.939 105.209 150.488 103.536C150.795 103.344 151.056 103.085 151.249 102.779C151.443 102.472 151.565 102.126 151.606 101.765C151.574 101.335 151.432 100.92 151.193 100.561C150.958 100.169 150.692 99.7956 150.398 99.4453C148.244 100.332 145.932 100.77 143.603 100.733C142.258 100.764 140.912 100.7 139.576 100.542V100.542Z" fill="#678A2D"/>
<path d="M146.472 72.9897C145.194 72.7213 143.961 72.2692 142.812 71.6473C140.746 70.4425 139.272 68.3566 137.155 67.2328C134.688 65.9248 131.744 66.0935 128.968 65.7975C126.192 65.5015 123.116 64.3914 122.104 61.7875C121.76 60.8736 121.646 59.7739 120.875 59.1715C120.334 58.8258 119.702 58.6463 119.06 58.6552C117.165 58.5066 115.262 58.494 113.365 58.6173C112.178 58.7507 110.978 58.7206 109.799 58.5278C109.799 58.5743 109.785 58.6277 109.785 58.6844C109.734 58.9765 109.629 59.2566 109.475 59.5105C109.036 60.1301 108.757 60.8491 108.663 61.6031C108.57 62.3571 108.666 63.1224 108.942 63.8303C109.243 64.2894 109.658 64.6628 110.147 64.9146C110.746 65.2142 111.375 65.4518 112.022 65.6236C113.416 66.0367 114.811 66.467 116.187 66.88C116.456 66.9313 116.702 67.0634 116.893 67.2586C117.048 67.5545 117.102 67.8929 117.048 68.2224C117.144 68.9189 117.397 69.5844 117.787 70.169C118.178 70.7536 118.696 71.242 119.302 71.5973C120.056 72.1533 120.856 72.6428 121.695 73.0602C123.858 74.1287 126.175 74.8544 128.562 75.2115C131.901 75.6589 135.282 75.6936 138.63 75.3148C141.71 75.0222 144.447 77.5005 147.545 77.5349C147.981 77.5177 148.419 77.535 148.853 77.5865C149.267 77.6866 149.676 77.8131 150.074 77.9652C151.213 78.445 152.49 78.4819 153.654 78.0684C154.292 77.6997 154.843 77.1986 155.27 76.5989C155.698 75.9992 155.992 75.3149 156.133 74.5919C156.432 73.6176 156.629 72.6145 156.719 71.5991C155.956 72.297 155.053 72.8249 154.071 73.148C151.572 73.795 148.942 73.7402 146.472 72.9897V72.9897Z" fill="#7DA847"/>
<path d="M156.459 68.2878C155.565 64.9317 152.639 62.2297 149.885 59.9924C149.65 59.1684 149.194 58.4246 148.566 57.842C147.938 57.2593 147.162 56.8602 146.323 56.688C145.784 55.4157 144.963 54.2823 143.923 53.3731C142.882 52.4638 141.649 51.8025 140.316 51.4389C139.605 51.2884 138.903 51.0929 138.217 50.8537C137.373 50.4321 136.562 49.9489 135.79 49.408C134.35 48.6403 132.791 48.1224 131.178 47.8763C129.401 47.5478 127.598 47.3819 125.791 47.3807C120.906 47.2598 116.115 48.734 112.143 51.58C110.387 52.9224 108.77 54.9704 109.372 57.0529C109.422 57.2009 109.482 57.3523 109.544 57.5038C109.824 57.2349 110.117 56.981 110.424 56.7431C114.395 53.8974 119.185 52.4232 124.07 52.5438C125.877 52.5461 127.68 52.7132 129.456 53.0429C131.07 53.2889 132.629 53.8069 134.069 54.5746C134.841 55.1154 135.652 55.5986 136.496 56.0202C137.182 56.2595 137.884 56.4549 138.595 56.6054C139.928 56.969 141.161 57.6304 142.202 58.5396C143.242 59.4488 144.063 60.5823 144.602 61.8545C145.44 62.0265 146.216 62.4251 146.844 63.0071C147.472 63.5891 147.929 64.3321 148.164 65.1555C150.965 67.1151 153.176 69.8041 154.558 72.9311C155.35 72.6146 156.082 72.1627 156.719 71.5956C156.83 70.4863 156.742 69.3662 156.459 68.2878Z" fill="#B2E95A"/>
<path d="M80.1352 65.5101C81.0525 65.8973 81.8218 66.5702 82.7167 67.0194C83.8648 67.5674 85.1569 67.7378 86.4078 67.5062C87.6587 67.2746 88.8042 66.653 89.68 65.7304C91.7005 63.5085 91.833 59.9701 94.0239 57.9134C95.9446 56.1098 98.8428 55.9841 101.318 55.0651C101.875 54.8824 102.39 54.5898 102.832 54.2046C103.607 53.181 104.137 51.9935 104.381 50.7333C105.572 48.0652 107.731 45.9486 110.422 44.8112C111.771 44.293 113.084 43.684 114.351 42.9886C115.787 41.9434 117.342 41.0711 118.982 40.3899C119.53 39.7015 120.115 38.5845 119.54 37.9804C118.967 37.4488 118.258 37.0856 117.492 36.9306C116.268 36.6002 115.031 36.3248 113.787 36.0856C113.685 36.1974 113.587 36.3093 113.48 36.4108C112.173 37.5234 110.649 38.3537 109.005 38.8495C107.367 39.3427 105.793 40.029 104.317 40.8941C102.486 42.0989 101.132 43.9507 99.2524 45.0866C94.5695 47.9194 88.0657 45.6253 83.3655 48.4426C82.252 49.1121 81.3003 50.0397 80.1593 50.6541C78.9706 51.2698 77.6304 51.5322 76.2972 51.4102C74.9641 51.2882 73.6938 50.787 72.6366 49.9657C72.4026 49.7836 72.2013 49.563 72.0412 49.3134C71.4413 49.85 70.8816 50.4298 70.3666 51.0482C69.3728 52.0554 68.5876 53.2489 68.056 54.5601C67.5244 55.8714 67.2569 57.2747 67.2687 58.6896L67.2515 61.0991C67.2302 62.0093 67.4248 62.9117 67.8195 63.7322C68.2554 64.5495 68.7621 65.327 69.334 66.0556C69.4648 66.2277 69.5973 66.3878 69.7315 66.5547C70.8013 66.5124 71.8637 66.359 72.9017 66.0969C75.3025 65.5049 77.8651 64.5497 80.1352 65.5101V65.5101Z" fill="#678A2D"/>
<path d="M72.6435 49.9622C73.7007 50.7835 74.971 51.2848 76.3041 51.4068C77.6373 51.5288 78.9774 51.2664 80.1661 50.6507C81.3106 50.0362 82.2589 49.1017 83.3724 48.4391C88.0657 45.6218 94.5763 47.9228 99.2593 45.0831C101.139 43.9472 102.493 42.1023 104.324 40.8907C105.8 40.0256 107.374 39.3392 109.012 38.8461C110.656 38.3502 112.179 37.52 113.487 36.4074C113.594 36.3058 113.692 36.194 113.793 36.0821C112.498 35.8389 111.196 35.6341 109.888 35.4677C109.441 35.4161 109.011 35.3472 108.563 35.33H101.679C98.452 35.4378 95.2476 35.9112 92.1273 36.7413C89.4121 37.4672 86.803 38.5432 84.3655 39.9424C82.9368 40.7623 81.5834 41.7068 80.321 42.7649C79.4991 43.429 78.7282 44.1538 78.0149 44.9334C77.4962 45.5022 76.8853 45.9793 76.2078 46.3446C74.7106 47.1672 73.3145 48.1618 72.048 49.3082C72.208 49.5584 72.4094 49.7796 72.6435 49.9622V49.9622Z" fill="#7DA847"/>
<path d="M118.907 40.4965C118.932 40.4656 118.958 40.4294 118.986 40.3967C117.345 41.078 115.791 41.9503 114.354 42.9955C113.087 43.6909 111.775 44.2998 110.425 44.8181C107.734 45.9555 105.575 48.0721 104.384 50.7401C104.14 52.0004 103.61 53.1878 102.836 54.2115C102.393 54.5966 101.878 54.8892 101.321 55.072C98.8514 55.991 95.948 56.1166 94.0273 57.9203C91.8364 59.9855 91.7039 63.5154 89.6834 65.7372C88.8076 66.6598 87.6621 67.2815 86.4112 67.5131C85.1603 67.7446 83.8682 67.5742 82.7201 67.0263C81.8304 66.5771 81.0611 65.9041 80.1386 65.5169C77.8685 64.5566 75.3059 65.5169 72.9103 66.0986C71.8723 66.3607 70.8098 66.5141 69.7401 66.5564C69.9243 66.787 70.1101 67.0263 70.2891 67.2448C71.9473 69.1862 73.9266 70.8284 76.1406 72.0999C76.409 72.2252 76.6273 72.4374 76.7602 72.7022C76.8149 72.9566 76.8266 73.2184 76.7946 73.4767C76.7959 73.9849 76.932 74.4836 77.189 74.922C77.446 75.3604 77.8147 75.7228 78.2575 75.9722C79.0659 76.5445 80.064 76.7831 81.0438 76.6382L84.4687 76.6554C87.2101 76.5852 89.8356 75.535 91.8691 73.6953C92.351 73.3338 92.8329 72.9208 93.332 72.4905C95.3924 70.8979 97.1524 68.9508 98.5295 66.7406C99.4892 65.0404 99.982 63.1166 99.958 61.1644C99.958 61.1644 107.307 61.2849 109.802 58.4796C109.725 57.986 109.58 57.5053 109.372 57.0512C108.77 54.9687 110.387 52.9207 112.143 51.5783C116.115 48.7329 120.906 47.2593 125.791 47.3807V45.6596C125.791 40.4965 118.907 40.4965 118.907 40.4965V40.4965Z" fill="#436026"/>
<path d="M122.194 97.7708C121.683 97.7143 121.214 97.4612 120.886 97.0652L120.628 97.2906L118.034 99.8722L119.908 100.676C120.229 100.813 120.501 101.045 120.687 101.34C120.873 101.635 120.965 101.98 120.951 102.329C120.936 102.678 120.816 103.014 120.606 103.293C120.397 103.572 120.107 103.78 119.776 103.891L118.907 104.175L96.5332 105.896C96.5332 105.896 82.7649 107.617 82.7649 119.664C82.7649 120.626 82.4237 121.557 81.8019 122.291C81.1802 123.025 80.3182 123.514 79.3693 123.672L72.4387 124.827H71.0963C70.8099 125.056 70.474 125.215 70.1153 125.292L55.2284 128.269V129.99H70.7177L86.207 126.548L103.417 129.99L99.9752 126.548L96.5332 123.106L93.0911 119.664L91.3701 117.943C91.7571 117.197 92.2371 116.503 92.7985 115.878C94.5737 113.818 96.7427 112.134 99.1781 110.925C101.613 109.716 104.266 109.006 106.98 108.837L121.54 107.787C121.8 107.771 122.058 107.735 122.312 107.679C123.603 107.392 124.732 106.616 125.464 105.515L127.512 102.454V100.715C127.074 100.036 126.863 99.234 126.909 98.4265C125.322 98.3373 123.745 98.118 122.194 97.7708V97.7708Z" fill="#72523C"/>
<path d="M88.3067 86.0161C88.678 86.7558 89.3034 87.3369 90.0683 87.653C90.8332 87.9691 91.6864 87.9989 92.4716 87.7372L109.2 82.161C109.909 81.9201 110.677 81.9201 111.386 82.161L114.105 83.0732C114.968 83.3664 115.684 83.9835 116.101 84.7942L122.228 93.6747C123.714 92.2083 125.466 91.0399 127.391 90.2327L125.171 87.2742L123.774 87.9729C123.387 88.1645 122.942 88.2035 122.527 88.0824C122.113 87.9612 121.759 87.6887 121.536 87.319L119.815 84.4586C118.366 82.0424 116.083 80.2399 113.397 79.3909C110.71 78.5419 107.806 78.7051 105.231 79.8497L93.0911 85.2434L94.8122 81.8013L91.9897 78.9788L84.486 85.2434H87.928L88.3067 86.0161Z" fill="#72523C"/>
<path d="M121.695 73.0585C120.856 72.641 120.056 72.1516 119.302 71.5956C118.899 71.2992 118.521 70.9681 118.175 70.606L114.088 69.7885C113.974 69.7654 113.859 69.7538 113.743 69.7541H108.682L110.775 65.5668L111.243 65.3672C110.866 65.2412 110.499 65.0852 110.146 64.9008C109.904 64.7689 109.676 64.6114 109.467 64.431C109.443 64.4654 109.396 64.4774 109.377 64.5153L106.758 69.7541H101.696C101.661 69.7565 101.626 69.7635 101.593 69.7748L99.1749 66.1744L98.9374 65.9042C98.8066 66.1881 98.681 66.4738 98.5295 66.7423C98.3781 67.0108 98.1853 67.2586 98.0132 67.5254L100.046 70.5596L94.2786 74.888L92.5369 73.1463C92.3149 73.3287 92.0894 73.5301 91.8691 73.6953C91.6488 73.8605 91.4045 74.0481 91.1807 74.2116L92.919 75.9688L83.8629 83.5224H81.0438C80.7393 83.5296 80.4422 83.6181 80.1833 83.7788L75.2698 81.0492C74.8671 81.2213 74.4712 81.3934 74.0651 81.5432C73.9476 81.5966 73.8269 81.6425 73.7036 81.6809C73.5315 81.7377 73.3594 81.7979 73.2045 81.8685L78.6344 84.8992L73.5866 88.6855H66.7025C66.0141 89.2786 65.3096 89.8523 64.5891 90.4065C63.9747 90.8798 63.3241 91.31 62.6959 91.7592L63.0711 91.9468C63.308 92.0649 63.5689 92.1267 63.8335 92.1275H74.1597C74.5321 92.1275 74.8944 92.0067 75.1923 91.7833L81.6169 86.9644H84.4859C84.8891 86.9646 85.2795 86.8233 85.5891 86.5651L87.1742 85.2434L93.2184 80.2077L95.8912 77.9789L102.269 73.1962H113.571L121.338 74.7451L121.992 74.8845C122.11 74.9072 122.229 74.9182 122.349 74.9172C122.661 74.9147 122.967 74.8263 123.233 74.6618C123.499 74.4974 123.714 74.263 123.856 73.9844C123.119 73.7173 122.397 73.4082 121.695 73.0585V73.0585Z" fill="#6D4D38"/>
<path d="M137.855 105.706C137.199 105.636 136.547 105.526 135.9 105.4L132.208 109.09L124.54 106.536C123.709 107.279 122.652 107.721 121.54 107.789L120.602 107.856L120.906 108.443C121.112 108.841 121.466 109.143 121.891 109.284L132.133 112.692C132.436 112.793 132.761 112.807 133.071 112.733C133.382 112.66 133.666 112.501 133.892 112.276L140.29 105.877C139.478 105.854 138.667 105.81 137.855 105.706V105.706Z" fill="#6D4D38"/>
<path d="M102.543 72.0041L100.515 78.9947L97.5023 77.2554L102.543 72.0041Z" fill="#EDF5FF"/>
<path d="M134.591 108.423L138.447 118.041L134.117 118.774L134.591 108.423Z" fill="#EDF5FF"/>
<path d="M149.101 61.326L159.264 63.3427L157.516 67.3715L149.101 61.326Z" fill="#EDF5FF"/>
<path d="M135.789 73.5994L127.855 80.9669L125.348 76.4642L135.789 73.5994Z" fill="#EDF5FF"/>
<path d="M71.3678 64.9656L60.559 64.3375L62.0739 59.4114L71.3678 64.9656Z" fill="#EDF5FF"/>
<path d="M144.654 94.6405L137.183 86.8045L141.652 84.238L144.654 94.6405Z" fill="#EDF5FF"/>
<path d="M75.5913 88.4233L79.4471 98.0407L75.117 98.7739L75.5913 88.4233Z" fill="#EDF5FF"/>
</g>
<path d="M61.4169 154.435H55.588C54.6121 154.435 53.821 153.575 53.821 152.513V149.131H63.1838V152.513C63.1838 153.575 62.3928 154.435 61.4169 154.435Z" fill="#FC6E6E"/>
<path opacity="0.2" d="M61.4169 154.435H55.588C54.6121 154.435 53.821 153.575 53.821 152.513V149.131H63.1838V152.513C63.1838 153.575 62.3928 154.435 61.4169 154.435Z" fill="black"/>
<path d="M107.608 154.435H101.779C100.803 154.435 100.012 153.575 100.012 152.513V149.131H109.375V152.513C109.375 153.575 108.584 154.435 107.608 154.435Z" fill="#FC6E6E"/>
<path opacity="0.2" d="M107.608 154.435H101.779C100.803 154.435 100.012 153.575 100.012 152.513V149.131H109.375V152.513C109.375 153.575 108.584 154.435 107.608 154.435Z" fill="black"/>
<path d="M109.375 149.132H53.821C51.1782 149.132 48.8004 147.385 47.8133 144.719L42.3912 130.073H120.805L115.383 144.719C114.396 147.385 112.018 149.132 109.375 149.132Z" fill="#FC6E6E"/>
<path opacity="0.1" d="M120.805 130.073H42.3909L47.8131 144.719C48.8004 147.385 51.1779 149.132 53.8208 149.132H65.1124C62.4695 149.132 60.0918 147.385 59.1047 144.719L55.5623 135.151H118.925L120.805 130.073Z" fill="black"/>
<path d="M124.457 130.074H38.7391C37.0522 130.074 35.6849 128.587 35.6849 126.753V124.498C35.6849 122.663 37.0524 121.176 38.7391 121.176H124.458C126.144 121.176 127.512 122.664 127.512 124.498V126.753C127.512 128.587 126.144 130.074 124.457 130.074Z" fill="#FC6E6E"/>
<path opacity="0.2" d="M47.631 126.752V124.497C47.631 122.662 48.9985 121.175 50.6851 121.175H38.7391C37.0522 121.175 35.6849 122.663 35.6849 124.497V126.752C35.6849 128.586 37.0524 130.073 38.7391 130.073H50.6853C48.9985 130.074 47.631 128.586 47.631 126.752Z" fill="black"/>
<defs>
<clipPath id="clip0">
<rect width="110.146" height="110.146" fill="white" transform="translate(48.3442 21.5652)"/>
</clipPath>
</defs>
</svg>
