<svg width="176" height="176" viewBox="0 0 176 176" fill="none" xmlns="http://www.w3.org/2000/svg">
<circle cx="88" cy="88" r="88" fill="#EDF5FF"/>
<path d="M127.512 100.714C127.074 100.034 126.863 99.2322 126.909 98.4247C125.322 98.336 123.745 98.1173 122.194 97.7707C121.683 97.7141 121.214 97.4611 120.886 97.065C120.851 97.0478 120.834 97.0134 120.817 96.9962C120.698 96.766 120.632 96.5123 120.623 96.2534C120.614 95.9944 120.663 95.7367 120.765 95.4989C120.969 95.0339 121.261 94.613 121.626 94.2598C121.814 94.0518 122.015 93.8563 122.228 93.6746C123.714 92.2082 125.466 91.0398 127.391 90.2325C128.155 89.9101 128.943 89.6511 129.749 89.4581C130.455 89.286 131.178 89.1655 131.9 89.045C132.761 88.9073 133.621 88.7697 134.482 88.718C135.562 88.6518 136.647 88.6979 137.717 88.8557C139.792 89.1567 141.753 89.9925 143.406 91.2811C145.06 92.5696 146.35 94.2664 147.149 96.2045C147.25 96.5365 147.413 96.8461 147.631 97.1167C147.808 97.2903 148.011 97.4354 148.233 97.5469C149.456 98.2879 150.473 99.3234 151.193 100.559C151.432 100.918 151.574 101.333 151.606 101.763C151.565 102.124 151.443 102.471 151.25 102.778C151.056 103.085 150.795 103.344 150.488 103.536C147.939 105.209 144.927 106.034 141.882 105.894C140.537 105.925 139.191 105.862 137.855 105.705C134.806 105.465 131.876 104.413 129.37 102.658C128.629 102.138 127.998 101.477 127.512 100.714V100.714Z" fill="#A8A447"/>
<path d="M122.435 107.649C122.141 107.722 121.842 107.768 121.54 107.787L106.98 108.837C104.266 109.006 101.613 109.716 99.1781 110.925C96.7427 112.134 94.5737 113.818 92.7985 115.878C92.2371 116.503 91.7571 117.197 91.3701 117.943L93.0911 119.664L96.5332 123.106L99.9752 126.548L103.417 129.99L86.207 126.548L70.7177 129.99H55.2284V128.269L70.1153 125.292C70.474 125.215 70.8099 125.056 71.0963 124.827H72.4387V121.385C72.5583 119.002 73.1552 116.666 74.1942 114.518C76.5176 109.51 81.9904 103.433 94.8121 102.454H111.868C113.007 102.456 114.135 102.232 115.186 101.794C116.238 101.357 117.193 100.715 117.994 99.9065L120.628 97.2905L120.886 97.0668C121.214 97.4628 121.683 97.7159 122.194 97.7724C123.745 98.119 125.322 98.3377 126.909 98.4264C126.863 99.2339 127.074 100.035 127.512 100.715V102.454L125.464 105.517C124.756 106.581 123.675 107.342 122.435 107.649V107.649Z" fill="#B58769"/>
<path d="M119.251 79.3918L127.391 90.2343C125.466 91.0416 123.714 92.21 122.228 93.6764L116.101 84.7959C115.684 83.9851 114.968 83.3681 114.105 83.0748L111.386 82.1627C110.677 81.9218 109.909 81.9218 109.2 82.1627L92.4716 87.7388C91.6864 88.0006 90.8332 87.9707 90.0683 87.6547C89.3034 87.3386 88.678 86.7575 88.3067 86.0178L87.928 85.2433H84.486L91.9897 78.9788L94.8122 81.8013L107.41 77.0684C108.183 76.7882 108.998 76.6426 109.82 76.6382H113.744C114.812 76.6382 115.866 76.887 116.822 77.365C117.778 77.8429 118.61 78.5369 119.251 79.3918V79.3918Z" fill="#B58769"/>
<path fill-rule="evenodd" clip-rule="evenodd" d="M119.302 71.5939C120.056 72.1498 120.856 72.6393 121.695 73.0568C123.858 74.1252 126.175 74.8509 128.562 75.208C131.901 75.6554 135.282 75.6901 138.63 75.3113C140.26 75.1565 141.793 75.7774 143.335 76.4016C144.707 76.9571 146.086 77.5152 147.545 77.5314C147.981 77.5143 148.419 77.5315 148.853 77.5831C149.267 77.6832 149.676 77.8096 150.074 77.9617C151.213 78.4416 152.49 78.4784 153.654 78.065C154.292 77.6963 154.843 77.1952 155.27 76.5955C155.679 76.0229 155.965 75.3731 156.113 74.6862C156.037 74.5654 155.961 74.4389 155.884 74.3115C155.429 73.5583 154.954 72.7727 154.558 72.9311C153.176 69.8041 150.965 67.1151 148.164 65.1555C147.929 64.3321 147.472 63.5891 146.844 63.0071C146.216 62.4251 145.44 62.0265 144.602 61.8545C144.063 60.5823 143.242 59.4488 142.202 58.5396C141.161 57.6304 139.928 56.969 138.595 56.6054C137.884 56.4549 137.182 56.2595 136.496 56.0202C135.652 55.5986 134.841 55.1154 134.069 54.5746C132.629 53.8069 131.07 53.2889 129.456 53.0429C127.68 52.7132 125.877 52.5461 124.07 52.5438C119.185 52.4232 114.395 53.8974 110.424 56.7431C110.12 56.9784 109.83 57.2295 109.553 57.4952C109.666 57.814 109.75 58.1429 109.802 58.4779C109.802 58.5018 109.799 58.5295 109.795 58.5592C109.79 58.5934 109.785 58.6303 109.785 58.6672C109.734 58.9593 109.629 59.2393 109.475 59.4933C109.036 60.1128 108.757 60.8319 108.663 61.5859C108.57 62.3399 108.666 63.1052 108.942 63.8131C109.243 64.2721 109.658 64.6456 110.147 64.8973C110.746 65.2017 111.374 65.4439 112.022 65.6202C112.844 65.8636 113.666 66.1131 114.484 66.3615C115.054 66.5345 115.622 66.707 116.187 66.8765C116.456 66.9278 116.702 67.0599 116.893 67.2552C117.048 67.551 117.102 67.8894 117.048 68.2189C117.144 68.9154 117.397 69.581 117.787 70.1656C118.178 70.7502 118.696 71.2385 119.302 71.5939ZM109.244 56.1464C109.242 54.387 110.642 52.724 112.143 51.5765C116.115 48.7317 120.906 47.2588 125.791 47.3807C125.794 47.3807 125.798 47.3807 125.801 47.3807C125.798 47.3807 125.794 47.3807 125.791 47.3807C120.906 47.2598 116.115 48.734 112.143 51.58C110.643 52.7267 109.244 54.3883 109.244 56.1464ZM156.268 67.6661C156.34 67.8708 156.404 68.078 156.459 68.2878C156.46 68.288 156.46 68.2883 156.46 68.2885C156.46 68.2883 156.46 68.288 156.459 68.2878C156.404 68.078 156.34 67.8708 156.268 67.6661ZM156.71 69.8472C156.645 69.3265 156.58 68.8783 156.52 68.5641C156.608 68.9891 156.671 69.4175 156.71 69.8472Z" fill="#D5BF4D"/>
<path d="M139.576 100.542C136.527 100.302 133.597 99.2503 131.091 97.4953C130.35 96.9751 129.719 96.3144 129.233 95.5506C128.795 94.8706 128.584 94.0691 128.63 93.2616C127.043 93.1729 125.466 92.9542 123.915 92.6076C123.794 92.5783 123.674 92.5491 123.555 92.5129C123.093 92.8772 122.65 93.2649 122.228 93.6746C122.015 93.8563 121.814 94.0518 121.626 94.2598C121.261 94.613 120.969 95.0339 120.765 95.4989C120.663 95.7368 120.614 95.9945 120.623 96.2534C120.632 96.5123 120.698 96.766 120.817 96.9962C120.834 97.0134 120.851 97.0479 120.886 97.0651C121.214 97.4611 121.683 97.7142 122.194 97.7707C123.745 98.1173 125.322 98.336 126.909 98.4247C126.863 99.2322 127.074 100.034 127.512 100.714C127.998 101.477 128.629 102.138 129.37 102.658C131.876 104.413 134.806 105.465 137.855 105.705C139.191 105.862 140.537 105.925 141.882 105.894C144.927 106.034 147.939 105.209 150.488 103.536C150.795 103.344 151.056 103.085 151.249 102.779C151.443 102.472 151.565 102.126 151.606 101.765C151.574 101.335 151.432 100.92 151.193 100.56C150.958 100.168 150.692 99.7956 150.398 99.4453C148.244 100.332 145.932 100.77 143.603 100.733C142.258 100.763 140.912 100.7 139.576 100.542V100.542Z" fill="#8A812D"/>
<path d="M146.472 72.9895C145.194 72.7212 143.961 72.2691 142.812 71.6471C140.746 70.4424 139.272 68.3565 137.155 67.2327C134.688 65.9247 131.744 66.0934 128.968 65.7973C126.192 65.5013 123.116 64.3913 122.104 61.7873C121.76 60.8735 121.646 59.7737 120.875 59.1714C120.334 58.8256 119.702 58.6462 119.06 58.6551C117.165 58.5065 115.262 58.4938 113.365 58.6172C112.178 58.7506 110.978 58.7205 109.799 58.5277C109.799 58.5742 109.785 58.6275 109.785 58.6843C109.734 58.9764 109.629 59.2565 109.475 59.5104C109.036 60.1299 108.757 60.849 108.663 61.603C108.57 62.357 108.666 63.1223 108.942 63.8302C109.243 64.2892 109.658 64.6627 110.147 64.9145C110.746 65.214 111.375 65.4516 112.022 65.6235C113.416 66.0366 114.811 66.4668 116.187 66.8799C116.456 66.9312 116.702 67.0633 116.893 67.2585C117.048 67.5544 117.102 67.8927 117.048 68.2223C117.144 68.9187 117.397 69.5843 117.787 70.1689C118.178 70.7535 118.696 71.2419 119.302 71.5972C120.056 72.1532 120.856 72.6426 121.695 73.0601C123.858 74.1285 126.175 74.8543 128.562 75.2114C131.901 75.6588 135.282 75.6935 138.63 75.3147C141.71 75.0221 144.447 77.5004 147.545 77.5348C147.981 77.5176 148.419 77.5349 148.853 77.5864C149.267 77.6865 149.676 77.813 150.074 77.965C151.213 78.4449 152.49 78.4817 153.654 78.0683C154.292 77.6996 154.843 77.1985 155.27 76.5988C155.698 75.9991 155.992 75.3147 156.133 74.5918C156.432 73.6174 155.591 74 155.591 73.5C155.091 72.5 155.053 72.8248 154.071 73.1479C151.572 73.7949 148.942 73.7401 146.472 72.9895Z" fill="#A8A447"/>
<path d="M80.1352 65.5099C81.0525 65.8972 81.8218 66.5701 82.7167 67.0193C83.8648 67.5672 85.1569 67.7377 86.4078 67.5061C87.6587 67.2745 88.8042 66.6529 89.68 65.7302C91.7005 63.5084 91.833 59.9699 94.0239 57.9133C95.9446 56.1097 98.8428 55.984 101.318 55.065C101.875 54.8823 102.39 54.5897 102.832 54.2045C103.607 53.1809 104.137 51.9934 104.381 50.7332C105.572 48.0651 107.731 45.9485 110.422 44.8111C111.771 44.2928 113.084 43.6839 114.351 42.9885C115.787 41.9433 117.342 41.071 118.982 40.3898C119.53 39.7013 120.115 38.5844 119.54 37.9803C118.967 37.4487 118.258 37.0855 117.492 36.9305C116.268 36.6 115.031 36.3247 113.787 36.0854C113.685 36.1973 113.291 35.905 112.591 36.5C111.284 37.6126 111.735 38.5041 110.091 39C108.453 39.4931 105.067 40.1349 103.591 41C101.76 42.2047 99.4707 43.3641 97.5913 44.5C92.9084 47.3328 88.0657 45.6251 83.3655 48.4425C82.252 49.1119 81.3003 50.0396 80.1593 50.654C78.9706 51.2697 77.9244 50.122 76.5913 50C75.2582 49.878 75.0913 48 73.5913 48.5C72.5913 48.8333 72.2807 49.099 72.0412 49.3133C71.4413 49.8499 70.8816 50.4297 70.3666 51.0481C69.3728 52.0553 68.5876 53.2487 68.056 54.56C67.5244 55.8713 67.2569 57.2746 67.2687 58.6895L67.2515 61.0989C67.2302 62.0092 67.4248 62.9116 67.8195 63.7321C68.2554 64.5494 68.7621 65.3268 69.334 66.0555C69.4648 66.2276 69.5973 66.3877 69.7315 66.5546C70.8013 66.5123 71.8637 66.3589 72.9017 66.0968C75.3025 65.5048 77.8651 64.5496 80.1352 65.5099Z" fill="#8A812D"/>
<path d="M118.907 40.4965C118.932 40.4656 118.958 40.4294 118.986 40.3967C117.345 41.078 115.791 41.9503 114.354 42.9955C113.087 43.6909 111.775 44.2998 110.425 44.8181C107.734 45.9555 105.575 48.0721 104.384 50.7401C104.14 52.0004 103.61 53.1878 102.836 54.2115C102.393 54.5966 101.878 54.8892 101.321 55.072C98.8514 55.991 95.948 56.1166 94.0273 57.9203C91.8364 59.9855 91.7039 63.5154 89.6834 65.7372C88.8076 66.6598 87.6621 67.2815 86.4112 67.5131C85.1603 67.7446 83.8682 67.5742 82.7201 67.0263C81.8304 66.5771 81.0611 65.9041 80.1386 65.5169C77.8685 64.5566 75.3059 65.5169 72.9103 66.0986C71.8723 66.3607 70.8098 66.5141 69.7401 66.5564C69.9243 66.787 70.1101 67.0263 70.2891 67.2448C71.9473 69.1862 73.9266 70.8284 76.1406 72.0999C76.409 72.2252 76.6273 72.4374 76.7602 72.7022C76.8149 72.9566 76.8266 73.2184 76.7946 73.4767C76.7959 73.9849 76.932 74.4836 77.189 74.922C77.446 75.3604 77.8147 75.7228 78.2575 75.9722C79.0659 76.5445 80.064 76.7831 81.0438 76.6382L84.4687 76.6554C87.2101 76.5852 89.8356 75.535 91.8691 73.6953C92.351 73.3338 92.8329 72.9208 93.332 72.4905C95.3924 70.8979 97.1524 68.9508 98.5295 66.7406C99.4892 65.0404 99.982 63.1166 99.958 61.1644C99.958 61.1644 107.307 61.2849 109.802 58.4796C109.725 57.986 109.58 57.5053 109.372 57.0512C108.77 54.9687 110.387 52.9207 112.143 51.5783C116.115 48.7329 122.346 50.7401 125.791 47.3807V45.6596C125.791 40.4965 118.907 40.4965 118.907 40.4965Z" fill="#5E6026"/>
<path d="M122.194 97.7707C121.683 97.7141 121.214 97.4611 120.886 97.0651L120.628 97.2905L118.034 99.8721L119.908 100.676C120.229 100.813 120.501 101.045 120.687 101.34C120.873 101.635 120.965 101.98 120.951 102.329C120.936 102.678 120.816 103.014 120.606 103.293C120.397 103.572 120.107 103.78 119.776 103.891L118.907 104.175L96.5332 105.896C96.5332 105.896 82.7649 107.617 82.7649 119.664C82.7649 120.626 82.4237 121.557 81.8019 122.291C81.1802 123.025 80.3182 123.514 79.3693 123.672L72.4387 124.827H71.0963C70.8099 125.056 70.474 125.215 70.1153 125.292L55.2284 128.269V129.99H70.7177L86.207 126.548L103.417 129.99L99.9752 126.548L96.5332 123.106L93.0911 119.664L91.3701 117.943C91.7571 117.197 92.2371 116.503 92.7985 115.878C94.5737 113.818 96.7427 112.134 99.1781 110.925C101.613 109.716 104.266 109.006 106.98 108.837L121.54 107.787C121.8 107.771 122.058 107.735 122.312 107.679C123.603 107.392 124.732 106.616 125.464 105.515L127.512 102.454V100.715C127.074 100.035 126.863 99.2339 126.909 98.4264C125.322 98.3372 123.745 98.1179 122.194 97.7707V97.7707Z" fill="#81614B"/>
<path d="M88.3067 86.0161C88.678 86.7558 89.3034 87.3369 90.0683 87.653C90.8332 87.9691 91.6864 87.9989 92.4716 87.7372L109.2 82.161C109.909 81.9201 110.677 81.9201 111.386 82.161L114.105 83.0732C114.968 83.3664 115.684 83.9835 116.101 84.7942L122.228 93.6747C123.714 92.2083 125.466 91.0399 127.391 90.2327L125.171 87.2742L123.774 87.9729C123.387 88.1645 122.942 88.2035 122.527 88.0824C122.113 87.9612 121.759 87.6887 121.536 87.319L119.815 84.4586C118.366 82.0424 116.083 80.2399 113.397 79.3909C110.71 78.5419 107.806 78.7051 105.231 79.8497L93.0911 85.2434L94.8122 81.8013L91.9897 78.9788L84.486 85.2434H87.928L88.3067 86.0161Z" fill="#81614B"/>
<path d="M121.695 73.0584C120.856 72.641 120.056 72.1515 119.302 71.5956C118.899 71.2991 118.521 70.968 118.175 70.606L114.088 69.7885C113.974 69.7653 113.859 69.7538 113.743 69.7541H108.682L110.775 65.5668L111.243 65.3671C110.866 65.2411 110.499 65.0852 110.146 64.9008C109.904 64.7689 109.676 64.6113 109.467 64.4309C109.443 64.4653 109.396 64.4774 109.377 64.5152L106.758 69.7541H101.696C101.661 69.7564 101.626 69.7634 101.593 69.7747L99.1749 66.1743L98.9374 65.9041C98.8066 66.1881 98.681 66.4738 98.5295 66.7423C98.3781 67.0107 98.1853 67.2586 98.0132 67.5253L100.046 70.5595L94.2786 74.8879L92.5369 73.1462C92.3149 73.3286 92.0894 73.53 91.8691 73.6952C91.6488 73.8604 91.4045 74.048 91.1807 74.2115L92.919 75.9687L83.8629 83.5223H81.0438C80.7393 83.5296 80.4422 83.6181 80.1833 83.7787L75.2698 81.0492C74.8671 81.2213 74.4712 81.3934 74.0651 81.5431C73.9476 81.5965 73.8269 81.6425 73.7036 81.6808C73.5315 81.7376 73.3594 81.7978 73.2045 81.8684L78.6344 84.8991L73.5866 88.6854H66.7025C66.0141 89.2786 65.3096 89.8522 64.5891 90.4064C63.9747 90.8797 63.3241 91.31 62.6959 91.7592L63.0711 91.9467C63.308 92.0648 63.5689 92.1266 63.8335 92.1275H74.1597C74.5321 92.1275 74.8944 92.0067 75.1923 91.7832L81.6169 86.9644H84.4859C84.8891 86.9646 85.2795 86.8233 85.5891 86.5651L87.1742 85.2433L93.2184 80.2076L95.8912 77.9789L102.269 73.1961H113.571L121.338 74.745L121.992 74.8844C122.11 74.9072 122.229 74.9181 122.349 74.9171C122.661 74.9146 122.967 74.8263 123.233 74.6618C123.499 74.4973 123.714 74.263 123.856 73.9843C123.119 73.7172 122.397 73.4081 121.695 73.0584Z" fill="#7D604D"/>
<path d="M137.855 105.706C137.199 105.636 136.547 105.526 135.9 105.4L132.208 109.09L124.54 106.536C123.709 107.279 122.652 107.721 121.54 107.789L120.602 107.856L120.906 108.443C121.112 108.841 121.466 109.143 121.891 109.284L132.133 112.692C132.436 112.793 132.761 112.807 133.071 112.733C133.382 112.66 133.666 112.501 133.892 112.276L140.29 105.877C139.478 105.854 138.667 105.81 137.855 105.706V105.706Z" fill="#7D604D"/>
<path d="M61.4169 154.435H55.588C54.6121 154.435 53.821 153.575 53.821 152.513V149.131H63.1838V152.513C63.1838 153.575 62.3928 154.435 61.4169 154.435Z" fill="#FC6E6E"/>
<path opacity="0.2" d="M61.4169 154.435H55.588C54.6121 154.435 53.821 153.575 53.821 152.513V149.131H63.1838V152.513C63.1838 153.575 62.3928 154.435 61.4169 154.435Z" fill="black"/>
<path d="M107.608 154.435H101.779C100.803 154.435 100.012 153.575 100.012 152.513V149.131H109.375V152.513C109.375 153.575 108.584 154.435 107.608 154.435Z" fill="#FC6E6E"/>
<path opacity="0.2" d="M107.608 154.435H101.779C100.803 154.435 100.012 153.575 100.012 152.513V149.131H109.375V152.513C109.375 153.575 108.584 154.435 107.608 154.435Z" fill="black"/>
<path d="M109.375 149.132H53.821C51.1782 149.132 48.8004 147.385 47.8133 144.719L42.3912 130.073H120.805L115.383 144.719C114.396 147.385 112.018 149.132 109.375 149.132Z" fill="#FC6E6E"/>
<path opacity="0.1" d="M120.805 130.073H42.3909L47.8131 144.719C48.8004 147.385 51.1779 149.132 53.8208 149.132H65.1124C62.4695 149.132 60.0918 147.385 59.1047 144.719L55.5623 135.151H118.925L120.805 130.073Z" fill="black"/>
<path d="M124.457 130.074H38.7391C37.0522 130.074 35.6849 128.587 35.6849 126.753V124.498C35.6849 122.663 37.0524 121.176 38.7391 121.176H124.458C126.144 121.176 127.512 122.664 127.512 124.498V126.753C127.512 128.587 126.144 130.074 124.457 130.074Z" fill="#FC6E6E"/>
<path opacity="0.2" d="M47.631 126.752V124.497C47.631 122.662 48.9985 121.175 50.6851 121.175H38.7391C37.0522 121.175 35.6849 122.663 35.6849 124.497V126.752C35.6849 128.586 37.0524 130.073 38.7391 130.073H50.6853C48.9985 130.074 47.631 128.586 47.631 126.752Z" fill="black"/>
<path d="M82.5608 108.332L60.9388 116.493L59.6204 105.527L82.5608 108.332Z" fill="#EDF5FF"/>
<path d="M102.543 72.0044L100.515 78.995L97.5023 77.2557L102.543 72.0044Z" fill="#EDF5FF"/>
<path d="M100.091 69.0002L99.2253 66.0002L100.957 66.0002L100.091 69.0002Z" fill="#EDF5FF"/>
<path d="M108.62 68.0637L106.617 65.6682L108.202 64.9693L108.62 68.0637Z" fill="#EDF5FF"/>
<path d="M114.293 72.2468L118.081 74.2226L116 76.1632L114.293 72.2468Z" fill="#EDF5FF"/>
<path d="M108.884 105.926L105.904 115.37L102.834 113.766L108.884 105.926Z" fill="#EDF5FF"/>
<path d="M116.407 81.5447L120.262 91.162L115.932 91.8953L116.407 81.5447Z" fill="#EDF5FF"/>
<path d="M134.591 108.424L138.447 118.041L134.117 118.774L134.591 108.424Z" fill="#EDF5FF"/>
<path d="M143.187 63.534L153.388 61.7205L153.223 66.1091L143.187 63.534Z" fill="#EDF5FF"/>
<path d="M135.789 73.5996L127.855 80.9671L125.348 76.4644L135.789 73.5996Z" fill="#EDF5FF"/>
<path d="M75.3678 68.9655L64.559 68.3374L66.0739 63.4114L75.3678 68.9655Z" fill="#EDF5FF"/>
<path d="M144.654 94.6407L137.183 86.8047L141.652 84.2382L144.654 94.6407Z" fill="#EDF5FF"/>
<path d="M75.5913 88.4236L79.4471 98.041L75.117 98.7742L75.5913 88.4236Z" fill="#EDF5FF"/>
<path d="M78.6713 83.9938L68.4763 85.8438L68.6258 81.4546L78.6713 83.9938Z" fill="#EDF5FF"/>
</svg>
