<svg width="176" height="177" viewBox="0 0 176 177" fill="none" xmlns="http://www.w3.org/2000/svg">
<circle cx="88" cy="88.9901" r="88" fill="#3A85FF"/>
<circle cx="88" cy="89" r="88" fill="#EDF5FF"/>
<path d="M106.983 86.4917C106.891 86.5628 106.781 86.6062 106.665 86.6169C106.55 86.6276 106.434 86.6051 106.331 86.552L104.595 85.657C104.504 85.6105 104.403 85.5875 104.302 85.59C104.2 85.5926 104.1 85.6207 104.012 85.6717C103.924 85.7227 103.85 85.795 103.797 85.882C103.744 85.969 103.714 86.0679 103.709 86.1697L103.532 90.0073C103.528 90.1024 103.502 90.1952 103.456 90.2786C99.4186 97.5434 94.0205 97.037 91.4931 96.2862C90.6569 96.0376 89.9207 95.5313 89.3892 94.8396C89.3182 94.746 89.2493 94.6487 89.1843 94.5478C89.1457 94.4858 89.1054 94.4218 89.0689 94.3562C87.8304 92.1852 86.344 87.4276 90.367 79.9814C91.3513 78.1651 92.4896 76.4364 93.7693 74.8146C93.9853 74.5384 94.2047 74.2699 94.422 74.007C98.8041 68.7384 103.607 65.8535 105.164 65.0009C105.231 64.9642 105.305 64.9411 105.382 64.933C105.458 64.9249 105.535 64.9319 105.609 64.9537C105.682 64.9754 105.751 65.0115 105.811 65.0598C105.87 65.1081 105.92 65.1676 105.957 65.2351L106.835 66.8455C106.884 66.9359 106.956 67.0119 107.043 67.0656C107.131 67.1194 107.231 67.1491 107.333 67.1517C107.436 67.1544 107.538 67.1298 107.628 67.0806C107.718 67.0314 107.793 66.9592 107.847 66.8714L109.875 63.5406C109.972 63.3794 110.108 63.2446 110.269 63.1484C113.197 61.3933 116.65 60.7264 120.021 61.2651C120.65 61.3653 121.226 61.6808 121.649 62.1579C122.071 62.635 122.316 63.244 122.34 63.8811C122.639 73.8605 109.201 84.7603 106.983 86.4917V86.4917Z" fill="#8C881F"/>
<path d="M110.948 69.257C106.168 72.5159 100.111 77.3864 94.9996 83.8216L95.3095 83.7178C95.6384 83.6068 95.9827 83.8561 95.9199 84.1582C95.1057 88.2123 92.9419 91.871 89.7815 94.5376C89.6561 94.6451 89.5252 94.7459 89.3892 94.8396C89.3182 94.7459 89.2493 94.6486 89.1843 94.5478C89.1457 94.4858 89.1054 94.4218 89.0689 94.3561C88.9619 94.1684 88.8531 93.9601 88.7461 93.7338C88.4392 94.376 88.1423 95.0263 87.863 95.6885L89.4524 101.07C94.5643 87.0286 104.68 76.3496 111.693 70.2205C111.809 70.118 111.882 69.9752 111.897 69.8209C111.911 69.6666 111.867 69.5124 111.772 69.3898C111.677 69.2671 111.539 69.1851 111.386 69.1605C111.233 69.1358 111.077 69.1704 110.948 69.257V69.257Z" fill="#C7DD43"/>
<path d="M93.5391 84.3102C93.1681 84.4362 92.8009 84.1124 92.9511 83.7937C93.7606 82.0747 95.3994 78.1274 94.8558 75.3389C94.8134 75.1361 94.7565 74.9366 94.6856 74.7419C94.6241 74.564 94.5357 74.3171 94.422 74.0069C94.2047 74.2699 93.9853 74.5384 93.7693 74.8145C92.4895 76.4364 91.3513 78.165 90.367 79.9814C86.6918 86.7839 87.6148 91.3413 88.7461 93.7338C90.4515 90.205 92.5495 86.88 95.0004 83.8216L93.5391 84.3102Z" fill="#5C6814"/>
<path d="M89.1843 94.5477C89.2493 94.6486 89.3182 94.7459 89.3892 94.8395C89.5251 94.7458 89.6561 94.645 89.7815 94.5375C92.9419 91.8709 95.1057 88.2122 95.9199 84.1581C95.9827 83.856 95.6384 83.6068 95.3095 83.7177L94.9996 83.8215C92.5488 86.8797 90.4509 90.2046 88.7455 93.7331C88.8526 93.9594 88.9614 94.1677 89.0683 94.3554C89.1054 94.4217 89.1457 94.4857 89.1843 94.5477V94.5477Z" fill="#C1B43A"/>
<path d="M89.5953 94.0248C91.2224 92.4286 93.3319 89.6185 94.1126 85.3083C94.1231 85.2507 94.118 85.1914 94.0979 85.1364C94.0777 85.0815 94.0433 85.0329 93.9982 84.9956C93.953 84.9584 93.8988 84.9338 93.841 84.9245C93.7832 84.9152 93.724 84.9215 93.6694 84.9427L92.3785 85.448C92.3187 85.4715 92.2533 85.477 92.1905 85.4636C92.1276 85.4503 92.07 85.4188 92.025 85.373C91.9799 85.3272 91.9492 85.2692 91.9368 85.2061C91.9245 85.1431 91.9309 85.0777 91.9554 85.0183C92.5527 83.5751 93.7639 80.262 93.383 77.934C93.3534 77.7656 93.3133 77.5993 93.263 77.4359C92.6507 75.3543 88.262 61.6343 77.3246 55.634C76.8544 55.3738 76.3339 55.2172 75.7981 55.1747C75.2624 55.1323 74.7237 55.205 74.2184 55.388C73.713 55.5709 73.2527 55.8599 72.8682 56.2355C72.4838 56.6111 72.1842 57.0646 71.9896 57.5656C70.7582 60.7433 69.3373 65.5112 69.8526 69.6335C69.864 69.7228 69.8975 69.8079 69.95 69.881L73.2458 74.5047C73.2908 74.5672 73.3174 74.641 73.3227 74.7178C73.328 74.7946 73.3118 74.8713 73.2758 74.9394C73.2399 75.0075 73.1857 75.0642 73.1193 75.1031C73.0529 75.1421 72.9769 75.1617 72.9 75.1598L70.8182 75.1184C70.7584 75.1172 70.699 75.129 70.6442 75.1529C70.5893 75.1769 70.5403 75.2124 70.5005 75.257C70.4607 75.3017 70.431 75.3545 70.4135 75.4117C70.3959 75.4689 70.391 75.5292 70.399 75.5885C70.6432 77.4221 71.7189 84.1262 74.8941 88.8136C74.8941 88.8136 77.2568 92.515 85.2709 95.0545C86.0173 95.2915 86.8141 95.3208 87.5759 95.1394C88.3378 94.958 89.0358 94.5727 89.5953 94.0248V94.0248Z" fill="#8C881F"/>
<path d="M84.9902 75.2876C85.3013 73.7824 85.758 72.3109 86.3538 70.894C86.3842 70.8204 86.3866 70.7383 86.3605 70.663C86.3345 70.5878 86.2819 70.5247 86.2125 70.4857C86.1432 70.4466 86.0619 70.4343 85.9841 70.451C85.9063 70.4677 85.8373 70.5123 85.7901 70.5764C84.8393 71.8851 84.0452 73.3007 83.4243 74.7944C82.1375 71.6183 80.807 68.678 79.5602 66.0929C79.5016 65.9774 79.4012 65.8887 79.2794 65.8449C79.1577 65.801 79.0238 65.8053 78.9051 65.8569C78.7864 65.9084 78.6918 66.0034 78.6408 66.1223C78.5897 66.2413 78.5861 66.3752 78.6305 66.4968C88.6457 92.5528 88.158 113.442 88.158 113.442L89.8135 112.397C91.7319 102.149 89.0348 90.1525 85.3338 79.8006C84.8137 78.3549 84.695 76.7954 84.9902 75.2876V75.2876Z" fill="#C7DD43"/>
<path d="M120.628 90.3575C119.088 91.3191 115.834 93.5475 114.612 95.916C114.547 96.0381 114.448 96.1388 114.327 96.2058C114.206 96.2728 114.068 96.3032 113.93 96.2935L112.871 96.2259C112.741 96.2178 112.612 96.2448 112.496 96.3042C112.38 96.3637 112.282 96.4532 112.213 96.5635C112.144 96.6738 112.106 96.8008 112.103 96.9309C112.1 97.0611 112.132 97.1896 112.196 97.303L113.036 98.7912C113.093 98.8922 113.125 99.0055 113.129 99.1215C113.133 99.2376 113.109 99.3529 113.059 99.4577C112.024 101.612 110.792 103.567 109.192 104.674C109.083 104.749 108.95 104.781 108.819 104.764L106.793 104.522C106.707 104.512 106.619 104.522 106.537 104.552C106.456 104.582 106.382 104.631 106.323 104.695C106.264 104.759 106.221 104.836 106.197 104.92C106.173 105.004 106.17 105.092 106.187 105.178L106.603 107.264C106.63 107.398 106.605 107.537 106.535 107.654C106.464 107.771 106.353 107.858 106.222 107.897C104.365 108.458 97.6053 110.082 95.6415 104.86C95.6415 104.86 104.454 100.143 110.683 92.5295C111.413 91.6342 112.364 90.9443 113.441 90.5275C114.903 89.9623 117.172 89.487 120.482 89.7599C120.55 89.765 120.615 89.7916 120.667 89.8357C120.719 89.8799 120.756 89.9394 120.772 90.0057C120.788 90.0721 120.783 90.1418 120.757 90.205C120.731 90.2682 120.686 90.3216 120.628 90.3575V90.3575Z" fill="#8C881F"/>
<path d="M81.5175 101.001L88.1724 105.187L87.7919 107.948L79.5654 101.785L81.5175 101.001Z" fill="#8C881F"/>
<path d="M89.6059 110.855C90.9522 108.754 95.6404 104.861 95.6404 104.861L98.2835 105.75C98.2835 105.75 91.6492 110.884 90.2939 115.965L89.6059 110.855Z" fill="#8C881F"/>
<path d="M93.5586 123.42L81.8634 122.882L84.0928 111.504C85.6645 109.385 85.9808 105.739 86.005 101.739L87.2231 95.521C87.649 93.3457 90.5117 93.4775 90.7358 95.6828L92.0243 108.337C91.7095 109.529 92.7409 116.437 93.3823 121.69L93.5586 123.42Z" fill="#C7DD43"/>
<path d="M93.3822 121.69L84.0927 111.504L86.005 101.739L92.0242 108.337L93.3822 121.69Z" fill="#8C881F"/>
<path d="M67.8186 155.435H61.9897C61.0138 155.435 60.2228 154.574 60.2228 153.513V150.131H69.5856V153.513C69.5856 154.574 68.7945 155.435 67.8186 155.435Z" fill="#FC6E6E"/>
<path opacity="0.2" d="M67.8186 155.435H61.9897C61.0138 155.435 60.2228 154.574 60.2228 153.513V150.131H69.5856V153.513C69.5856 154.574 68.7945 155.435 67.8186 155.435Z" fill="black"/>
<path d="M114.01 155.435H108.181C107.205 155.435 106.414 154.574 106.414 153.513V150.131H115.777V153.513C115.777 154.574 114.986 155.435 114.01 155.435Z" fill="#FC6E6E"/>
<path opacity="0.2" d="M114.01 155.435H108.181C107.205 155.435 106.414 154.574 106.414 153.513V150.131H115.777V153.513C115.777 154.574 114.986 155.435 114.01 155.435Z" fill="black"/>
<path d="M115.777 150.131H60.2227C57.5798 150.131 55.2021 148.385 54.215 145.719L48.7928 131.073H127.207L121.785 145.719C120.798 148.385 118.42 150.131 115.777 150.131Z" fill="#FC6E6E"/>
<path opacity="0.1" d="M127.207 131.073H48.7927L54.2149 145.719C55.2022 148.385 57.5797 150.131 60.2226 150.131H71.5142C68.8713 150.131 66.4936 148.385 65.5065 145.719L61.9641 136.151H125.327L127.207 131.073Z" fill="black"/>
<path d="M130.859 131.074H45.1408C43.454 131.074 42.0867 129.587 42.0867 127.752V125.498C42.0867 123.663 43.4542 122.176 45.1408 122.176H130.859C132.546 122.176 133.913 123.663 133.913 125.498V127.752C133.913 129.587 132.546 131.074 130.859 131.074Z" fill="#FC6E6E"/>
<path opacity="0.2" d="M54.0327 127.751V125.497C54.0327 123.662 55.4002 122.175 57.0869 122.175H45.1408C43.454 122.175 42.0867 123.662 42.0867 125.497V127.751C42.0867 129.586 43.4542 131.073 45.1408 131.073H57.0871C55.4002 131.073 54.0327 129.586 54.0327 127.751Z" fill="black"/>
<path d="M85.8497 76.361L83.5794 29.3008L105.678 33.6214L85.8497 76.361Z" fill="#EDF5FF"/>
<path d="M114.85 84.7576L109.705 52.4L131.803 56.7206L114.85 84.7576Z" fill="#EDF5FF"/>
<path d="M104.983 74.3604L97.7905 42.3954L120.119 45.3021L104.983 74.3604Z" fill="#EDF5FF"/>
<path d="M105.778 82.8548L146.165 60.4013L150.818 72.5295L105.778 82.8548Z" fill="#EDF5FF"/>
<path d="M104.778 99.8548L145.165 77.4013L149.818 89.5295L104.778 99.8548Z" fill="#EDF5FF"/>
<path d="M88.1785 118.661L79.7449 97.7025L74.2447 100.878L88.1785 118.661Z" fill="#EDF5FF"/>
<path d="M89.7446 102.75L91.8409 98.3868L92.9723 99.1426L89.7446 102.75Z" fill="#EDF5FF"/>
</svg>
