<svg id="Слой_1" data-name="Слой 1" xmlns="http://www.w3.org/2000/svg" viewBox="0 0 512.16 461.01"><defs><style>.cls-1{fill:#ea443f;}.cls-2{fill:#fe7e68;}.cls-3{fill:#fe5a4e;}.cls-4{fill:#fe9979;}.cls-5{fill:#febdab;}</style></defs><title>heart_FALLBACK</title><path class="cls-1" d="M523.32,675.41a560.56,560.56,0,0,1-66-39c-48.51-32.94-91.92-71.5-127.78-118-24.26-31.49-44.24-65.43-54.43-104.36-1.2-4.61-2.3-9.25-3.17-13.93-.44-2.42-.8-4.84-1.13-7.26a194.65,194.65,0,0,1,.1-52.38,107.8,107.8,0,0,1,5.47-22.85,153,153,0,0,1,16.48-32.37q4.29-6.42,9.15-12.42a153.66,153.66,0,0,1,58.06-44.54,152.08,152.08,0,0,1,54.57-12.72,164.61,164.61,0,0,1,29.77,1.22q7.41,1,14.71,2.68c6.93,1.61,13.81,3.95,19.37,7.89,1.72,1.22,1.06,2.81-.5,3.93-1.8,1.28-4.21,1.29-6.18,2.19a137.29,137.29,0,0,0-40.52,28.72C408.42,285.38,393,313,384.7,344.63c-5.38,20.42-8.15,41.18-6.85,62.23a274.09,274.09,0,0,0,18.54,82.93c17.49,44.94,42.75,85.21,72.94,122.59A674.63,674.63,0,0,0,520,668.05C521.92,669.93,525.39,671.56,523.32,675.41Z" transform="translate(-269.12 -215.33)"/><path class="cls-2" d="M622.37,218c9.84-1.35,19.62-.11,29.25,1.44,36.63,5.9,67.39,22.82,91.86,50.73a149.83,149.83,0,0,1,26.1,42.47,171.09,171.09,0,0,1,7.72,24.13c5.89,24.34,4.86,48.76-.59,73s-15.64,46.47-28,67.79c-24.57,42.34-56.78,78.31-93.2,110.69a607.17,607.17,0,0,1-114.17,80c-1.3.7-2.68,1.28-4,1.91-1.21-2.59-1.26-3.05,1.64-5,5.22-3.57,10.46-7.09,15.56-10.83q21.76-15.93,42-33.73C605,613,613,605,621.19,597.21c9.9-9.32,18.64-19.89,27.48-30.29a471.22,471.22,0,0,0,37.16-50.7c20.79-32.36,36.42-66.94,44.69-104.62,3.07-14,5.06-28.23,4.56-42.57-1.37-39.71-12.48-76.12-38.6-106.84-18.29-21.51-41.42-35.25-69.28-40.73C625.16,221.06,622.17,221.6,622.37,218Z" transform="translate(-269.12 -215.33)"/><path class="cls-3" d="M622.37,218c1.67,1.48,3.8.95,5.73,1.33,29.12,5.75,52.76,20.56,71.65,43.27C719.24,286,730.29,313.17,735.09,343a183.83,183.83,0,0,1-2.53,70.37c-7.58,33.45-20.84,64.56-38.52,93.9a488.29,488.29,0,0,1-53,71.85c-28,31.58-59.56,58.94-93.81,83.38-3.4,2.42-7.8,3.55-10,7.6-3.3,1.86-6.6,3.73-9.91,5.57-1.39.77-2.8,1.11-4.08-.26a8.37,8.37,0,0,0-2.63-3.58c-12.53-12.42-24.78-25.09-36.51-38.31q-18.74-21.12-35.33-43.92a462.32,462.32,0,0,1-42-69.66c-14-28.94-24.73-59-29.13-91-7.89-57.44,4.24-110,40.53-155.87a143.8,143.8,0,0,1,49.63-40.27c3.29-1.62,7.33-3.85,10.61-5.5,14.11,5.24,26.25,13.18,38.09,22.42,8.91,6.94,8.61,6.85,17.82-.15C560.4,229.85,589.58,218.82,622.37,218Z" transform="translate(-269.12 -215.33)"/><path class="cls-4" d="M710.5,359a25.94,25.94,0,0,1-26.45,26.08A26.38,26.38,0,0,1,657.92,359c0-14.45,12.14-26.88,26.17-26.78A26.26,26.26,0,0,1,710.5,359Z" transform="translate(-269.12 -215.33)"/><path class="cls-5" d="M670.81,314.59a13.54,13.54,0,0,1-12.88-13.83c.35-6.85,6.88-12.85,13.69-12.56s13,7,12.69,13.63C684,308.78,677.6,314.82,670.81,314.59Z" transform="translate(-269.12 -215.33)"/></svg>