<svg width="22" height="22" viewBox="0 0 22 22" fill="none" xmlns="http://www.w3.org/2000/svg">
<circle cx="11" cy="11" r="10.5" fill="white" stroke="white"/>
<path fill-rule="evenodd" clip-rule="evenodd" d="M2 11C2 6.02944 6.02944 2 11 2C15.9706 2 20 6.02944 20 11C20 15.9706 15.9706 20 11 20C6.02944 20 2 15.9706 2 11ZM9.78995 14.2899C10.07 14.5699 10.5299 14.5599 10.7999 14.2699L15.2199 9.46988C15.4599 9.19988 15.4399 8.78988 15.1799 8.54988C14.9199 8.30988 14.4999 8.31988 14.2599 8.58988L10.2699 12.9299L7.86995 10.5299C7.61995 10.2799 7.19995 10.2799 6.94995 10.5299C6.69995 10.7799 6.69995 11.1999 6.94995 11.4499L9.78995 14.2899Z" fill="#32C665"/>
</svg>
