<svg width="18" height="18" viewBox="0 0 18 18" fill="none" xmlns="http://www.w3.org/2000/svg">
<path d="M9 13.65C9.41421 13.65 9.75 13.3142 9.75 12.9C9.75 12.4858 9.41421 12.15 9 12.15C8.58579 12.15 8.25 12.4858 8.25 12.9C8.25 13.3142 8.58579 13.65 9 13.65Z" fill="#7B7E86"/>
<path d="M9 10.7962C9.35898 10.7962 9.65 10.5052 9.65 10.1462V4.99997C9.65 4.64099 9.35898 4.34997 9 4.34997C8.64102 4.34997 8.35 4.64099 8.35 4.99997V10.1462C8.35 10.5052 8.64102 10.7962 9 10.7962Z" fill="#7B7E86"/>
<path fill-rule="evenodd" clip-rule="evenodd" d="M9 0C4.02944 0 0 4.02944 0 9C0 13.9706 4.02944 18 9 18C13.9706 18 18 13.9706 18 9C18 4.02944 13.9706 0 9 0ZM1.3 9C1.3 4.74741 4.74741 1.3 9 1.3C13.2526 1.3 16.7 4.74741 16.7 9C16.7 13.2526 13.2526 16.7 9 16.7C4.74741 16.7 1.3 13.2526 1.3 9Z" fill="#7B7E86"/>
</svg>
