<svg width="15" height="13" viewBox="0 0 15 13" fill="none" xmlns="http://www.w3.org/2000/svg">
<path d="M7.74252 12.1482C7.61252 12.2882 7.44252 12.3582 7.26252 12.3582C7.10252 12.3582 6.95252 12.3082 6.82252 12.1882L0.782518 6.69817C0.472518 6.41817 0.472518 5.93817 0.782518 5.65817L6.82252 0.168174C7.09252 -0.0718255 7.50252 -0.0518256 7.74252 0.208174C7.98252 0.478174 7.97252 0.888175 7.70252 1.12817L2.86687 5.52817H13.7625C14.1215 5.52817 14.4125 5.81919 14.4125 6.17817C14.4125 6.53716 14.1215 6.82817 13.7625 6.82817H2.86687L7.70252 11.2282C7.96252 11.4682 7.98252 11.8782 7.74252 12.1482Z" fill="#7B7E86"/>
</svg>
