<svg width="16" height="16" viewBox="0 0 16 16" fill="none" xmlns="http://www.w3.org/2000/svg">
<path d="M7.99987 3.40003C5.45936 3.40003 3.39988 5.45951 3.39988 8.00002C3.39988 10.5405 5.45936 12.6 7.99987 12.6C10.5404 12.6 12.5999 10.5405 12.5999 8.00002C12.5999 5.45951 10.5404 3.40003 7.99987 3.40003Z" fill="#FCD462"/>
<path d="M5.82016 12.06C5.62014 11.42 5.48016 10.74 5.46017 10.04C5.34018 7.26002 7.22017 4.80004 9.66016 3.72001C9.14016 3.52 8.58016 3.4 8.00017 3.4C5.46017 3.4 3.40019 5.45999 3.40019 7.99999C3.40019 9.76005 4.38018 11.2801 5.82016 12.06Z" fill="#F6C358"/>
<path d="M8.00017 16C8.38018 16 8.68018 15.7 8.68018 15.32L8.68018 14.2C8.68018 13.82 8.38019 13.52 8.00017 13.52C7.62016 13.52 7.32017 13.82 7.32017 14.2L7.32017 15.32C7.32017 15.7 7.62016 16 8.00017 16Z" fill="#F6C358"/>
<path d="M8.00017 2.48004C8.38018 2.48004 8.68018 2.18005 8.68018 1.80004L8.68018 0.680027C8.68018 0.300015 8.38019 2.47693e-05 8.00017 2.47361e-05C7.62016 2.47029e-05 7.32017 0.300015 7.32017 0.680027L7.32017 1.80004C7.32017 2.18005 7.62016 2.48004 8.00017 2.48004Z" fill="#F6C358"/>
<path d="M-8.2852e-06 8.00005C-8.31842e-06 8.38006 0.299979 8.68005 0.679986 8.68005L1.79999 8.68005C2.17999 8.68005 2.47998 8.38006 2.47998 8.00005C2.47998 7.62004 2.17999 7.32005 1.79999 7.32005L0.679986 7.32005C0.299979 7.32005 -8.25198e-06 7.62004 -8.2852e-06 8.00005Z" fill="#F6C358"/>
<path d="M13.52 8.00005C13.52 8.38006 13.82 8.68005 14.2 8.68005L15.32 8.68005C15.7 8.68005 16 8.38006 16 8.00005C16 7.62004 15.7 7.32005 15.32 7.32005L14.2 7.32005C13.82 7.32005 13.52 7.62004 13.52 8.00005Z" fill="#F6C358"/>
<path d="M2.34016 13.6601C2.60017 13.9201 3.04015 13.9201 3.30016 13.6601L4.10016 12.8601C4.36017 12.6001 4.36017 12.1601 4.10016 11.9001C3.84014 11.6401 3.40017 11.6401 3.14016 11.9001L2.34016 12.7001C2.08015 12.96 2.08015 13.4 2.34016 13.6601Z" fill="#F6C358"/>
<path d="M11.9 4.10006C12.16 4.36008 12.6 4.36008 12.86 4.10006L13.66 3.30007C13.92 3.04006 13.92 2.60008 13.66 2.34007C13.4 2.08005 12.96 2.08005 12.7 2.34007L11.9 3.14006C11.64 3.40008 11.64 3.82006 11.9 4.10006Z" fill="#F6C358"/>
<path d="M2.34016 2.34007C2.08015 2.60008 2.08015 3.04006 2.34016 3.30007L3.14016 4.10006C3.40017 4.36008 3.84014 4.36008 4.10016 4.10006C4.36017 3.84005 4.36017 3.40008 4.10016 3.14006L3.30016 2.34007C3.04015 2.08005 2.60017 2.08005 2.34016 2.34007Z" fill="#F6C358"/>
<path d="M11.9 11.9001C11.64 12.1601 11.64 12.6001 11.9 12.8601L12.7 13.6601C12.96 13.9201 13.4 13.9201 13.66 13.6601C13.92 13.4 13.92 12.9601 13.66 12.7001L12.86 11.9001C12.6 11.6401 12.18 11.6401 11.9 11.9001Z" fill="#F6C358"/>
<circle cx="10.1284" cy="8.18213" r="0.452175" fill="white" fill-opacity="0.6"/>
<circle cx="10.8108" cy="7.09004" r="0.23002" fill="white" fill-opacity="0.6"/>
<path fill-rule="evenodd" clip-rule="evenodd" d="M9.021 12.4864C10.9755 11.4976 12.3155 9.47046 12.3155 7.13035C12.3155 6.82569 12.2928 6.52634 12.249 6.23389C12.4753 6.77769 12.6002 7.37426 12.6002 8.00002C12.6002 10.1897 11.0702 12.0221 9.021 12.4864Z" fill="white" fill-opacity="0.6"/>
</svg>
