<svg width="16" height="19" viewBox="0 0 16 19" fill="none" xmlns="http://www.w3.org/2000/svg">
<path fill-rule="evenodd" clip-rule="evenodd" d="M8.4499 0.65C8.4499 0.291015 8.15889 0 7.7999 0C7.44092 0 7.1499 0.291015 7.1499 0.65V2.69371C5.22158 2.95484 3.61717 4.36293 3.1399 6.29L1.37494 13.3499H0.65C0.291015 13.3499 0 13.6409 0 13.9999C0 14.3588 0.291015 14.6499 0.65 14.6499H14.95C15.309 14.6499 15.6 14.3588 15.6 13.9999C15.6 13.6409 15.309 13.3499 14.95 13.3499H14.2249L12.4599 6.29C11.9826 4.36293 10.3782 2.95484 8.4499 2.69371V0.65Z" fill="#7B7E86"/>
<path d="M5.83448 16.0202C5.4756 16.0287 5.19159 16.3266 5.20014 16.6855C5.23102 17.983 6.37354 18.92 7.64995 18.92C8.92636 18.92 10.0689 17.983 10.0998 16.6855C10.1083 16.3266 9.8243 16.0287 9.46542 16.0202C7.96127 15.9844 6.78564 15.9976 5.83448 16.0202Z" fill="#7B7E86"/>
</svg>
