<svg width="18" height="18" viewBox="0 0 18 18" fill="none" xmlns="http://www.w3.org/2000/svg">
<path fill-rule="evenodd" clip-rule="evenodd" d="M6.2255 1.5354C6.34727 0.658095 7.09734 0.00494385 7.98305 0.00494385H9.89653C10.7715 0.00494385 11.5159 0.642753 11.65 1.50738C11.8234 2.62549 13.0152 3.29682 14.078 2.86531C14.8986 2.53211 15.8393 2.85512 16.2822 3.62217L17.2389 5.27929C17.6764 6.03703 17.4962 7.00057 16.8145 7.54902C15.9329 8.25827 15.9474 9.62605 16.8525 10.3307C17.5514 10.8748 17.742 11.851 17.2991 12.618L16.3424 14.2751C15.9049 15.0329 14.9804 15.3586 14.1645 15.0424C13.0551 14.6125 11.8323 15.3184 11.65 16.4942C11.5159 17.3588 10.7715 17.9966 9.89653 17.9966H7.98305C7.09734 17.9966 6.34727 17.3435 6.2255 16.4662C6.0678 15.33 4.89052 14.6336 3.83549 15.0424C3.01965 15.3586 2.09511 15.0329 1.65763 14.2751L0.700889 12.618C0.258031 11.851 0.448643 10.8748 1.14753 10.3307C2.05262 9.62605 2.06713 8.25827 1.18553 7.54902C0.503794 7.00057 0.323615 6.03703 0.761099 5.27928L1.71784 3.62217C2.16069 2.85512 3.10137 2.53211 3.92203 2.86531C4.93977 3.27853 6.07449 2.6234 6.2255 1.5354ZM9 13C11.2091 13 13 11.2092 13 9.00002C13 6.79088 11.2091 5.00002 9 5.00002C6.79086 5.00002 5 6.79088 5 9.00002C5 11.2092 6.79086 13 9 13Z" fill="#7B7E86"/>
</svg>
