<svg width="20" height="18" viewBox="0 0 20 18" fill="none" xmlns="http://www.w3.org/2000/svg">
<path d="M9.08076 0.919243C9.58844 0.411562 10.4116 0.411563 10.9192 0.919244L19 9C19.2716 9.23479 19.3014 9.64527 19.0666 9.91683C18.8318 10.1884 18.4213 10.2182 18.1497 9.98339L17 8.83365V16.7C17 17.418 16.418 18 15.7 18H12.7C12.3134 18 12 17.6866 12 17.3V12.3C12 11.582 11.418 11 10.7 11H9.3C8.58203 11 8 11.582 8 12.3V17.3C8 17.6866 7.6866 18 7.3 18H4.3C3.58203 18 3 17.418 3 16.7V8.83365L1.85026 9.98339C1.5787 10.2182 1.16823 10.1884 0.933433 9.91683C0.698639 9.64527 0.728439 9.23479 0.999995 9L4 6L9.08076 0.919243Z" fill="#7B7E86"/>
</svg>
