<svg width="16" height="18" viewBox="0 0 16 18" fill="none" xmlns="http://www.w3.org/2000/svg">
<path fill-rule="evenodd" clip-rule="evenodd" d="M3.56453 4.96802C3.26362 2.32002 5.33494 0 7.99999 0C10.665 0 12.7363 2.32002 12.4354 4.96803L12.1734 7.27398C11.9322 9.39657 10.1362 11 7.99999 11C5.86374 11 4.06778 9.39656 3.82657 7.27398L3.56453 4.96802Z" fill="#7B7E86"/>
<path fill-rule="evenodd" clip-rule="evenodd" d="M0.289226 16.6984C0.899276 13.9532 3.33416 12 6.14635 12H9.85363C12.6658 12 15.1007 13.9532 15.7107 16.6984L15.8107 17.1481C15.9078 17.5853 15.5752 18 15.1274 18H0.872617C0.424793 18 0.0921394 17.5853 0.189286 17.1481L0.289226 16.6984Z" fill="#7B7E86"/>
</svg>
