<svg width="22" height="24" viewBox="0 0 22 24" fill="none" xmlns="http://www.w3.org/2000/svg">
<path d="M10.0525 14.7309C9.16406 15.7693 8.30398 16.3835 8.30398 16.3835C8.30398 16.3835 3.20961 15.2467 2.24128 11.3293C2.22316 11.2582 2.207 11.1858 2.1923 11.1128C1.3621 7.02004 2.51067 2.98608 4.98022 0.000778198C8.41761 1.78755 11.0478 5.05498 11.878 9.14772C12.3414 11.4311 11.1747 13.4197 10.0525 14.7309Z" fill="#696C73"/>
<path d="M4.98667 10.5451C5.81045 14.6057 8.26526 16.3555 8.30332 16.3825C8.22192 16.3642 3.01597 15.1726 2.19218 11.112C1.36188 7.01941 2.51085 2.9857 4.9804 0C4.21485 2.64 4.15636 6.45247 4.98667 10.5451Z" fill="black" fill-opacity="0.2"/>
<path d="M7.43425 12.4664C7.26312 12.4664 7.10996 12.3462 7.07464 12.1721L5.33127 3.57899C5.29091 3.38013 5.41938 3.18627 5.61824 3.14596C5.817 3.1055 6.01096 3.23407 6.05127 3.43293L7.7946 12.0259C7.83496 12.2248 7.70648 12.4187 7.50763 12.459C7.48304 12.464 7.45845 12.4664 7.43425 12.4664Z" fill="black" fill-opacity="0.2"/>
<path d="M10.0525 14.7306C9.16399 15.7689 8.3039 16.3831 8.3039 16.3831C8.3039 16.3831 3.20954 15.2463 2.24121 11.3289C5.10162 11.446 7.90864 12.599 10.0525 14.7306Z" fill="black" fill-opacity="0.2"/>
<path d="M10.3314 10.0137C7.43063 13.0177 9.45397 18.0362 9.45397 18.0362C9.45397 18.0362 14.5402 19.8829 17.441 16.8789C20.3417 13.8749 21.5425 9.85601 21.0658 6.01121C17.2067 5.66919 13.2322 7.00966 10.3314 10.0137Z" fill="#696C73"/>
<path d="M12.3834 11.9943C9.50526 14.9748 9.45535 17.989 9.45462 18.0357C9.42351 17.9582 7.45405 12.9941 10.3321 10.0136C13.2329 7.00954 17.2072 5.66941 21.0668 6.01129C18.458 6.8772 15.2841 8.99028 12.3834 11.9943Z" fill="black" fill-opacity="0.2"/>
<path d="M12.1262 15.6361C12.0338 15.6361 11.9413 15.6014 11.8699 15.5318C11.7246 15.3903 11.7216 15.1576 11.8632 15.0124L15.7472 11.0278L17.0618 9.66635L18.3132 8.33298C18.452 8.18506 18.6845 8.17771 18.8324 8.31652C18.9804 8.45533 18.9877 8.68783 18.8489 8.83575L17.5957 10.171C17.5946 10.1723 17.5933 10.1736 17.5921 10.1749L16.2745 11.5394L12.3893 15.5252C12.3174 15.599 12.2218 15.6361 12.1262 15.6361Z" fill="black" fill-opacity="0.2"/>
<path d="M3.51426 22.1332C5.86611 24.9911 10.4896 23.7169 10.4896 23.7169C10.4896 23.7169 12.6298 19.4251 10.278 16.5672C7.92619 13.7093 4.50884 12.2457 1.07522 12.2767C0.383928 15.6402 1.16246 19.2753 3.51426 22.1332Z" fill="#32C665"/>
<path d="M5.46621 20.5275C7.79964 23.363 10.4487 23.7117 10.4897 23.7171C10.4184 23.7366 5.8482 24.9689 3.51476 22.1333C1.16296 19.2754 0.384722 15.6405 1.07597 12.2766C1.57463 14.6613 3.1144 17.6696 5.46621 20.5275Z" fill="black" fill-opacity="0.2"/>
</svg>
