<svg width="177" height="176" viewBox="0 0 177 176" fill="none" xmlns="http://www.w3.org/2000/svg">
<circle cx="88.5718" cy="88" r="88" fill="#EDF5FF"/>
<path d="M80.8377 85.7373H83.4867H85.0709H93.875H105.718H116.444C119.612 85.7373 122.053 88.5421 121.586 91.6586L115.301 130.615C115.041 132.51 113.743 134.069 112.054 134.718C111.457 134.952 110.834 135.082 110.159 135.082H101.666H88.6809H75.6955H67.2031C66.5279 135.082 65.9046 134.952 65.3073 134.718C63.6192 134.069 62.3466 132.51 62.0609 130.615L55.776 91.6586C55.3086 88.5421 57.7498 85.7373 60.9182 85.7373H80.8377Z" fill="#ECEDED"/>
<path d="M116.444 85.7373H105.718H93.875H93.7971C96.9655 85.7373 99.4068 88.5421 98.9393 91.6586L92.6544 130.615C92.3947 132.51 91.0962 134.069 89.4081 134.718C88.8107 134.952 88.1874 135.082 87.5122 135.082H88.6809H101.666H110.159C110.834 135.082 111.457 134.952 112.054 134.718C113.743 134.069 115.041 132.51 115.301 130.615L121.586 91.6586C122.053 88.5421 119.612 85.7373 116.444 85.7373V85.7373Z" fill="#C4C4C4"/>
<path fill-rule="evenodd" clip-rule="evenodd" d="M137.676 71.1471C137.676 71.1471 143.244 76.3696 148.303 78.2485C148.477 78.3155 148.626 78.4337 148.73 78.5873C148.834 78.741 148.89 78.9227 148.888 79.1085C148.887 79.2942 148.829 79.4751 148.722 79.6271C148.615 79.779 148.464 79.8948 148.29 79.9591C147.409 80.2874 146.434 80.6804 145.493 81.1203C143.702 81.9752 142.122 83.2129 140.863 84.7457C139.152 86.8059 136.764 88.1911 134.125 88.6539C134.125 88.6539 139.871 93.9738 141.274 99.653C141.79 101.357 142.618 102.95 143.716 104.352C143.855 104.527 143.943 104.737 143.97 104.959C143.996 105.181 143.961 105.406 143.867 105.609C143.773 105.812 143.624 105.984 143.437 106.107C143.25 106.23 143.033 106.299 142.809 106.305C138.478 106.46 130.438 106.307 125.915 103.463C123.912 102.203 122.273 101.327 120.964 100.718L113.89 94.4495L115.515 98.7257C115.078 98.5332 114.651 98.3195 114.234 98.0852C113.039 97.4317 111.957 96.59 111.029 95.5925C110.906 95.4462 110.751 95.3299 110.575 95.2525C110.4 95.1752 110.209 95.1388 110.018 95.1461C109.827 95.1534 109.639 95.2042 109.471 95.2947C109.302 95.3852 109.156 95.5129 109.044 95.6683C107.892 97.2969 105.764 99.8296 102.716 101.557C100.44 102.847 99.3512 104.458 98.8359 105.799C98.1168 107.726 96.9005 109.429 95.3103 110.734C93.0531 112.552 90.1877 115.226 88.9942 117.876C87.8007 115.226 84.9353 112.552 82.6781 110.734C81.0877 109.428 79.8715 107.725 79.1528 105.797C78.6375 104.455 77.5485 102.845 75.2725 101.555C72.2245 99.8279 70.097 97.2952 68.9449 95.6666C68.8329 95.5113 68.687 95.3835 68.5181 95.293C68.3493 95.2025 68.1621 95.1517 67.9706 95.1444C67.7792 95.1371 67.5886 95.1735 67.4134 95.2509C67.2382 95.3282 67.0829 95.4445 66.9594 95.5908C66.0321 96.5884 64.95 97.43 63.7547 98.0836C62.6296 98.7158 61.4267 99.1986 60.1765 99.5196C58.8812 99.865 56.2753 100.82 52.0738 103.462C47.5511 106.305 39.5107 106.459 35.1793 106.304C34.9555 106.297 34.7378 106.229 34.5508 106.106C34.3637 105.983 34.2147 105.81 34.1205 105.607C34.0262 105.404 33.9905 105.179 34.0172 104.957C34.044 104.735 34.1323 104.525 34.272 104.35C35.3699 102.948 36.1979 101.354 36.714 99.6505C38.1168 93.9713 43.8626 88.6513 43.8626 88.6513C41.2245 88.189 38.8366 86.8048 37.1254 84.7457C35.8665 83.2128 34.286 81.975 32.4956 81.12C31.5545 80.6802 30.5794 80.2871 29.6986 79.9588C29.5239 79.8948 29.3729 79.7791 29.2656 79.6271C29.1584 79.4752 29.1001 79.2941 29.0985 79.1082C29.097 78.9222 29.1521 78.7402 29.2567 78.5864C29.3613 78.4326 29.5104 78.3144 29.684 78.2474C34.7428 76.3685 40.3109 71.146 40.3109 71.146C58.8705 54.3252 88.9942 54.8996 88.9942 54.8996C88.9942 54.8996 119.118 54.3252 137.676 71.1471Z" fill="#BCB738"/>
<path d="M102.741 152.814L88.6809 138.754L75.3683 152.066L71.696 148.394L86.8447 133.245C87.8602 132.23 89.5015 132.23 90.517 133.245L106.414 149.142L102.741 152.814Z" fill="#A57154"/>
<path d="M112.054 134.718V153.261C112.054 154.695 110.891 155.858 109.457 155.858H104.263C102.83 155.858 101.666 154.695 101.666 153.261V148.067V135.082H110.158C110.834 135.082 111.457 134.952 112.054 134.718Z" fill="#CF8A64"/>
<path d="M75.6955 148.067V153.261C75.6955 154.695 74.532 155.858 73.0984 155.858H67.9043C66.4707 155.858 65.3073 154.695 65.3073 153.261V134.718C65.9046 134.952 66.5279 135.082 67.2031 135.082H75.6955V148.067Z" fill="#CF8A64"/>
<path d="M112.054 134.718C111.457 134.952 110.834 135.082 110.159 135.082H101.666V140.764C104.292 140.764 106.419 142.891 106.419 145.517V155.858H109.457C110.891 155.858 112.054 154.695 112.054 153.261V134.718Z" fill="#A57154"/>
<path d="M65.3073 134.718V140.764H65.6838C68.3095 140.764 70.4365 142.891 70.4365 145.517V155.858H73.0984C74.532 155.858 75.6955 154.695 75.6955 153.261V148.067V135.082H67.2031C66.5279 135.082 65.9046 134.952 65.3073 134.718Z" fill="#A57154"/>
<path d="M66.6058 112.196C65.889 112.196 65.3072 111.615 65.3072 110.898V108.625C65.3072 107.909 65.889 107.327 66.6058 107.327C67.3226 107.327 67.9043 107.909 67.9043 108.625V110.898C67.9043 111.615 67.3226 112.196 66.6058 112.196Z" fill="#FBFBFB"/>
<path d="M66.6058 103.431C65.889 103.431 65.3073 102.849 65.3073 102.133V96.9384C65.3073 94.7907 67.0551 93.0428 69.2029 93.0428C69.9196 93.0428 70.5014 93.6246 70.5014 94.3414C70.5014 95.0582 69.9196 95.6399 69.2029 95.6399C68.4887 95.6399 67.9043 96.2217 67.9043 96.9384V102.133C67.9043 102.849 67.3226 103.431 66.6058 103.431Z" fill="#FBFBFB"/>
<path d="M103.926 74.6998C104.912 74.6998 105.712 73.9004 105.712 72.9143C105.712 71.9282 104.912 71.1288 103.926 71.1288C102.94 71.1288 102.141 71.9282 102.141 72.9143C102.141 73.9004 102.94 74.6998 103.926 74.6998Z" fill="#D3E951"/>
<path d="M75.6833 74.6998C76.6694 74.6998 77.4688 73.9004 77.4688 72.9143C77.4688 71.9282 76.6694 71.1288 75.6833 71.1288C74.6972 71.1288 73.8978 71.9282 73.8978 72.9143C73.8978 73.9004 74.6972 74.6998 75.6833 74.6998Z" fill="#D3E951"/>
<path d="M128.274 96.7749C129.26 96.7749 130.059 95.9028 130.059 94.8271C130.059 93.7513 129.26 92.8793 128.274 92.8793C127.288 92.8793 126.488 93.7513 126.488 94.8271C126.488 95.9028 127.288 96.7749 128.274 96.7749Z" fill="#D3E951"/>
<path d="M47.7648 96.7749C48.7509 96.7749 49.5503 95.9028 49.5503 94.8271C49.5503 93.7513 48.7509 92.8793 47.7648 92.8793C46.7787 92.8793 45.9793 93.7513 45.9793 94.8271C45.9793 95.9028 46.7787 96.7749 47.7648 96.7749Z" fill="#D3E951"/>
<path d="M134.919 81.3839C130.507 76.8865 123.323 79.4437 123.323 79.4437C123.323 79.4437 120.626 86.5759 125.039 91.0734C129.451 95.5709 139.298 95.7276 139.298 95.7276C139.298 95.7276 139.321 85.8806 134.919 81.3839V81.3839Z" fill="#C1CA5D"/>
<path d="M131.533 89.1002C133.454 91.0607 136.571 95.0699 139.288 95.7281C139.288 95.7281 129.441 95.5713 125.028 91.0841C120.615 86.5968 123.312 79.4544 123.312 79.4544C123.312 79.4544 126.187 78.4337 129.417 78.8133C128.884 81.099 128.3 85.7995 131.533 89.1002Z" fill="#97A540"/>
<path d="M85.9686 59.5081C91.1797 60.9847 92.2132 67.4645 92.2132 67.4645C92.2132 67.4645 87.9341 72.439 82.723 70.9624C77.5119 69.4858 73.3314 62.1143 73.3314 62.1143C73.3314 62.1143 80.7575 58.0315 85.9686 59.5081Z" fill="#C1CA5D"/>
<path d="M81.5402 65.2353C79.273 64.5929 74.9549 63.8994 73.3314 62.1143C73.3314 62.1143 77.5119 69.4858 82.723 70.9624C87.9341 72.439 92.2132 67.4645 92.2132 67.4645C92.2132 67.4645 91.7969 64.8699 90.176 62.592C88.668 63.9468 85.3639 66.3188 81.5402 65.2353Z" fill="#97A540"/>
<path d="M99.3174 62.0183C94.1767 59.8882 89.2215 64.4501 89.2215 64.4501C89.2215 64.4501 89.4955 71.1788 94.6362 73.3089C99.7769 75.439 107.834 72.1625 107.834 72.1625C107.834 72.1625 104.449 64.1513 99.3174 62.0183V62.0183Z" fill="#C1CA5D"/>
<path d="M99.2318 69.4606C101.47 70.3901 105.39 72.571 107.825 72.1668C107.825 72.1668 99.7681 75.4433 94.6303 73.3217C89.4926 71.2002 89.2156 64.4629 89.2156 64.4629C89.2156 64.4629 91.2 62.6393 93.9564 61.8313C94.3133 63.8733 95.4635 67.8955 99.2318 69.4606Z" fill="#97A540"/>
<path d="M89.249 101.59C85.0571 96.8405 88.1398 89.8127 88.1398 89.8127C88.1398 89.8127 95.496 87.6265 99.6879 92.3757C103.88 97.1249 103.329 107.021 103.329 107.021C103.329 107.021 93.4409 106.339 89.249 101.59Z" fill="#C1CA5D"/>
<path d="M97.2283 98.7575C99.052 100.824 102.861 104.238 103.329 107.021C103.329 107.021 103.88 97.1249 99.6879 92.3757C95.496 87.6265 88.1398 89.8127 88.1398 89.8127C88.1398 89.8127 86.9079 92.6282 87.0613 95.8944C89.4017 95.5158 94.1525 95.2727 97.2283 98.7575Z" fill="#97A540"/>
<path d="M77.7064 90.6757C81.4156 96.0232 89.1758 94.6706 89.1758 94.6706C89.1758 94.6706 93.163 87.8784 89.4539 82.531C85.7447 77.1835 75.7462 75.3092 75.7462 75.3092C75.7462 75.3092 74.0075 85.3309 77.7064 90.6757V90.6757Z" fill="#C1CA5D"/>
<path d="M82.4984 83.4099C80.8843 81.0794 78.4087 76.4546 75.7571 75.3113C75.7571 75.3113 85.7557 77.1857 89.4674 82.5229C93.1791 87.8601 89.1893 94.6625 89.1893 94.6625C89.1893 94.6625 86.0837 95.2009 82.8611 94.252C83.8019 92.0175 85.215 87.3334 82.4984 83.4099Z" fill="#97A540"/>
<g filter="url(#filter0_d)">
<path d="M108.025 50.8842C104.931 45.6931 98.8619 46.9084 98.8619 46.9084L98.4631 46.839C98.6168 45.9933 98.5859 45.1787 98.2464 44.5147C96.4845 40.9477 92.2518 40.8519 90.5152 42.9812L90.525 42.9492C90.525 42.9492 87.9014 38.7948 82.1273 40.5904C76.3533 42.3861 71.5036 51.7458 73.85 57.9509C76.202 64.1664 83.7657 62.5856 83.7657 62.5856C83.3637 63.2415 83.0591 63.9798 82.8888 64.7941C81.9752 69.3543 86.3558 70.7118 89.1226 68.7051C89.9129 68.1242 90.4288 67.153 90.777 66.0431C91.1253 64.9332 96.685 72.3924 102.576 69.3285C108.494 66.2903 111.125 56.0857 108.025 50.8842Z" fill="#FF96C1"/>
<path d="M83.2733 62.1637C83.2733 62.1637 76.3712 63.098 75.0087 59.198C73.6462 55.2981 75.9453 48.755 79.4868 46.819C79.4868 46.819 77.4594 54.7055 79.5704 56.1301C81.6918 57.5491 89.5472 54.9287 89.5472 54.9287L89.5092 57.6563L83.2733 62.1637Z" fill="black" fill-opacity="0.2"/>
<path d="M89.9513 54.781L80.9491 52.5961L91.6476 53.5845L89.9513 54.781Z" fill="black" fill-opacity="0.2"/>
<path d="M90.4696 59.4378C90.4696 59.4378 89.5531 67.0689 87.8365 67.8741C86.1144 68.6688 84.2514 65.7184 84.2514 65.7184C84.2514 65.7184 85.9996 66.612 86.5064 65.6993C87.0075 64.7762 89.7543 59.2015 89.7543 59.2015L90.4696 59.4378Z" fill="black" fill-opacity="0.2"/>
<path d="M92.824 55.1171C92.824 55.1171 97.1859 48.0673 96.8292 46.2866C96.462 44.5115 92.6031 43.9087 92.6031 43.9087C92.6031 43.9087 94.5377 45.4806 94.4276 46.5847C94.3174 47.6887 91.6426 53.6005 91.6426 53.6005L92.824 55.1171Z" fill="black" fill-opacity="0.2"/>
<path d="M91.7469 52.8199L92.6511 46.8989L92.7098 51.1832L92.2133 52.3115L91.6482 53.581" fill="black" fill-opacity="0.2"/>
<path d="M96.6411 50.2199C96.6411 50.2199 103.237 47.8531 105.674 53.4205C108.11 58.988 102.673 65.8051 102.673 65.8051C102.673 65.8051 104.358 62.0411 101.471 60.0375C98.5724 58.0395 94.8324 57.1055 94.8324 57.1055L94.2128 55.6119L96.6411 50.2199Z" fill="black" fill-opacity="0.2"/>
<path d="M95.7561 57.3771C95.7561 57.3771 96.0897 57.4354 96.5149 57.6448C96.6332 58.8241 96.2646 60.1687 94.3329 60.8559L93.1357 67.4354L90.6773 65.5834L91.6064 60.0131C92.6042 59.9483 93.7155 58.6453 94.8542 57.1015C95.2866 57.2275 95.5459 57.2913 95.7561 57.3771Z" fill="black" fill-opacity="0.2"/>
<path d="M92.9073 59.3083C94.2348 58.6027 94.739 56.9546 94.0334 55.6271C93.3278 54.2995 91.6796 53.7954 90.3521 54.501C89.0246 55.2066 88.5204 56.8547 89.226 58.1823C89.9316 59.5098 91.5798 60.0139 92.9073 59.3083Z" fill="#FFC95E"/>
<path d="M90.3519 54.501C89.913 54.7343 89.5665 55.0659 89.3223 55.4637C90.2656 55.4985 91.1573 56.0163 91.6295 56.9047C92.1017 57.793 92.0375 58.8323 91.5331 59.6232C91.9995 59.6433 92.4682 59.5416 92.9071 59.3083C94.2343 58.6029 94.7386 56.9543 94.0332 55.6271C93.3277 54.2998 91.6896 53.79 90.3519 54.501Z" fill="#FFA85B"/>
</g>
<g filter="url(#filter1_d)">
<path d="M146.631 77.0701C146.347 71.2871 140.666 69.5862 140.666 69.5862L140.36 69.3481C140.87 68.7018 141.21 67.9987 141.222 67.2843C141.335 63.4744 137.797 61.49 135.371 62.5105L135.393 62.4879C135.393 62.4879 135.042 57.7934 129.35 56.7162C123.657 55.639 115.346 61.3766 114.541 67.6812C113.736 73.9972 120.845 76.0609 120.845 76.0609C120.21 76.4351 119.621 76.9227 119.11 77.535C116.287 80.9822 119.382 84.1004 122.625 83.6469C123.555 83.5108 124.428 82.9212 125.222 82.1388C126.016 81.3563 127.365 90.1669 133.727 90.2236C140.099 90.3143 146.914 82.8645 146.631 77.0701Z" fill="white"/>
<path d="M120.618 75.4827C120.618 75.4827 114.359 73.1695 114.96 69.2574C115.561 65.3454 120.448 60.8437 124.315 60.7983C124.315 60.7983 119.054 66.5587 120.199 68.7131C121.355 70.8676 129.18 72.1829 129.18 72.1829L127.921 74.4735L120.618 75.4827Z" fill="black" fill-opacity="0.12"/>
<path d="M129.588 72.2397L122.954 66.3433L131.561 71.9902L129.588 72.2397Z" fill="black" fill-opacity="0.12"/>
<path d="M127.932 76.4125C127.932 76.4125 123.725 82.4563 121.911 82.3656C120.097 82.2635 119.847 78.9298 119.847 78.9298C119.847 78.9298 120.925 80.4719 121.764 79.9276C122.603 79.372 127.433 75.8909 127.433 75.8909L127.932 76.4125Z" fill="black" fill-opacity="0.12"/>
<path d="M131.867 73.8158C131.867 73.8158 138.727 69.813 139.226 68.1462C139.714 66.4793 136.72 64.2341 136.72 64.2341C136.72 64.2341 137.65 66.4339 137.06 67.3184C136.471 68.2029 131.549 72.0015 131.549 72.0015L131.867 73.8158Z" fill="black" fill-opacity="0.12"/>
<path d="M131.989 71.3881L135.416 66.7855L133.539 70.4364L132.612 71.1677L131.563 71.9876" fill="black" fill-opacity="0.12"/>
<path d="M137.298 71.3892C137.298 71.3892 143.943 72.353 143.501 78.1587C143.059 83.9644 135.393 87.2868 135.393 87.2868C135.393 87.2868 138.512 84.8602 136.97 81.8666C135.416 78.8731 132.672 76.4011 132.672 76.4011L132.819 74.859L137.298 71.3892Z" fill="black" fill-opacity="0.12"/>
<path d="M133.331 77.0462C133.331 77.0462 133.587 77.2455 133.853 77.6139C133.423 78.6648 132.506 79.6366 130.563 79.3493L126.592 84.3773L125.344 81.705L128.635 77.4103C129.509 77.8042 131.035 77.2015 132.692 76.4075C133.001 76.7085 133.192 76.8791 133.331 77.0462Z" fill="black" fill-opacity="0.12"/>
<path d="M130.053 77.399C131.493 77.399 132.661 76.2314 132.661 74.791C132.661 73.3506 131.493 72.183 130.053 72.183C128.612 72.183 127.445 73.3506 127.445 74.791C127.445 76.2314 128.612 77.399 130.053 77.399Z" fill="#FFC95E"/>
<path d="M130.053 72.183C129.576 72.183 129.134 72.3077 128.749 72.5345C129.531 72.9881 130.053 73.8272 130.053 74.791C130.053 75.7548 129.531 76.6053 128.749 77.0475C129.134 77.2743 129.576 77.399 130.053 77.399C131.493 77.399 132.661 76.2311 132.661 74.791C132.661 73.3509 131.504 72.183 130.053 72.183Z" fill="#FFA85B"/>
</g>
<g filter="url(#filter2_d)">
<path d="M96.6429 101.294C96.3666 95.658 90.8302 94.0004 90.8302 94.0004L90.5318 93.7683C91.0291 93.1384 91.3606 92.4532 91.3717 91.757C91.4822 88.044 88.0343 86.1101 85.6695 87.1047L85.6916 87.0826C85.6916 87.0826 85.349 82.5075 79.8015 81.4577C74.254 80.4079 66.1538 85.9996 65.3692 92.1438C64.5846 98.2991 71.5134 100.31 71.5134 100.31C70.8946 100.675 70.3199 101.15 69.8227 101.747C67.071 105.106 70.0879 108.145 73.2484 107.703C74.1546 107.571 75.0055 106.996 75.779 106.234C76.5526 105.471 77.8676 114.058 84.0671 114.113C90.2777 114.201 96.9192 106.941 96.6429 101.294Z" fill="white"/>
<path d="M71.2924 99.7468C71.2924 99.7468 65.1924 97.4924 65.7781 93.6799C66.3638 89.8674 71.1267 85.4802 74.895 85.436C74.895 85.436 69.7674 91.0498 70.8836 93.1495C72.0107 95.2491 79.6358 96.531 79.6358 96.531L78.4091 98.7633L71.2924 99.7468Z" fill="black" fill-opacity="0.12"/>
<path d="M80.0337 96.5863L73.569 90.8398L81.9565 96.3431L80.0337 96.5863Z" fill="black" fill-opacity="0.12"/>
<path d="M78.4202 100.653C78.4202 100.653 74.3204 106.543 72.5522 106.455C70.7841 106.355 70.541 103.106 70.541 103.106C70.541 103.106 71.5908 104.609 72.4086 104.079C73.2263 103.537 77.934 100.145 77.934 100.145L78.4202 100.653Z" fill="black" fill-opacity="0.12"/>
<path d="M82.2547 98.1223C82.2547 98.1223 88.9405 94.2214 89.4267 92.5969C89.9019 90.9725 86.9845 88.7844 86.9845 88.7844C86.9845 88.7844 87.8906 90.9283 87.316 91.7902C86.7414 92.6522 81.9453 96.3542 81.9453 96.3542L82.2547 98.1223Z" fill="black" fill-opacity="0.12"/>
<path d="M82.3734 95.7564L85.7136 91.2709L83.8845 94.8289L82.9807 95.5416L81.9585 96.3406" fill="black" fill-opacity="0.12"/>
<path d="M87.5482 95.7574C87.5482 95.7574 94.0239 96.6968 93.593 102.355C93.162 108.013 85.6916 111.251 85.6916 111.251C85.6916 111.251 88.7306 108.886 87.2277 105.968C85.7138 103.051 83.0395 100.642 83.0395 100.642L83.1831 99.139L87.5482 95.7574Z" fill="black" fill-opacity="0.12"/>
<path d="M83.6818 101.271C83.6818 101.271 83.9313 101.465 84.1901 101.824C83.7709 102.848 82.8777 103.795 80.9839 103.515L77.1135 108.415L75.8982 105.811L79.1053 101.625C79.9564 102.009 81.4436 101.422 83.059 100.648C83.3603 100.941 83.5461 101.108 83.6818 101.271Z" fill="black" fill-opacity="0.12"/>
<path d="M80.4866 101.614C81.8903 101.614 83.0282 100.476 83.0282 99.0727C83.0282 97.669 81.8903 96.531 80.4866 96.531C79.0828 96.531 77.9449 97.669 77.9449 99.0727C77.9449 100.476 79.0828 101.614 80.4866 101.614Z" fill="#FFC95E"/>
<path d="M80.4866 96.531C80.0225 96.531 79.5915 96.6526 79.2157 96.8736C79.9782 97.3156 80.4866 98.1334 80.4866 99.0727C80.4866 100.012 79.9782 100.841 79.2157 101.272C79.5915 101.493 80.0225 101.614 80.4866 101.614C81.89 101.614 83.0283 100.476 83.0283 99.0727C83.0283 97.6692 81.9011 96.531 80.4866 96.531Z" fill="#FFA85B"/>
</g>
<path d="M124.54 63.6096L129.371 34.2778L142.431 39.8694L124.54 63.6096Z" fill="#EDF5FF"/>
<path d="M126.991 96.2904L148.144 117.177L136.035 124.608L126.991 96.2904Z" fill="#EDF5FF"/>
<path d="M75.928 84.293L60.2269 87.6529L60.3017 80.6008L75.928 84.293Z" fill="#BCB738"/>
<path d="M140.627 74.6817L135.82 45.6455L147.299 46.0164L140.627 74.6817Z" fill="#EDF5FF"/>
<path d="M53.8657 73.3924L27.5646 86.6008L24.5119 75.5288L53.8657 73.3924Z" fill="#EDF5FF"/>
<path d="M99.7644 50.2893L126.427 37.143L129.482 51.0172L99.7644 50.2893Z" fill="#EDF5FF"/>
<path d="M58.1324 97.8132L30.3885 118.741L23.8448 103.476L58.1324 97.8132Z" fill="#EDF5FF"/>
<path d="M61.5387 64.9164L28.197 90.4003L20.0917 71.4925L61.5387 64.9164Z" fill="#EDF5FF"/>
<defs>
<filter id="filter0_d" x="53.3558" y="22" width="76.1212" height="76.759" filterUnits="userSpaceOnUse" color-interpolation-filters="sRGB">
<feFlood flood-opacity="0" result="BackgroundImageFix"/>
<feColorMatrix in="SourceAlpha" type="matrix" values="0 0 0 0 0 0 0 0 0 0 0 0 0 0 0 0 0 0 127 0" result="hardAlpha"/>
<feOffset dy="5"/>
<feGaussianBlur stdDeviation="7.5"/>
<feComposite in2="hardAlpha" operator="out"/>
<feColorMatrix type="matrix" values="0 0 0 0 0 0 0 0 0 0 0 0 0 0 0 0 0 0 0.2 0"/>
<feBlend mode="normal" in2="BackgroundImageFix" result="effect1_dropShadow"/>
<feBlend mode="normal" in="SourceGraphic" in2="effect1_dropShadow" result="shape"/>
</filter>
<filter id="filter1_d" x="94.4771" y="48.5852" width="62.1622" height="63.6393" filterUnits="userSpaceOnUse" color-interpolation-filters="sRGB">
<feFlood flood-opacity="0" result="BackgroundImageFix"/>
<feColorMatrix in="SourceAlpha" type="matrix" values="0 0 0 0 0 0 0 0 0 0 0 0 0 0 0 0 0 0 127 0" result="hardAlpha"/>
<feOffset dx="-5" dy="7"/>
<feGaussianBlur stdDeviation="7.5"/>
<feComposite in2="hardAlpha" operator="out"/>
<feColorMatrix type="matrix" values="0 0 0 0 0 0 0 0 0 0 0 0 0 0 0 0 0 0 0.12 0"/>
<feBlend mode="normal" in2="BackgroundImageFix" result="effect1_dropShadow"/>
<feBlend mode="normal" in="SourceGraphic" in2="effect1_dropShadow" result="shape"/>
</filter>
<filter id="filter2_d" x="53.3073" y="81.3301" width="61.344" height="63.7836" filterUnits="userSpaceOnUse" color-interpolation-filters="sRGB">
<feFlood flood-opacity="0" result="BackgroundImageFix"/>
<feColorMatrix in="SourceAlpha" type="matrix" values="0 0 0 0 0 0 0 0 0 0 0 0 0 0 0 0 0 0 127 0" result="hardAlpha"/>
<feOffset dx="3" dy="16"/>
<feGaussianBlur stdDeviation="7.5"/>
<feComposite in2="hardAlpha" operator="out"/>
<feColorMatrix type="matrix" values="0 0 0 0 0 0 0 0 0 0 0 0 0 0 0 0 0 0 0.08 0"/>
<feBlend mode="normal" in2="BackgroundImageFix" result="effect1_dropShadow"/>
<feBlend mode="normal" in="SourceGraphic" in2="effect1_dropShadow" result="shape"/>
</filter>
</defs>
</svg>
