<svg width="177" height="176" viewBox="0 0 177 176" fill="none" xmlns="http://www.w3.org/2000/svg">
<circle cx="88.5718" cy="88" r="88" fill="#EDF5FF"/>
<path d="M105.152 69.2404C101.554 79.554 91.8249 87.2426 87.7359 90.1308L86.6871 89.6462C87.7558 69.2752 104.702 41.6368 104.702 41.6368C104.702 41.6368 104.35 44.7915 104.92 50.1043C105.141 52.0635 105.483 54.3495 106.017 56.85C106.205 57.7086 106.332 58.5605 106.418 59.4138C106.446 59.7604 106.473 60.107 106.484 60.4456C106.629 63.5173 106.118 66.4736 105.16 69.2232L105.152 69.2404Z" fill="#B0AD5A"/>
<path d="M86.687 89.646C86.0509 89.352 85.4294 88.9813 84.8304 88.5166C82.2057 81.1485 81.4946 74.8316 81.9987 69.452C82.9857 58.8288 88.7621 51.838 94.2394 47.5258C99.6176 43.2928 104.702 41.6366 104.702 41.6366C104.702 41.6366 87.7557 69.275 86.687 89.646Z" fill="#D0DA64"/>
<path d="M94.1867 47.4597L94.2396 47.5258C88.7622 51.8381 82.9858 58.8289 81.9989 69.452C79.5686 64.8235 79.4824 60.0891 83.0023 52.4728C87.7698 42.1572 84.071 32.1018 84.071 32.1018C93.0646 35.215 94.7479 41.7308 94.1867 47.4597V47.4597Z" fill="#B0AD5A"/>
<path d="M81.9989 69.4519C81.4948 74.8316 82.2059 81.1485 84.8305 88.5166C77.3013 82.8669 72.5862 65.6652 74.6662 56.966C76.4837 49.3766 84.071 32.1017 84.071 32.1017C84.071 32.1017 87.7698 42.1571 83.0023 52.4727C79.4823 60.089 79.5686 64.8234 81.9989 69.4519Z" fill="#D0DA64"/>
<path d="M102.011 149.085L88.851 135.925L76.3911 148.385L72.9541 144.948L87.1325 130.77C88.0829 129.819 89.6191 129.819 90.5696 130.77L105.448 145.648L102.011 149.085Z" fill="#A57154"/>
<path d="M110.728 132.148V149.503C110.728 150.845 109.639 151.934 108.297 151.934H103.435C102.094 151.934 101.005 150.845 101.005 149.503V144.642V132.488H108.953C109.585 132.488 110.168 132.366 110.728 132.148Z" fill="#CF8A64"/>
<path d="M76.6975 144.642V149.503C76.6975 150.845 75.6085 151.934 74.2668 151.934H69.4053C68.0636 151.934 66.9746 150.845 66.9746 149.503V132.148C67.5337 132.366 68.117 132.488 68.749 132.488H76.6975V144.642Z" fill="#CF8A64"/>
<path d="M110.728 132.148C110.169 132.366 109.585 132.488 108.953 132.488H101.005V137.806C103.462 137.806 105.453 139.797 105.453 142.255V151.934H108.297C109.639 151.934 110.728 150.845 110.728 149.503V132.148Z" fill="#A57154"/>
<path d="M66.9746 132.148V137.806H67.3271C69.7845 137.806 71.7753 139.797 71.7753 142.255V151.934H74.2668C75.6085 151.934 76.6975 150.845 76.6975 149.503V144.642V132.488H68.749C68.117 132.488 67.5337 132.366 66.9746 132.148Z" fill="#A57154"/>
<path d="M81.5103 86.3043H83.9897H85.4724H93.7126H104.797H114.836C117.801 86.3043 120.086 88.9295 119.648 91.8464L113.766 128.307C113.523 130.082 112.308 131.54 110.728 132.148C110.169 132.367 109.585 132.488 108.953 132.488H101.005H88.8511H76.6975H68.749C68.117 132.488 67.5337 132.367 66.9746 132.148C65.3946 131.54 64.2036 130.082 63.9362 128.307L58.0538 91.8464C57.6163 88.9295 59.9012 86.3043 62.8667 86.3043H81.5103Z" fill="#ECEDED"/>
<path d="M114.836 86.3043H104.797H93.7126H93.6397C96.6052 86.3043 98.89 88.9295 98.4525 91.8464L92.5702 128.307C92.3271 130.082 91.1117 131.54 89.5318 132.148C88.9727 132.367 88.3893 132.488 87.7573 132.488H88.8512H101.005H108.953C109.585 132.488 110.169 132.367 110.728 132.148C112.308 131.54 113.523 130.082 113.766 128.307L119.648 91.8464C120.086 88.9295 117.801 86.3043 114.836 86.3043V86.3043Z" fill="#C4C4C4"/>
<path d="M68.19 111.069C67.5191 111.069 66.9746 110.524 66.9746 109.853V107.726C66.9746 107.055 67.5191 106.511 68.19 106.511C68.8609 106.511 69.4053 107.055 69.4053 107.726V109.853C69.4053 110.524 68.8609 111.069 68.19 111.069Z" fill="#FBFBFB"/>
<path d="M68.19 102.865C67.5191 102.865 66.9746 102.32 66.9746 101.649V96.7881C66.9746 94.7778 68.6105 93.142 70.6207 93.142C71.2916 93.142 71.8361 93.6864 71.8361 94.3573C71.8361 95.0282 71.2916 95.5727 70.6207 95.5727C69.9522 95.5727 69.4053 96.1172 69.4053 96.7881V101.649C69.4053 102.32 68.8609 102.865 68.19 102.865Z" fill="#FBFBFB"/>
<path d="M77.6743 67.3106L63.4978 41.1817L77.2423 37.5868L77.6743 67.3106Z" fill="#EDF5FF"/>
<path d="M94.7431 54.9349L103.221 26.9671L111.436 30.9472L94.7431 54.9349Z" fill="#EDF5FF"/>
<path d="M93.8962 78.2816L111.025 53.0024L122.97 68.946L93.8962 78.2816Z" fill="#EDF5FF"/>
<path d="M97.14 67.9759L108.592 56.7082L111.172 60.1516L97.14 67.9759Z" fill="#EDF5FF"/>
<path d="M82.9002 81.6323L70.0233 72.0252L73.0348 68.9523L82.9002 81.6323Z" fill="#EDF5FF"/>
<path d="M81.3456 44.3645L77.7993 28.6949L82.0852 28.3157L81.3456 44.3645Z" fill="#EDF5FF"/>
<path d="M91.0605 41.6902L83.1925 29.9268L86.7387 28.2141L91.0605 41.6902Z" fill="#EDF5FF"/>
</svg>
