<svg width="177" height="176" viewBox="0 0 177 176" fill="none" xmlns="http://www.w3.org/2000/svg">
<circle cx="88.5718" cy="88" r="88" fill="#EDF5FF"/>
<path d="M102.741 152.814L88.6808 138.754L75.3683 152.066L71.696 148.394L86.8447 133.245C87.8602 132.23 89.5015 132.23 90.517 133.245L106.414 149.142L102.741 152.814Z" fill="#A57154"/>
<path d="M112.054 134.718V153.261C112.054 154.695 110.891 155.858 109.457 155.858H104.263C102.83 155.858 101.666 154.695 101.666 153.261V148.067V135.082H110.158C110.834 135.082 111.457 134.952 112.054 134.718Z" fill="#CF8A64"/>
<path d="M75.6955 148.067V153.261C75.6955 154.695 74.532 155.858 73.0984 155.858H67.9043C66.4707 155.858 65.3072 154.695 65.3072 153.261V134.718C65.9046 134.952 66.5279 135.082 67.2031 135.082H75.6955V148.067Z" fill="#CF8A64"/>
<path d="M112.054 134.718C111.457 134.952 110.834 135.082 110.159 135.082H101.666V140.764C104.292 140.764 106.419 142.891 106.419 145.517V155.858H109.457C110.891 155.858 112.054 154.695 112.054 153.261V134.718Z" fill="#A57154"/>
<path d="M65.3072 134.718V140.764H65.6838C68.3094 140.764 70.4364 142.891 70.4364 145.517V155.858H73.0984C74.532 155.858 75.6955 154.695 75.6955 153.261V148.067V135.082H67.2031C66.5279 135.082 65.9046 134.952 65.3072 134.718Z" fill="#A57154"/>
<path d="M80.8377 85.7373H83.4867H85.0709H93.875H105.718H116.443C119.612 85.7373 122.053 88.5421 121.586 91.6586L115.301 130.615C115.041 132.51 113.743 134.069 112.054 134.718C111.457 134.952 110.834 135.082 110.159 135.082H101.666H88.6808H75.6955H67.2031C66.5279 135.082 65.9046 134.952 65.3072 134.718C63.6191 134.069 62.3466 132.51 62.0609 130.615L55.776 91.6586C55.3085 88.5421 57.7498 85.7373 60.9182 85.7373H80.8377Z" fill="#ECEDED"/>
<path d="M116.443 85.7373H105.718H93.875H93.7971C96.9655 85.7373 99.4067 88.5421 98.9393 91.6586L92.6544 130.615C92.3947 132.51 91.0961 134.069 89.408 134.718C88.8107 134.952 88.1874 135.082 87.5122 135.082H88.6809H101.666H110.159C110.834 135.082 111.457 134.952 112.054 134.718C113.743 134.069 115.041 132.51 115.301 130.615L121.586 91.6586C122.053 88.5421 119.612 85.7373 116.443 85.7373V85.7373Z" fill="#C4C4C4"/>
<path d="M66.6058 112.196C65.889 112.196 65.3072 111.615 65.3072 110.898V108.625C65.3072 107.909 65.889 107.327 66.6058 107.327C67.3225 107.327 67.9043 107.909 67.9043 108.625V110.898C67.9043 111.615 67.3225 112.196 66.6058 112.196Z" fill="#FBFBFB"/>
<path d="M66.6058 103.431C65.889 103.431 65.3072 102.849 65.3072 102.133V96.9384C65.3072 94.7907 67.0551 93.0428 69.2028 93.0428C69.9196 93.0428 70.5014 93.6246 70.5014 94.3414C70.5014 95.0582 69.9196 95.6399 69.2028 95.6399C68.4886 95.6399 67.9043 96.2217 67.9043 96.9384V102.133C67.9043 102.849 67.3226 103.431 66.6058 103.431Z" fill="#FBFBFB"/>
<path d="M148.303 78.2485C143.244 76.3696 137.676 71.1471 137.676 71.1471C119.118 54.3251 88.9942 54.8995 88.9942 54.8995C88.9942 54.8995 58.8706 54.3251 40.3109 71.1459C40.3109 71.1459 34.7429 76.3685 29.684 78.2474C29.5104 78.3143 29.3614 78.4326 29.2568 78.5864C29.1522 78.7402 29.097 78.9222 29.0986 79.1081C29.1002 79.2941 29.1585 79.4751 29.2657 79.6271C29.3729 79.7791 29.5239 79.8948 29.6987 79.9587C30.5794 80.287 31.5546 80.6801 32.4956 81.1199C34.286 81.9749 35.8666 83.2127 37.1254 84.7457C38.8367 86.8047 41.2245 88.189 43.8627 88.6513C43.8627 88.6513 38.1169 93.9712 36.714 99.6504C36.198 101.354 35.37 102.948 34.2721 104.35C34.1323 104.525 34.0441 104.735 34.0173 104.957C33.9905 105.179 34.0262 105.404 34.1205 105.607C34.2147 105.81 34.3638 105.983 34.5508 106.106C34.7378 106.229 34.9555 106.297 35.1793 106.304C39.5107 106.459 47.5511 106.305 52.0738 103.461C56.2753 100.819 58.8813 99.865 60.1765 99.5195C61.4267 99.1985 62.6296 98.7158 63.7548 98.0835C64.95 97.43 66.0321 96.5883 66.9594 95.5908C67.0829 95.4444 67.2382 95.3282 67.4134 95.2508C67.5887 95.1734 67.7793 95.137 67.9707 95.1443C68.1621 95.1516 68.3494 95.2024 68.5182 95.2929C68.687 95.3834 68.833 95.5112 68.9449 95.6665C70.097 97.2951 72.2246 99.8278 75.2726 101.555C77.5486 102.845 78.6375 104.455 79.1529 105.797C79.8715 107.725 81.0878 109.428 82.6782 110.734C84.9353 112.552 87.8007 115.226 88.9942 117.876C90.1877 115.226 93.0532 112.552 95.3103 110.734C96.9006 109.429 98.1169 107.726 98.8359 105.798C99.3512 104.458 100.44 102.847 102.716 101.557C105.764 99.8295 107.892 97.2968 109.044 95.6682C109.156 95.5129 109.302 95.3851 109.471 95.2946C109.639 95.2041 109.827 95.1533 110.018 95.146C110.21 95.1387 110.4 95.1751 110.575 95.2525C110.751 95.3299 110.906 95.4461 111.029 95.5925C111.957 96.59 113.039 97.4317 114.234 98.0852C115.359 98.7174 116.562 99.2002 117.812 99.5212C119.108 99.8653 121.713 100.82 125.915 103.463C130.438 106.307 138.478 106.46 142.809 106.305C143.033 106.299 143.25 106.23 143.437 106.107C143.624 105.984 143.773 105.812 143.867 105.609C143.961 105.406 143.996 105.181 143.97 104.959C143.943 104.737 143.855 104.527 143.716 104.352C142.618 102.95 141.79 101.357 141.274 99.653C139.871 93.9737 134.125 88.6538 134.125 88.6538C136.764 88.191 139.152 86.8058 140.863 84.7457C142.122 83.2128 143.702 81.9751 145.493 81.1202C146.434 80.6804 147.409 80.2873 148.29 79.959C148.464 79.8948 148.615 79.7789 148.722 79.627C148.829 79.475 148.887 79.2942 148.888 79.1084C148.89 78.9227 148.834 78.7409 148.73 78.5873C148.626 78.4337 148.477 78.3155 148.303 78.2485V78.2485Z" fill="#38BC7F"/>
<path d="M103.926 74.6998C104.912 74.6998 105.712 73.9004 105.712 72.9143C105.712 71.9282 104.912 71.1288 103.926 71.1288C102.94 71.1288 102.141 71.9282 102.141 72.9143C102.141 73.9004 102.94 74.6998 103.926 74.6998Z" fill="#51E995"/>
<path d="M75.6833 74.6998C76.6694 74.6998 77.4688 73.9004 77.4688 72.9143C77.4688 71.9282 76.6694 71.1288 75.6833 71.1288C74.6973 71.1288 73.8979 71.9282 73.8979 72.9143C73.8979 73.9004 74.6973 74.6998 75.6833 74.6998Z" fill="#51E995"/>
<path d="M112.692 87.3605C113.678 87.3605 114.477 86.4884 114.477 85.4127C114.477 84.337 113.678 83.4649 112.692 83.4649C111.705 83.4649 110.906 84.337 110.906 85.4127C110.906 86.4884 111.705 87.3605 112.692 87.3605Z" fill="#51E995"/>
<path d="M61.7241 87.3605C62.7102 87.3605 63.5096 86.4884 63.5096 85.4127C63.5096 84.337 62.7102 83.4649 61.7241 83.4649C60.738 83.4649 59.9386 84.337 59.9386 85.4127C59.9386 86.4884 60.738 87.3605 61.7241 87.3605Z" fill="#51E995"/>
<path d="M128.274 96.7749C129.26 96.7749 130.059 95.9028 130.059 94.8271C130.059 93.7513 129.26 92.8793 128.274 92.8793C127.288 92.8793 126.489 93.7513 126.489 94.8271C126.489 95.9028 127.288 96.7749 128.274 96.7749Z" fill="#51E995"/>
<path d="M47.7649 96.7749C48.751 96.7749 49.5504 95.9028 49.5504 94.8271C49.5504 93.7513 48.751 92.8793 47.7649 92.8793C46.7788 92.8793 45.9794 93.7513 45.9794 94.8271C45.9794 95.9028 46.7788 96.7749 47.7649 96.7749Z" fill="#51E995"/>
<path d="M43.2716 78.2776C48.6 73.5425 56.5201 76.9849 56.5201 76.9849C56.5201 76.9849 59.008 85.2546 53.6796 89.9897C48.3512 94.7248 37.2133 94.1419 37.2133 94.1419C37.2133 94.1419 37.9432 83.0127 43.2716 78.2776Z" fill="#5DCA75"/>
<path d="M46.4888 87.2461C44.1706 89.3062 40.3434 93.6052 37.2133 94.1419C37.2133 94.1419 48.3512 94.7248 53.6796 89.9897C59.008 85.2546 56.5201 76.9849 56.5201 76.9849C56.5201 76.9849 53.3471 75.6093 49.6722 75.7943C50.1072 78.4265 50.3986 83.7716 46.4888 87.2461Z" fill="#40A55C"/>
<path d="M55.5092 65.2485C49.5058 69.4426 51.0572 78.1702 51.0572 78.1702C51.0572 78.1702 58.7155 82.6313 64.719 78.4372C70.7225 74.243 72.7938 62.9845 72.7938 62.9845C72.7938 62.9845 61.5099 61.0659 55.5092 65.2485V65.2485Z" fill="#5DCA75"/>
<path d="M63.7036 70.6124C66.3201 68.7873 71.5151 65.984 72.7915 62.9958C72.7915 62.9958 70.7201 74.2543 64.7282 78.4513C58.7363 82.6483 51.0664 78.1843 51.0664 78.1843C51.0664 78.1843 50.4487 74.6916 51.5044 71.0616C54.0224 72.1118 59.2988 73.6843 63.7036 70.6124Z" fill="#40A55C"/>
<path d="M122.124 72.8533C126.899 76.701 125.105 83.9105 125.105 83.9105C125.105 83.9105 118.442 87.1972 113.667 83.3495C108.891 79.5017 107.802 69.9686 107.802 69.9686C107.802 69.9686 117.349 69.0055 122.124 72.8533Z" fill="#5DCA75"/>
<path d="M114.972 76.8581C112.895 75.1841 108.703 72.548 107.802 69.9686C107.802 69.9686 108.891 79.5017 113.667 83.3495C118.442 87.1972 125.105 83.9105 125.105 83.9105C125.105 83.9105 125.821 81.0226 125.141 77.9309C122.97 78.6742 118.476 79.6815 114.972 76.8581Z" fill="#40A55C"/>
<path d="M134.919 81.384C130.507 76.8865 123.323 79.4438 123.323 79.4438C123.323 79.4438 120.626 86.576 125.038 91.0735C129.451 95.5709 139.298 95.7277 139.298 95.7277C139.298 95.7277 139.321 85.8807 134.919 81.384V81.384Z" fill="#5DCA75"/>
<path d="M131.533 89.1001C133.454 91.0606 136.571 95.0698 139.288 95.728C139.288 95.728 129.44 95.5713 125.027 91.084C120.614 86.5967 123.311 79.4543 123.311 79.4543C123.311 79.4543 126.187 78.4336 129.417 78.8132C128.884 81.099 128.3 85.7995 131.533 89.1001Z" fill="#40A55C"/>
<path d="M85.9686 59.5081C91.1797 60.9847 92.2132 67.4645 92.2132 67.4645C92.2132 67.4645 87.9341 72.439 82.723 70.9624C77.5119 69.4858 73.3314 62.1143 73.3314 62.1143C73.3314 62.1143 80.7575 58.0315 85.9686 59.5081Z" fill="#5DCA75"/>
<path d="M81.5401 65.2353C79.273 64.5929 74.9549 63.8994 73.3314 62.1143C73.3314 62.1143 77.5119 69.4858 82.723 70.9624C87.9341 72.439 92.2132 67.4645 92.2132 67.4645C92.2132 67.4645 91.7969 64.8699 90.1759 62.592C88.668 63.9468 85.3639 66.3188 81.5401 65.2353Z" fill="#40A55C"/>
<path d="M99.3173 62.0183C94.1767 59.8882 89.2215 64.4501 89.2215 64.4501C89.2215 64.4501 89.4955 71.1788 94.6362 73.3089C99.7769 75.439 107.834 72.1625 107.834 72.1625C107.834 72.1625 104.449 64.1513 99.3173 62.0183V62.0183Z" fill="#5DCA75"/>
<path d="M99.2318 69.4605C101.47 70.39 105.39 72.571 107.825 72.1667C107.825 72.1667 99.7681 75.4432 94.6303 73.3217C89.4925 71.2001 89.2156 64.4629 89.2156 64.4629C89.2156 64.4629 91.2 62.6393 93.9564 61.8312C94.3133 63.8732 95.4634 67.8954 99.2318 69.4605Z" fill="#40A55C"/>
<path d="M89.249 101.59C85.0571 96.8405 88.1398 89.8127 88.1398 89.8127C88.1398 89.8127 95.496 87.6265 99.6879 92.3757C103.88 97.1249 103.329 107.021 103.329 107.021C103.329 107.021 93.4409 106.339 89.249 101.59Z" fill="#5DCA75"/>
<path d="M97.2283 98.7575C99.0521 100.824 102.861 104.238 103.329 107.021C103.329 107.021 103.88 97.1249 99.6879 92.3757C95.496 87.6265 88.1398 89.8127 88.1398 89.8127C88.1398 89.8127 86.9079 92.6282 87.0613 95.8944C89.4017 95.5158 94.1525 95.2727 97.2283 98.7575Z" fill="#40A55C"/>
<path d="M77.7064 90.6758C81.4155 96.0232 89.1758 94.6707 89.1758 94.6707C89.1758 94.6707 93.163 87.8785 89.4538 82.531C85.7447 77.1836 75.7461 75.3093 75.7461 75.3093C75.7461 75.3093 74.0075 85.3309 77.7064 90.6758V90.6758Z" fill="#5DCA75"/>
<path d="M82.4984 83.4099C80.8843 81.0794 78.4087 76.4546 75.7571 75.3113C75.7571 75.3113 85.7556 77.1857 89.4673 82.5229C93.179 87.8601 89.1893 94.6625 89.1893 94.6625C89.1893 94.6625 86.0836 95.2009 82.861 94.252C83.8018 92.0175 85.215 87.3334 82.4984 83.4099Z" fill="#40A55C"/>
<g filter="url(#filter0_d)">
<path d="M108.025 50.8841C104.931 45.6931 98.862 46.9084 98.862 46.9084L98.4631 46.8389C98.6168 45.9932 98.5859 45.1786 98.2464 44.5147C96.4845 40.9477 92.2518 40.8518 90.5152 42.9811L90.525 42.9491C90.525 42.9491 87.9014 38.7947 82.1274 40.5904C76.3534 42.386 71.5036 51.7458 73.8501 57.9508C76.2021 64.1663 83.7657 62.5855 83.7657 62.5855C83.3638 63.2415 83.0592 63.9797 82.8888 64.794C81.9752 69.3542 86.3559 70.7117 89.1226 68.705C89.9129 68.1241 90.4288 67.153 90.7771 66.043C91.1253 64.9331 96.6851 72.3924 102.576 69.3284C108.494 66.2902 111.125 56.0856 108.025 50.8841Z" fill="#F52479"/>
<path d="M83.2733 62.1636C83.2733 62.1636 76.3713 63.0979 75.0088 59.198C73.6463 55.298 75.9453 48.7549 79.4868 46.819C79.4868 46.819 77.4595 54.7054 79.5704 56.13C81.6918 57.5491 89.5472 54.9286 89.5472 54.9286L89.5092 57.6562L83.2733 62.1636Z" fill="black" fill-opacity="0.2"/>
<path d="M89.9514 54.7809L80.9492 52.596L91.6476 53.5844L89.9514 54.7809Z" fill="black" fill-opacity="0.2"/>
<path d="M90.4697 59.4377C90.4697 59.4377 89.5531 67.0688 87.8365 67.874C86.1144 68.6687 84.2514 65.7184 84.2514 65.7184C84.2514 65.7184 85.9997 66.612 86.5064 65.6993C87.0076 64.7761 89.7543 59.2014 89.7543 59.2014L90.4697 59.4377Z" fill="black" fill-opacity="0.2"/>
<path d="M92.824 55.117C92.824 55.117 97.1859 48.0672 96.8292 46.2865C96.462 44.5114 92.6032 43.9086 92.6032 43.9086C92.6032 43.9086 94.5378 45.4806 94.4276 46.5846C94.3174 47.6886 91.6426 53.6004 91.6426 53.6004L92.824 55.117Z" fill="black" fill-opacity="0.2"/>
<path d="M91.7469 52.8199L92.6512 46.8989L92.7098 51.1831L92.2133 52.3114L91.6482 53.581" fill="black" fill-opacity="0.2"/>
<path d="M96.6411 50.2198C96.6411 50.2198 103.237 47.853 105.674 53.4205C108.11 58.9879 102.673 65.8051 102.673 65.8051C102.673 65.8051 104.358 62.041 101.471 60.0374C98.5725 58.0394 94.8324 57.1054 94.8324 57.1054L94.2128 55.6119L96.6411 50.2198Z" fill="black" fill-opacity="0.2"/>
<path d="M95.7561 57.377C95.7561 57.377 96.0897 57.4354 96.5149 57.6447C96.6332 58.8241 96.2647 60.1686 94.333 60.8558L93.1357 67.4354L90.6773 65.5833L91.6064 60.0131C92.6043 59.9482 93.7155 58.6452 94.8542 57.1014C95.2867 57.2274 95.5459 57.2912 95.7561 57.377Z" fill="black" fill-opacity="0.2"/>
<path d="M92.9073 59.3083C94.2348 58.6027 94.739 56.9545 94.0334 55.627C93.3278 54.2995 91.6796 53.7953 90.3521 54.5009C89.0246 55.2065 88.5204 56.8547 89.226 58.1822C89.9316 59.5097 91.5798 60.0139 92.9073 59.3083Z" fill="#FCB424"/>
<path d="M90.3519 54.5008C89.913 54.7342 89.5665 55.0657 89.3223 55.4636C90.2656 55.4984 91.1574 56.0162 91.6295 56.9045C92.1017 57.7929 92.0376 58.8322 91.5331 59.623C91.9995 59.6432 92.4682 59.5415 92.9071 59.3082C94.2344 58.6028 94.7387 56.9542 94.0332 55.6269C93.3278 54.2997 91.6896 53.7898 90.3519 54.5008Z" fill="#F58B2D"/>
</g>
<g filter="url(#filter1_d)">
<path d="M44.9246 84.5515C50.195 84.7754 52.2109 79.7626 52.2109 79.7626L52.4524 79.5046C52.9963 80.0214 53.6059 80.3885 54.2531 80.4582C57.7005 80.878 59.7952 77.8333 59.0711 75.5467L59.0898 75.5692C59.0898 75.5692 63.3783 75.6408 64.8292 70.5658C66.2801 65.4908 61.7659 57.4724 56.1127 56.2174C50.4492 54.9616 47.9853 61.2405 47.9853 61.2405C47.6987 60.6332 47.3053 60.0577 46.7922 59.5438C43.8996 56.6953 40.8128 59.2445 40.9545 62.2246C41.0007 63.0795 41.463 63.9208 42.1068 64.706C42.7507 65.4913 34.6446 65.9826 34.064 71.7494C33.4515 77.5238 39.6438 84.3266 44.9246 84.5515Z" fill="#FF2B81"/>
<path d="M48.5289 61.0828C48.5289 61.0828 51.1484 55.5962 54.6478 56.467C58.1471 57.3377 61.8249 62.1463 61.5444 65.6583C61.5444 65.6583 56.7558 60.4054 54.7058 61.2653C52.6548 62.1354 50.8105 69.1248 50.8105 69.1248L48.837 67.7922L48.5289 61.0828Z" fill="black" fill-opacity="0.2"/>
<path d="M50.725 69.4905L56.6266 63.9625L50.7872 71.3014L50.725 69.4905Z" fill="black" fill-opacity="0.2"/>
<path d="M47.0769 67.6413C47.0769 67.6413 41.9433 63.3216 42.1766 61.6831C42.4201 60.0455 45.4655 60.0965 45.4655 60.0965C45.4655 60.0965 43.9767 60.9456 44.4007 61.7522C44.8351 62.5597 47.5916 67.232 47.5916 67.232L47.0769 67.6413Z" fill="black" fill-opacity="0.2"/>
<path d="M49.1055 71.4272C49.1055 71.4272 52.1664 77.9845 53.6373 78.5758C55.109 79.1569 57.3951 76.6276 57.3951 76.6276C57.3951 76.6276 55.3219 77.2882 54.5685 76.6797C53.815 76.0711 50.778 71.2901 50.778 71.2901L49.1055 71.4272Z" fill="black" fill-opacity="0.2"/>
<path d="M51.2979 71.7396L55.1887 75.2323L52.0324 73.2257L51.4461 72.3234L50.7894 71.3035" fill="black" fill-opacity="0.2"/>
<path d="M50.8552 76.5571C50.8552 76.5571 49.4279 82.5057 44.1972 81.6215C38.9666 80.7372 36.5899 73.5061 36.5899 73.5061C36.5899 73.5061 38.5321 76.5372 41.3764 75.3871C44.2217 74.2267 46.6928 71.9426 46.6928 71.9426L48.0797 72.2046L50.8552 76.5571Z" fill="black" fill-opacity="0.2"/>
<path d="M46.0527 72.487C46.0527 72.487 45.8505 72.7027 45.4942 72.913C44.5765 72.4353 43.771 71.523 44.1933 69.7838L39.9619 65.7622L42.4902 64.853L46.113 68.1961C45.683 68.9557 46.1028 70.3904 46.6853 71.9603C46.3865 72.2158 46.2159 72.3746 46.0527 72.487Z" fill="black" fill-opacity="0.2"/>
<path d="M46.0053 69.4831C45.8855 70.7899 46.8478 71.9465 48.1546 72.0663C49.4614 72.1861 50.618 71.2239 50.7378 69.917C50.8576 68.6102 49.8954 67.4536 48.5885 67.3338C47.2817 67.214 46.1252 68.1762 46.0053 69.4831Z" fill="#FCB424"/>
<path d="M50.7378 69.9169C50.7775 69.4849 50.7011 69.0732 50.5274 68.7046C50.0508 69.3767 49.2461 69.7802 48.3716 69.7C47.4971 69.6198 46.7689 69.0758 46.4328 68.3291C46.1949 68.6601 46.045 69.0509 46.0053 69.483C45.8855 70.7896 46.848 71.9464 48.1546 72.0662C49.4612 72.186 50.6171 71.2338 50.7378 69.9169Z" fill="#F58B2D"/>
</g>
<g filter="url(#filter2_d)">
<path d="M146.631 77.0701C146.347 71.287 140.666 69.5862 140.666 69.5862L140.36 69.348C140.87 68.7017 141.21 67.9987 141.222 67.2843C141.335 63.4743 137.797 61.4899 135.371 62.5105L135.393 62.4878C135.393 62.4878 135.042 57.7933 129.35 56.7161C123.657 55.6389 115.346 61.3765 114.541 67.6812C113.736 73.9971 120.845 76.0609 120.845 76.0609C120.21 76.4351 119.621 76.9226 119.11 77.535C116.287 80.9821 119.382 84.1004 122.625 83.6468C123.555 83.5107 124.428 82.9211 125.222 82.1387C126.016 81.3563 127.365 90.1669 133.727 90.2236C140.099 90.3143 146.914 82.8644 146.631 77.0701Z" fill="white"/>
<path d="M120.618 75.4825C120.618 75.4825 114.359 73.1693 114.96 69.2573C115.561 65.3453 120.448 60.8436 124.315 60.7982C124.315 60.7982 119.054 66.5586 120.199 68.713C121.355 70.8675 129.18 72.1828 129.18 72.1828L127.921 74.4733L120.618 75.4825Z" fill="black" fill-opacity="0.12"/>
<path d="M129.588 72.2395L122.954 66.3431L131.561 71.9901L129.588 72.2395Z" fill="black" fill-opacity="0.12"/>
<path d="M127.932 76.4124C127.932 76.4124 123.725 82.4562 121.911 82.3655C120.097 82.2635 119.847 78.9297 119.847 78.9297C119.847 78.9297 120.925 80.4719 121.764 79.9276C122.603 79.372 127.433 75.8908 127.433 75.8908L127.932 76.4124Z" fill="black" fill-opacity="0.12"/>
<path d="M131.867 73.8157C131.867 73.8157 138.727 69.8129 139.226 68.146C139.714 66.4792 136.72 64.234 136.72 64.234C136.72 64.234 137.65 66.4338 137.06 67.3183C136.471 68.2027 131.549 72.0014 131.549 72.0014L131.867 73.8157Z" fill="black" fill-opacity="0.12"/>
<path d="M131.989 71.388L135.416 66.7854L133.539 70.4363L132.612 71.1676L131.563 71.9875" fill="black" fill-opacity="0.12"/>
<path d="M137.298 71.3891C137.298 71.3891 143.943 72.3529 143.501 78.1586C143.059 83.9643 135.393 87.2867 135.393 87.2867C135.393 87.2867 138.512 84.8601 136.97 81.8666C135.416 78.873 132.672 76.401 132.672 76.401L132.819 74.8589L137.298 71.3891Z" fill="black" fill-opacity="0.12"/>
<path d="M133.331 77.0461C133.331 77.0461 133.587 77.2455 133.853 77.6138C133.423 78.6647 132.506 79.6365 130.563 79.3493L126.592 84.3773L125.344 81.7049L128.635 77.4103C129.509 77.8041 131.035 77.2014 132.692 76.4074C133.001 76.7085 133.192 76.879 133.331 77.0461Z" fill="black" fill-opacity="0.12"/>
<path d="M130.053 77.3989C131.493 77.3989 132.661 76.2313 132.661 74.7909C132.661 73.3505 131.493 72.1829 130.053 72.1829C128.612 72.1829 127.445 73.3505 127.445 74.7909C127.445 76.2313 128.612 77.3989 130.053 77.3989Z" fill="#FCB424"/>
<path d="M130.053 72.1829C129.576 72.1829 129.134 72.3076 128.749 72.5344C129.531 72.9879 130.053 73.8271 130.053 74.7909C130.053 75.7547 129.531 76.6052 128.749 77.0474C129.134 77.2742 129.576 77.3989 130.053 77.3989C131.493 77.3989 132.661 76.231 132.661 74.7909C132.661 73.3508 131.504 72.1829 130.053 72.1829Z" fill="#F58B2D"/>
</g>
<g filter="url(#filter3_d)">
<path d="M96.6429 101.294C96.3666 95.658 90.8302 94.0004 90.8302 94.0004L90.5318 93.7683C91.0291 93.1384 91.3606 92.4532 91.3717 91.757C91.4822 88.044 88.0343 86.1101 85.6695 87.1047L85.6916 87.0826C85.6916 87.0826 85.349 82.5075 79.8015 81.4577C74.254 80.4079 66.1538 85.9996 65.3692 92.1438C64.5846 98.2991 71.5134 100.31 71.5134 100.31C70.8946 100.675 70.3199 101.15 69.8226 101.747C67.071 105.106 70.0879 108.145 73.2484 107.703C74.1545 107.571 75.0055 106.996 75.779 106.234C76.5526 105.471 77.8676 114.058 84.0671 114.113C90.2776 114.201 96.9192 106.941 96.6429 101.294Z" fill="white"/>
<path d="M71.2924 99.7467C71.2924 99.7467 65.1924 97.4924 65.7781 93.6799C66.3638 89.8673 71.1267 85.4802 74.895 85.436C74.895 85.436 69.7674 91.0498 70.8835 93.1494C72.0107 95.2491 79.6358 96.531 79.6358 96.531L78.4091 98.7632L71.2924 99.7467Z" fill="black" fill-opacity="0.12"/>
<path d="M80.0337 96.5863L73.569 90.8398L81.9565 96.3431L80.0337 96.5863Z" fill="black" fill-opacity="0.12"/>
<path d="M78.4202 100.653C78.4202 100.653 74.3204 106.543 72.5522 106.455C70.7841 106.355 70.541 103.106 70.541 103.106C70.541 103.106 71.5908 104.609 72.4086 104.079C73.2263 103.537 77.934 100.145 77.934 100.145L78.4202 100.653Z" fill="black" fill-opacity="0.12"/>
<path d="M82.2547 98.1223C82.2547 98.1223 88.9405 94.2213 89.4267 92.5969C89.9019 90.9724 86.9845 88.7844 86.9845 88.7844C86.9845 88.7844 87.8906 90.9282 87.316 91.7902C86.7413 92.6521 81.9453 96.3542 81.9453 96.3542L82.2547 98.1223Z" fill="black" fill-opacity="0.12"/>
<path d="M82.3734 95.7564L85.7136 91.2709L83.8845 94.8289L82.9807 95.5416L81.9585 96.3406" fill="black" fill-opacity="0.12"/>
<path d="M87.5482 95.7574C87.5482 95.7574 94.0239 96.6968 93.5929 102.355C93.162 108.013 85.6916 111.251 85.6916 111.251C85.6916 111.251 88.7306 108.886 87.2277 105.968C85.7137 103.051 83.0394 100.642 83.0394 100.642L83.1831 99.139L87.5482 95.7574Z" fill="black" fill-opacity="0.12"/>
<path d="M83.6818 101.271C83.6818 101.271 83.9312 101.465 84.1901 101.824C83.7708 102.848 82.8777 103.795 80.9839 103.515L77.1135 108.415L75.8982 105.811L79.1053 101.625C79.9564 102.009 81.4436 101.422 83.059 100.648C83.3603 100.941 83.5461 101.108 83.6818 101.271Z" fill="black" fill-opacity="0.12"/>
<path d="M80.4866 101.614C81.8903 101.614 83.0282 100.476 83.0282 99.0727C83.0282 97.669 81.8903 96.531 80.4866 96.531C79.0828 96.531 77.9449 97.669 77.9449 99.0727C77.9449 100.476 79.0828 101.614 80.4866 101.614Z" fill="#FCB424"/>
<path d="M80.4866 96.531C80.0224 96.531 79.5915 96.6526 79.2157 96.8736C79.9782 97.3156 80.4866 98.1334 80.4866 99.0727C80.4866 100.012 79.9782 100.841 79.2157 101.272C79.5915 101.493 80.0224 101.614 80.4866 101.614C81.89 101.614 83.0282 100.476 83.0282 99.0727C83.0282 97.6692 81.9011 96.531 80.4866 96.531Z" fill="#F58B2D"/>
</g>
<defs>
<filter id="filter0_d" x="53.3559" y="22" width="76.1212" height="76.759" filterUnits="userSpaceOnUse" color-interpolation-filters="sRGB">
<feFlood flood-opacity="0" result="BackgroundImageFix"/>
<feColorMatrix in="SourceAlpha" type="matrix" values="0 0 0 0 0 0 0 0 0 0 0 0 0 0 0 0 0 0 127 0" result="hardAlpha"/>
<feOffset dy="5"/>
<feGaussianBlur stdDeviation="7.5"/>
<feComposite in2="hardAlpha" operator="out"/>
<feColorMatrix type="matrix" values="0 0 0 0 0 0 0 0 0 0 0 0 0 0 0 0 0 0 0.2 0"/>
<feBlend mode="normal" in2="BackgroundImageFix" result="effect1_dropShadow"/>
<feBlend mode="normal" in="SourceGraphic" in2="effect1_dropShadow" result="shape"/>
</filter>
<filter id="filter1_d" x="18.989" y="44.2844" width="63.1964" height="61.9791" filterUnits="userSpaceOnUse" color-interpolation-filters="sRGB">
<feFlood flood-opacity="0" result="BackgroundImageFix"/>
<feColorMatrix in="SourceAlpha" type="matrix" values="0 0 0 0 0 0 0 0 0 0 0 0 0 0 0 0 0 0 127 0" result="hardAlpha"/>
<feOffset dx="1" dy="5"/>
<feGaussianBlur stdDeviation="7.5"/>
<feComposite in2="hardAlpha" operator="out"/>
<feColorMatrix type="matrix" values="0 0 0 0 0 0 0 0 0 0 0 0 0 0 0 0 0 0 0.15 0"/>
<feBlend mode="normal" in2="BackgroundImageFix" result="effect1_dropShadow"/>
<feBlend mode="normal" in="SourceGraphic" in2="effect1_dropShadow" result="shape"/>
</filter>
<filter id="filter2_d" x="94.4771" y="48.5851" width="62.1622" height="63.6392" filterUnits="userSpaceOnUse" color-interpolation-filters="sRGB">
<feFlood flood-opacity="0" result="BackgroundImageFix"/>
<feColorMatrix in="SourceAlpha" type="matrix" values="0 0 0 0 0 0 0 0 0 0 0 0 0 0 0 0 0 0 127 0" result="hardAlpha"/>
<feOffset dx="-5" dy="7"/>
<feGaussianBlur stdDeviation="7.5"/>
<feComposite in2="hardAlpha" operator="out"/>
<feColorMatrix type="matrix" values="0 0 0 0 0 0 0 0 0 0 0 0 0 0 0 0 0 0 0.12 0"/>
<feBlend mode="normal" in2="BackgroundImageFix" result="effect1_dropShadow"/>
<feBlend mode="normal" in="SourceGraphic" in2="effect1_dropShadow" result="shape"/>
</filter>
<filter id="filter3_d" x="53.3072" y="81.3301" width="61.344" height="63.7835" filterUnits="userSpaceOnUse" color-interpolation-filters="sRGB">
<feFlood flood-opacity="0" result="BackgroundImageFix"/>
<feColorMatrix in="SourceAlpha" type="matrix" values="0 0 0 0 0 0 0 0 0 0 0 0 0 0 0 0 0 0 127 0" result="hardAlpha"/>
<feOffset dx="3" dy="16"/>
<feGaussianBlur stdDeviation="7.5"/>
<feComposite in2="hardAlpha" operator="out"/>
<feColorMatrix type="matrix" values="0 0 0 0 0 0 0 0 0 0 0 0 0 0 0 0 0 0 0.08 0"/>
<feBlend mode="normal" in2="BackgroundImageFix" result="effect1_dropShadow"/>
<feBlend mode="normal" in="SourceGraphic" in2="effect1_dropShadow" result="shape"/>
</filter>
</defs>
</svg>
