<svg width="176" height="176" viewBox="0 0 176 176" fill="none" xmlns="http://www.w3.org/2000/svg">
<circle cx="88" cy="88" r="88" fill="#EDF5FF"/>
<path d="M100.544 156.831L87.699 143.986L75.5373 156.147L72.1825 152.792L86.0216 138.953C86.9493 138.026 88.4488 138.026 89.3764 138.953L103.899 153.476L100.544 156.831Z" fill="#A57154"/>
<path d="M109.052 140.299V157.239C109.052 158.548 107.989 159.611 106.679 159.611H101.934C100.625 159.611 99.5618 158.548 99.5618 157.239V152.494V140.631H107.32C107.937 140.631 108.506 140.512 109.052 140.299Z" fill="#CF8A64"/>
<path d="M75.8363 152.494V157.239C75.8363 158.548 74.7734 159.611 73.4638 159.611H68.7187C67.409 159.611 66.3461 158.548 66.3461 157.239V140.299C66.8918 140.512 67.4612 140.631 68.0781 140.631H75.8363V152.494Z" fill="#CF8A64"/>
<path d="M109.052 140.299C108.506 140.512 107.937 140.631 107.32 140.631H99.5618V145.822C101.96 145.822 103.904 147.765 103.904 150.164V159.611H106.679C107.989 159.611 109.052 158.548 109.052 157.239V140.299Z" fill="#A57154"/>
<path d="M66.3461 140.299V145.822H66.6902C69.0888 145.822 71.0319 147.765 71.0319 150.164V159.611H73.4638C74.7734 159.611 75.8363 158.548 75.8363 157.239V152.494V140.631H68.0781C67.4612 140.631 66.8918 140.512 66.3461 140.299Z" fill="#A57154"/>
<path d="M137.249 35.7263C137.249 35.7263 146.112 62.3156 123.955 71.1787C113.385 75.4108 104.101 89.9463 100.822 95.5522H90.718C90.718 95.5522 110.97 75.3 111.192 63.3348C122.381 49.5527 137.249 35.7263 137.249 35.7263Z" fill="#85B05A"/>
<path d="M137.249 35.7263C137.249 35.7263 122.381 49.5527 111.192 63.3348C111.214 62.1605 111.059 61.0747 110.66 60.0998C109.862 58.1278 109.441 56.0228 109.264 53.8956C111.613 49.3533 119.39 37.521 137.249 35.7263Z" fill="#ADDA64"/>
<path d="M80.5339 95.5522H82.9539H84.4011H92.4441H103.263H113.062C115.956 95.5522 118.186 98.1145 117.759 100.962L112.018 136.55C111.78 138.282 110.594 139.705 109.052 140.299C108.506 140.512 107.937 140.631 107.32 140.631H99.5618H87.699H75.8362H68.078C67.4611 140.631 66.8917 140.512 66.346 140.299C64.8038 139.705 63.6413 138.282 63.3803 136.55L57.6387 100.962C57.2117 98.1145 59.4419 95.5522 62.3364 95.5522H80.5339Z" fill="#ECEDED"/>
<path d="M113.062 95.5522H103.263H92.4441H92.3729C95.2675 95.5522 97.4977 98.1145 97.0706 100.962L91.329 136.55C91.0917 138.282 89.9055 139.705 88.3633 140.299C87.8176 140.512 87.2482 140.631 86.6313 140.631H87.699H99.5618H107.32C107.937 140.631 108.506 140.512 109.052 140.299C110.594 139.705 111.78 138.282 112.018 136.55L117.759 100.962C118.186 98.1145 115.956 95.5522 113.062 95.5522V95.5522Z" fill="#C4C4C4"/>
<path d="M109.264 53.8956C109.441 56.0227 109.862 58.1277 110.66 60.0998C111.059 61.0747 111.214 62.1604 111.192 63.3348C110.97 75.3 90.7179 95.5522 90.7179 95.5522H83.2065C86.1313 90.4781 92.69 77.5379 91.4491 64.8194V64.7972C99.0936 47.0488 112.189 34.1752 112.854 33.5326C112.632 34.1087 108.4 44.2791 109.264 53.8956V53.8956Z" fill="#6D8F4A"/>
<path d="M112.854 33.5326C112.189 34.1752 99.0935 47.0488 91.4491 64.7972C91.1168 61.4071 90.2083 58.0169 88.5464 54.8262C90.8287 49.7521 94.3075 44.8995 99.5367 40.8003C103.104 37.9863 107.491 35.5046 112.854 33.5326V33.5326Z" fill="#ADDA64"/>
<path d="M91.4492 64.8194C92.69 77.538 86.1313 90.4781 83.2065 95.5522H81.8548C72.9917 73.3945 77.4233 35.7263 77.4233 35.7263C77.4233 35.7263 78.5976 39.2493 81.8105 44.6115C83.007 46.5836 84.4916 48.8437 86.2864 51.2367C86.9068 52.0565 87.4608 52.8985 87.9704 53.7627C88.1698 54.1172 88.3692 54.4717 88.5465 54.8263C90.2083 58.017 91.1168 61.4071 91.4492 64.7972V64.8194Z" fill="#85B05A"/>
<path d="M81.8549 95.5522C81.035 95.5522 80.193 95.4636 79.3289 95.2642C72.9253 88.7276 69.0698 82.3684 66.9648 76.4079C62.7992 64.6421 65.5024 54.3831 69.2028 47.1153C72.8366 39.9805 77.4233 35.7263 77.4233 35.7263C77.4233 35.7263 72.9918 73.3945 81.8549 95.5522V95.5522Z" fill="#ADDA64"/>
<path d="M69.1141 47.071L69.2028 47.1153C65.5024 54.383 62.7992 64.6421 66.9648 76.4079C62.1123 72.6854 59.6971 67.6999 59.6971 57.884C59.6971 44.5893 50.834 35.7262 50.834 35.7262C61.9129 34.6183 66.8984 40.7117 69.1141 47.071V47.071Z" fill="#85B05A"/>
<path d="M66.9648 76.4079C69.0698 82.3684 72.9253 88.7276 79.3289 95.2642C68.5602 92.9598 55.1104 77.0062 53.0498 66.7471C51.255 57.7954 50.834 35.7263 50.834 35.7263C50.834 35.7263 59.6971 44.5894 59.6971 57.884C59.6971 67.6999 62.1123 72.6854 66.9648 76.4079Z" fill="#ADDA64"/>
<path d="M67.5324 119.724C66.8776 119.724 66.3461 119.192 66.3461 118.538V116.462C66.3461 115.807 66.8776 115.275 67.5324 115.275C68.1872 115.275 68.7187 115.807 68.7187 116.462V118.538C68.7187 119.192 68.1872 119.724 67.5324 119.724Z" fill="#FBFBFB"/>
<path d="M67.5324 111.716C66.8776 111.716 66.3461 111.185 66.3461 110.53V105.785C66.3461 103.823 67.9429 102.226 69.905 102.226C70.5598 102.226 71.0912 102.758 71.0912 103.412C71.0912 104.067 70.5598 104.599 69.905 104.599C69.2525 104.599 68.7187 105.13 68.7187 105.785V110.53C68.7187 111.185 68.1872 111.716 67.5324 111.716Z" fill="#FBFBFB"/>
<path d="M128.337 65.2711L145.635 41.0951L154.878 51.8832L128.337 65.2711Z" fill="#EDF5FF"/>
<path d="M64.85 81.6322L36.7001 72.0784L44.3484 60.106L64.85 81.6322Z" fill="#EDF5FF"/>
<path d="M79.9316 54.3073L80.4176 24.5843L94.1555 28.2042L79.9316 54.3073Z" fill="#EDF5FF"/>
<path d="M105.805 56.7299L116.782 29.5892L125.104 34.7149L105.805 56.7299Z" fill="#EDF5FF"/>
</svg>
