<svg width="14" height="14" viewBox="0 0 14 14" fill="none" xmlns="http://www.w3.org/2000/svg">
<path d="M7.1925 12.9263C7.0625 13.0663 6.8925 13.1362 6.7125 13.1362C6.5525 13.1362 6.4025 13.0863 6.2725 12.9663L0.2325 7.47625C-0.0774999 7.19625 -0.0774999 6.71625 0.2325 6.43625L6.2725 0.946251C6.5425 0.706251 6.9525 0.726251 7.1925 0.986251C7.4325 1.25625 7.4225 1.66625 7.1525 1.90625L2.31686 6.30625H13.2125C13.5715 6.30625 13.8625 6.59726 13.8625 6.95625C13.8625 7.31523 13.5715 7.60625 13.2125 7.60625H2.31685L7.1525 12.0063C7.4125 12.2463 7.4325 12.6562 7.1925 12.9263Z" fill="#0062FF"/>
</svg>
