<svg width="232" height="232" viewBox="0 0 232 232" fill="none" xmlns="http://www.w3.org/2000/svg">
<circle cx="116" cy="116" r="116" fill="#EDF5FF"/>
<g clip-path="url(#clip0)">
<path d="M116 124.722L108.051 124.717L99.8256 118.063C102.324 115.005 102.802 110.586 101.025 106.984C99.3065 103.502 99.6922 99.2413 102.002 96.1876L103.572 94.1115C105.718 91.2742 106.216 87.373 104.861 84.0112L104.229 82.4434C103.043 79.5016 103.267 76.1157 104.828 73.3872L106.787 69.964C108.221 67.4576 108.534 64.3831 107.637 61.5985L107.104 59.9433C106.471 57.9784 106.424 55.8422 106.996 53.8551C108.155 49.8299 109.612 46.009 111.638 42.5757C113.664 39.1418 118.336 39.1418 120.362 42.5757C122.388 46.009 123.845 49.8299 125.004 53.8551C125.576 55.8419 125.529 57.9784 124.897 59.9433L124.363 61.5985C123.466 64.3831 123.779 67.4576 125.213 69.964L127.172 73.3872C128.733 76.1157 128.957 79.5013 127.771 82.4434L127.139 84.0112C125.784 87.373 126.282 91.2742 128.428 94.1115L129.998 96.1876C132.308 99.2413 132.694 103.502 130.975 106.984C129.198 110.585 129.677 115.005 132.175 118.063L122.168 124.721L116 124.722Z" fill="#65BE84"/>
<path d="M116.96 125.579C116.493 125.579 116.021 125.454 115.596 125.191C114.376 124.436 113.999 122.836 114.754 121.617C116.296 119.125 116.213 115.777 114.547 113.285C111.841 109.236 111.63 103.915 114.01 99.728L115.296 97.4648C116.594 95.1804 116.577 92.1885 115.252 89.842L114.421 88.3699C112.474 84.9215 112.202 80.6907 113.693 77.0522C114.236 75.7252 115.754 75.0907 117.08 75.6342C118.407 76.1778 119.042 77.6945 118.498 79.0211C117.605 81.201 117.771 83.7417 118.943 85.8168L119.775 87.2892C122.011 91.2516 122.025 96.1338 119.81 100.031L118.524 102.294C117.129 104.75 117.265 108.007 118.864 110.4C121.64 114.553 121.763 120.158 119.17 124.349C118.679 125.143 117.829 125.579 116.96 125.579V125.579Z" fill="#58B06E"/>
<path d="M98.2291 110.599L84.5158 107.238C82.5392 106.754 80.5414 105.63 78.9221 104.091L75.2705 100.621C73.2482 98.6989 70.6618 97.4472 68.2884 97.2409L67.4808 97.1707C63.7633 96.8479 59.7478 94.0078 58.0174 90.4778C57.2619 88.9365 56.0351 87.4678 54.5186 86.29L53.9969 85.8849C51.249 83.7503 51.8063 80.5287 54.829 81.0759C56.2064 81.3128 57.4806 81.2103 58.52 80.7786L59.81 80.2428C62.5005 79.1258 66.5234 80.2814 69.5518 83.0412L70.7202 84.1061C72.7873 85.9897 75.3851 87.1779 77.7339 87.3133L81.5005 87.5306C83.6602 87.6553 86.041 88.6711 88.0287 90.3162L99.9418 100.177L98.2291 110.599Z" fill="#40867B"/>
<path d="M112.899 123.644L111.699 126.422C109.773 130.877 104.893 133.643 99.7309 133.206L97.7851 133.042C94.6518 132.777 91.5256 133.694 89.1193 135.584L85.8661 138.139C83.5222 139.98 80.4921 140.9 77.4344 140.698L71.7201 140.322C68.525 140.112 65.3665 141.126 62.9894 143.125L62.2104 143.78C58.5066 146.895 53.0796 147.501 48.7204 145.288L48.4483 145.15C46.5496 144.186 44.3912 143.733 42.2187 143.844L37.7037 144.074C34.9853 144.212 33.7538 141.015 35.9471 139.514L37.6174 138.371C39.3925 137.156 40.7617 135.505 41.5656 133.609C43.3965 129.29 48.012 126.516 53.0211 126.723L55.1584 126.812C58.3776 126.945 61.5234 125.842 63.8464 123.764L67.0069 120.938C69.255 118.928 72.2771 117.826 75.3956 117.881L79.3596 117.951C82.116 118 84.8095 117.145 86.9606 115.538L89.9934 113.273C92.1138 111.69 94.7627 110.836 97.4804 110.859L106.218 110.935L112.899 123.644Z" fill="#40867B"/>
<path d="M96.9688 120.675C95.6593 119.658 94.0679 118.963 92.2179 118.563C87.15 117.466 81.3967 119.681 77.9665 123.707C77.3349 124.448 76.6009 125.087 75.7812 125.634C72.9126 127.551 69.2522 128.101 66.1885 127.244C63.2279 126.416 60.4775 126.42 57.9926 127.475C54.1656 129.099 49.909 128.841 47.1704 126.694L42.0373 122.669C40.0771 121.132 40.5625 118.226 43.0437 116.642L45.1047 115.326C52.4043 110.665 60.9418 107.912 69.4474 107.477L69.7608 107.461C72.7198 107.309 75.6062 107.555 78.3894 108.065C81.3181 108.602 84.4715 108.551 87.6166 107.899C94.29 106.517 100.891 107.655 105.629 111.002L113.74 116.734L99.2861 122.354L96.9688 120.675Z" fill="#5EB87D"/>
<path d="M133.771 110.599L147.484 107.238C149.461 106.754 151.458 105.63 153.078 104.091L156.729 100.621C158.752 98.6989 161.338 97.4472 163.711 97.2409L164.519 97.1707C168.237 96.8479 172.252 94.0078 173.982 90.4778C174.738 88.9365 175.965 87.4678 177.481 86.29L178.003 85.8849C180.751 83.7503 180.194 80.5287 177.171 81.0759C175.793 81.3128 174.519 81.2103 173.48 80.7786L172.19 80.2428C169.499 79.1258 165.476 80.2814 162.448 83.0412L161.28 84.1061C159.213 85.9897 156.615 87.1779 154.266 87.3133L150.499 87.5306C148.34 87.6553 145.959 88.6711 143.971 90.3162L132.058 100.177L133.771 110.599Z" fill="#40867B"/>
<path d="M119.101 123.644L120.301 126.422C122.227 130.877 127.107 133.643 132.269 133.206L134.215 133.042C137.348 132.777 140.474 133.694 142.881 135.584L146.134 138.139C148.478 139.98 151.508 140.9 154.566 140.698L160.28 140.322C163.475 140.112 166.634 141.126 169.011 143.125L169.79 143.78C173.493 146.895 178.92 147.501 183.28 145.288L183.552 145.15C185.45 144.186 187.609 143.733 189.781 143.844L194.296 144.074C197.015 144.212 198.246 141.015 196.053 139.514L194.383 138.371C192.608 137.156 191.238 135.505 190.434 133.609C188.603 129.29 183.988 126.516 178.979 126.723L176.842 126.812C173.622 126.945 170.477 125.842 168.154 123.764L164.993 120.938C162.745 118.928 159.723 117.826 156.604 117.881L152.64 117.951C149.884 118 147.19 117.145 145.039 115.538L142.007 113.273C139.886 111.69 137.237 110.836 134.52 110.859L125.782 110.935L119.101 123.644Z" fill="#40867B"/>
<path d="M135.031 120.675C136.341 119.658 137.932 118.963 139.782 118.563C144.85 117.466 150.603 119.681 154.034 123.707C154.665 124.448 155.399 125.087 156.219 125.634C159.087 127.551 162.748 128.101 165.811 127.244C168.772 126.416 171.522 126.42 174.007 127.475C177.834 129.099 182.091 128.841 184.83 126.694L189.963 122.669C191.923 121.132 191.437 118.226 188.956 116.642L186.895 115.326C179.596 110.665 171.058 107.912 162.553 107.477L162.239 107.461C159.28 107.309 156.394 107.555 153.611 108.065C150.682 108.602 147.528 108.551 144.383 107.899C137.71 106.517 131.109 107.655 126.371 111.002L122.449 120.925L132.714 122.354L135.031 120.675Z" fill="#5EB87D"/>
<path d="M113.618 146.55L128.342 140.394L122.073 135.801C119.192 133.691 117.162 129.749 116.985 125.92C116.813 122.218 114.908 118.397 112.157 116.236L110.286 114.768C107.73 112.761 105.887 109.303 105.515 105.815L105.341 104.188C105.015 101.136 103.557 98.076 101.441 96.0029L98.7872 93.4021C96.8438 91.4977 95.4456 88.7497 94.9834 85.9251L94.7086 84.2461C94.3824 82.2527 93.5906 80.2686 92.435 78.598C90.0938 75.2134 87.6274 72.103 84.9234 69.5119C82.2188 66.9201 79.0354 68.2501 78.9787 71.9955C78.9219 75.7402 79.4013 79.6807 80.1635 83.7247C80.5398 85.7209 81.3947 87.6787 82.5836 89.3117L83.585 90.6874C85.2698 93.0013 86.2423 95.927 86.2312 98.6481L86.2161 102.364C86.204 105.326 87.3566 108.514 89.2987 110.891L90.3337 112.158C92.5532 114.874 93.7179 118.616 93.3491 121.844L93.0793 124.207C92.6826 127.682 94.0623 131.723 96.5754 134.447C99.1749 137.264 100.553 141.478 100.029 145.011L98.8904 152.699L113.618 146.55Z" fill="#88E39D"/>
<path d="M118.382 146.55L103.658 140.394L109.927 135.801C112.808 133.691 114.838 129.749 115.015 125.92C115.187 122.218 117.092 118.397 119.843 116.236L121.714 114.768C124.27 112.761 126.113 109.303 126.485 105.815L126.659 104.188C126.985 101.136 128.443 98.076 130.558 96.0029L133.213 93.4021C135.156 91.4977 136.554 88.7497 137.017 85.9251L137.291 84.2461C137.618 82.2527 138.409 80.2686 139.565 78.598C141.906 75.2134 144.373 72.103 147.076 69.5119C149.781 66.9201 152.964 68.2501 153.021 71.9955C153.078 75.7402 152.599 79.6807 151.836 83.7247C151.46 85.7209 150.605 87.6787 149.416 89.3117L148.415 90.6874C146.73 93.0013 145.758 95.927 145.769 98.6481L145.784 102.364C145.796 105.326 144.643 108.514 142.701 110.891L141.666 112.158C139.447 114.874 138.282 118.616 138.651 121.844L138.921 124.207C139.317 127.682 137.938 131.723 135.425 134.447C132.825 137.264 131.447 141.478 131.971 145.011L133.11 152.699L118.382 146.55Z" fill="#88E39D"/>
<path d="M82.1228 205.277C81.8728 204.667 81.6659 204.028 81.502 203.36C81.2312 202.26 82.067 201.195 83.2005 201.195H148.8C149.933 201.195 150.769 202.26 150.498 203.36C150.335 204.028 150.127 204.667 149.878 205.277C148.19 209.392 144.085 212 139.637 212H92.3632C87.9147 212 83.8099 209.392 82.1228 205.277V205.277Z" fill="#A36D6D"/>
<path d="M148.8 201.195H140.593C141.726 201.195 142.562 202.26 142.291 203.36C142.127 204.028 141.92 204.667 141.67 205.277C139.983 209.392 135.878 212 131.43 212H139.637C144.085 212 148.19 209.392 149.877 205.277C150.127 204.667 150.334 204.028 150.498 203.36C150.769 202.26 149.933 201.195 148.8 201.195Z" fill="#8A5C5C"/>
<path d="M95.1671 201.195C83.8366 182.398 79.8363 168.476 83.1661 140.937C83.3424 139.478 84.6173 138.379 86.126 138.379H145.874C147.383 138.379 148.657 139.478 148.834 140.937C152.164 168.476 148.164 182.398 136.833 201.195H95.1671Z" fill="#CB895E"/>
<path d="M145.874 138.379H141.096C144.988 167.632 141.096 181.825 129.42 201.194H136.833C148.164 182.398 152.164 168.476 148.834 140.936C148.657 139.477 147.383 138.379 145.874 138.379Z" fill="#C17D4F"/>
<path d="M102.717 138.013C100.086 139.735 97.1385 140.878 94.0714 141.572C93.548 141.691 93.0183 141.845 92.4831 142.034C87.5935 143.76 83.8589 148.665 83.0523 153.892C82.9039 154.855 82.6143 155.784 82.2041 156.68C80.7683 159.817 77.9411 162.206 74.8837 163.085C71.9291 163.934 69.59 165.381 68.0285 167.583C65.6239 170.975 61.8651 172.989 58.407 172.599L51.925 171.867C49.4499 171.587 48.3379 168.859 49.6182 166.208L50.6817 164.006C54.4486 156.208 60.2707 149.384 67.2824 144.549L67.5411 144.37C69.9803 142.689 72.5661 141.383 75.2028 140.356C77.9773 139.276 80.6346 137.577 82.97 135.372C84.2715 134.143 85.6599 133.065 87.1048 132.149C93.0314 128.394 100.92 130.95 103.604 137.433L102.717 138.013Z" fill="#56B476"/>
<path d="M129.283 138.013C131.914 139.735 134.862 140.878 137.929 141.572C138.452 141.691 138.982 141.845 139.517 142.034C144.407 143.76 148.141 148.665 148.948 153.892C149.096 154.855 149.386 155.784 149.796 156.68C151.232 159.817 154.059 162.206 157.116 163.085C160.071 163.934 162.41 165.381 163.972 167.583C166.376 170.975 170.135 172.989 173.593 172.599L180.075 171.867C182.55 171.587 183.662 168.859 182.382 166.208L181.318 164.006C177.552 156.208 171.729 149.384 164.718 144.549L164.459 144.37C162.02 142.689 159.434 141.383 156.797 140.356C154.023 139.276 151.366 137.577 149.03 135.372C147.729 134.143 146.34 133.065 144.895 132.149C138.969 128.394 131.08 130.95 128.396 137.433L129.283 138.013Z" fill="#56B476"/>
<path d="M117.613 139.33C119.45 142.172 121.796 144.578 124.417 146.591C124.864 146.935 125.304 147.316 125.737 147.735C129.689 151.558 131.4 158.029 130.248 163.554C130.036 164.571 129.969 165.617 130.026 166.681C130.227 170.409 132.005 173.997 134.55 176.188C137.009 178.306 138.673 180.75 139.333 183.606C140.349 188.004 143.137 191.623 146.52 192.731L152.862 194.808C155.283 195.601 157.321 193.38 157.088 190.201L156.895 187.561C156.21 178.21 153.243 168.936 148.436 161.117L148.259 160.829C146.587 158.109 144.64 155.699 142.543 153.542C140.338 151.273 138.467 148.443 137.083 145.25C136.311 143.47 135.404 141.802 134.384 140.271C130.2 133.99 121.874 133.112 116.994 138.372L117.613 139.33Z" fill="#5EA570"/>
<path d="M114.387 139.33C112.549 142.172 110.204 144.578 107.583 146.591C107.136 146.935 106.696 147.316 106.263 147.735C102.311 151.558 100.6 158.029 101.751 163.554C101.963 164.571 102.031 165.617 101.973 166.681C101.773 170.409 99.9948 173.997 97.4501 176.188C94.991 178.306 93.3268 180.75 92.667 183.606C91.6508 188.004 88.8632 191.623 85.48 192.731L79.1382 194.808C76.7167 195.601 74.6789 193.38 74.9117 190.201L75.1049 187.561C75.7895 178.21 78.7562 168.936 83.5631 161.117L83.7405 160.829C85.4128 158.109 87.3599 155.699 89.4561 153.542C91.6619 151.273 93.5327 148.443 94.9168 145.25C95.6881 143.47 96.5958 141.802 97.6157 140.271C101.799 133.99 110.125 133.112 115.006 138.372L114.387 139.33Z" fill="#5EA570"/>
</g>
<defs>
<clipPath id="clip0">
<rect width="172" height="172" fill="white" transform="translate(30 40)"/>
</clipPath>
</defs>
</svg>
