<svg width="92" height="49" viewBox="0 0 92 49" fill="none" xmlns="http://www.w3.org/2000/svg">
<path d="M68.2398 24.2375H71.5872C72.855 24.2375 73.6235 23.9269 74.1618 23.2313C74.431 22.8813 74.8174 22.2644 74.8174 21.1006C74.8174 19.9369 74.4354 19.1232 73.6625 18.5413C73.2023 18.1913 72.5858 17.9988 71.5481 17.9988H68.2398V24.2375ZM63.8156 27.9956V5.60004H78.2734L77.0056 9.35816H68.2398V14.3194H71.8173C74.7002 14.3194 76.2024 15.015 77.2401 15.9075C78.0476 16.6032 79.4327 18.1563 79.4327 21.2144C79.4327 24.2375 78.0086 25.9044 76.819 26.7575C75.434 27.7244 73.9751 27.9956 71.0141 27.9956H63.8156ZM51.0119 27.9956V9.35816H44.5906V5.60004H62.4349L61.1671 9.35816H55.4709V27.9956H51.0119ZM33.2067 14.5513H35.7075C36.4759 14.5513 36.8624 14.5513 37.2444 14.4332C38.2821 14.1225 38.9377 13.195 38.9377 11.9132C38.9377 10.4038 38.243 9.74316 37.2444 9.43253C36.8233 9.31878 36.3978 9.27941 35.5512 9.27941H33.2067V14.5513ZM33.2457 18.4275V24.3163H36.324C37.2488 24.3163 38.0911 24.2375 38.7076 23.6556C39.3241 23.0738 39.5933 22.3388 39.5933 21.3675C39.5933 20.6325 39.4023 19.9325 39.0158 19.4294C38.3602 18.6157 37.5527 18.4231 36.172 18.4231H33.2457V18.4275ZM40.3574 16.0607V16.1394C41.2041 16.45 42.0116 16.9925 42.4328 17.3425C43.7396 18.4275 44.317 19.8625 44.317 21.7219C44.317 24.7844 42.7019 26.9938 40.0492 27.6894C39.2416 27.9213 38.395 28 36.8189 28H28.7825V5.60441H35.8985C37.3573 5.60441 38.3602 5.68316 39.246 5.91504C41.8206 6.61066 43.5138 8.39566 43.5138 11.2219C43.5138 12.7313 42.9755 14.0132 42.0898 14.8663C41.7033 15.2469 41.165 15.715 40.3574 16.0607Z" fill="#0062FF"/>
<path d="M25.0791 0H6.39238L5.04211 3.73187H23.7331L25.0791 0Z" fill="#00AAFF"/>
<path d="M23.0558 5.60001H4.36919L3.01892 9.33188H21.7099L23.0558 5.60001Z" fill="#00AAFF"/>
<path d="M21.0369 11.2H2.35027L1 14.9318H19.6866L21.0369 11.2Z" fill="#00AAFF"/>
<path d="M18.7646 38.6035H20.4189V46H18.7646V41.0645L15.8662 46H14.2119V38.6035H15.8662V43.5391L18.7646 38.6035ZM28.4512 46H26.79V43.0127H23.9121V46H22.251V38.6035H23.9121V41.6865H26.79V38.6035H28.4512V46ZM30.3516 46V38.6035H33.3525C34.3643 38.6035 35.1344 38.7812 35.6631 39.1367C36.1917 39.4876 36.4561 39.9935 36.4561 40.6543C36.4561 40.9961 36.349 41.3037 36.1348 41.5771C35.9251 41.846 35.613 42.0534 35.1982 42.1992C35.6813 42.2995 36.0641 42.5023 36.3467 42.8076C36.6292 43.113 36.7705 43.473 36.7705 43.8877C36.7705 44.5758 36.5153 45.0999 36.0049 45.46C35.499 45.82 34.7699 46 33.8174 46H30.3516ZM32.0127 42.8486V44.6875H33.8311C34.6833 44.6875 35.1094 44.3822 35.1094 43.7715C35.1094 43.1562 34.6764 42.8486 33.8105 42.8486H32.0127ZM32.0127 41.6592H33.3799C34.3232 41.6592 34.7949 41.3812 34.7949 40.8252C34.7949 40.2419 34.3483 39.9411 33.4551 39.9229H32.0127V41.6592ZM41.4668 46.1367C40.4141 46.1367 39.5596 45.8063 38.9033 45.1455C38.2516 44.4801 37.9258 43.596 37.9258 42.4932V42.2881C37.9258 41.5498 38.0671 40.8913 38.3496 40.3125C38.6367 39.7292 39.0378 39.2757 39.5527 38.9521C40.0677 38.6286 40.6419 38.4668 41.2754 38.4668C42.2826 38.4668 43.0596 38.7881 43.6064 39.4307C44.1579 40.0732 44.4336 40.9824 44.4336 42.1582V42.8281H39.6006C39.6507 43.4388 39.8535 43.9219 40.209 44.2773C40.569 44.6328 41.0202 44.8105 41.5625 44.8105C42.3236 44.8105 42.9434 44.5029 43.4219 43.8877L44.3174 44.7422C44.0212 45.1842 43.6247 45.5283 43.1279 45.7744C42.6357 46.016 42.082 46.1367 41.4668 46.1367ZM41.2686 39.7998C40.8128 39.7998 40.4437 39.9593 40.1611 40.2783C39.8831 40.5973 39.7054 41.0417 39.6279 41.6113H42.793V41.4883C42.7565 40.9323 42.6084 40.513 42.3486 40.2305C42.0889 39.9434 41.7288 39.7998 41.2686 39.7998ZM48.7676 44.8105C49.1823 44.8105 49.5264 44.6898 49.7998 44.4482C50.0732 44.2067 50.2191 43.9082 50.2373 43.5527H51.8027C51.7845 44.013 51.641 44.4437 51.3721 44.8447C51.1032 45.2412 50.7386 45.5557 50.2783 45.7881C49.818 46.0205 49.3213 46.1367 48.7881 46.1367C47.7536 46.1367 46.9333 45.8018 46.3271 45.1318C45.721 44.4619 45.418 43.5368 45.418 42.3564V42.1855C45.418 41.0599 45.7188 40.1598 46.3203 39.4854C46.9219 38.8063 47.7422 38.4668 48.7812 38.4668C49.6608 38.4668 50.3763 38.7243 50.9277 39.2393C51.4837 39.7497 51.7754 40.4219 51.8027 41.2559H50.2373C50.2191 40.832 50.0732 40.4834 49.7998 40.21C49.5309 39.9365 49.1868 39.7998 48.7676 39.7998C48.2298 39.7998 47.8151 39.9958 47.5234 40.3877C47.2318 40.7751 47.0837 41.3652 47.0791 42.1582V42.4248C47.0791 43.2269 47.2227 43.8262 47.5098 44.2227C47.8014 44.6146 48.2207 44.8105 48.7676 44.8105ZM58.8779 39.9229H56.4785V46H54.8174V39.9229H52.4453V38.6035H58.8779V39.9229ZM64.6064 38.6035H66.2607V46H64.6064V41.0645L61.708 46H60.0537V38.6035H61.708V43.5391L64.6064 38.6035ZM68.0928 38.6035H69.7539V44.6738H72.6387V38.6035H74.2998V44.6738H75.3047L75.168 48.1943H73.6572V46H68.0928V38.6035ZM81.0947 38.6035H82.749V46H81.0947V41.0645L78.1963 46H76.542V38.6035H78.1963V43.5391L81.0947 38.6035ZM89.1338 38.6035H90.7881V46H89.1338V41.0645L86.2354 46H84.5811V38.6035H86.2354V43.5391L89.1338 38.6035Z" fill="#0062FF"/>
</svg>
