<svg width="160" height="187" viewBox="0 0 160 187" fill="none" xmlns="http://www.w3.org/2000/svg">
<circle cx="80" cy="107" r="80" fill="#E5E7EB"/>
<path d="M98.4364 116.304C98.4364 116.304 95.3564 43.8077 134.727 18.9102C134.727 18.9102 140.306 92.1813 98.4364 116.304Z" fill="#65B54E"/>
<path d="M98.4364 116.304L134.727 18.9102C134.727 18.9102 140.306 92.1813 98.4364 116.304Z" fill="#5FA348"/>
<path d="M61.5636 116.304C61.5636 116.304 64.6436 43.8077 25.2728 18.9102C25.2728 18.9102 19.6948 92.1813 61.5636 116.304Z" fill="#5FA348"/>
<path d="M61.5636 116.304L25.2728 18.9102C25.2728 18.9102 19.6948 92.1813 61.5636 116.304Z" fill="#65B54E"/>
<path d="M72.8926 119.405C72.8926 119.405 97.6825 39.2417 62.9421 0C62.9425 0 35.2448 80.2707 72.8926 119.405Z" fill="#5FA348"/>
<path d="M72.8926 119.405L62.9425 0C62.9425 0 35.2448 80.2707 72.8926 119.405Z" fill="#65B54E"/>
<path d="M89.9071 121.71C89.9071 121.71 124.303 45.0787 94.6242 2.00281C94.6242 2.00281 57.3425 78.2679 89.9071 121.71Z" fill="#5FA348"/>
<path d="M89.9071 121.71L94.6242 2.00281C94.6242 2.00281 57.3425 78.2679 89.9071 121.71Z" fill="#65B54E"/>
<path d="M43.386 108.615L52.8409 169.222C53.0861 170.826 54.4702 172.009 56.0931 172H103.476C105.095 171.999 106.474 170.822 106.728 169.222L116.161 108.615H43.386Z" fill="#DC8744"/>
<path d="M43.3213 108.615L44.5275 116.304H114.956L116.162 108.615H43.3213Z" fill="#C9773F"/>
<path d="M121.223 99.9136H38.26C37.9626 99.9248 37.7312 100.175 37.7433 100.473V100.473V112.534C37.7312 112.832 37.9621 113.082 38.2592 113.094H38.2596H121.223C121.521 113.083 121.752 112.833 121.74 112.535V112.535V100.474C121.752 100.176 121.521 99.9257 121.224 99.9136C121.224 99.9136 121.224 99.9136 121.223 99.9136Z" fill="#DC8744"/>
</svg>
