<svg width="18" height="18" viewBox="0 0 18 18" fill="none" xmlns="http://www.w3.org/2000/svg">
<path d="M8.3245 10.6324C8.3245 10.9924 8.6145 11.2824 8.9745 11.2824C9.33451 11.2824 9.6245 10.9924 9.6245 10.6224C9.6245 10.3224 9.66451 10.1224 9.77451 9.84239C9.91451 9.51239 10.1945 9.21239 10.4945 8.90239L10.4991 8.89758C10.988 8.3888 11.5349 7.8195 11.6745 6.90239C11.8045 6.03239 11.4445 5.13239 10.7245 4.56239C9.9845 3.97239 9.00451 3.84239 8.10451 4.19239C6.92451 4.66239 6.25451 5.68239 6.31451 6.94239C6.3245 7.30239 6.6445 7.57239 6.9945 7.56239C7.3545 7.54239 7.6345 7.24239 7.6145 6.88239C7.5845 6.39239 7.7445 5.73239 8.58451 5.40239C9.0545 5.22239 9.5345 5.28239 9.91451 5.58239C10.2745 5.86239 10.4545 6.29239 10.3945 6.71239C10.3159 7.21369 9.97636 7.57007 9.58492 7.98096L9.5645 8.00239C9.2045 8.37239 8.8045 8.79239 8.5745 9.36239C8.3945 9.79239 8.3245 10.1624 8.3245 10.6324Z" fill="#0062FF"/>
<path d="M9.85 13.35C9.85 13.8194 9.46944 14.2 9 14.2C8.53056 14.2 8.15 13.8194 8.15 13.35C8.15 12.8806 8.53056 12.5 9 12.5C9.46944 12.5 9.85 12.8806 9.85 13.35Z" fill="#0062FF"/>
<path fill-rule="evenodd" clip-rule="evenodd" d="M9 0C4.02944 0 0 4.02944 0 9C0 13.9706 4.02944 18 9 18C13.9706 18 18 13.9706 18 9C18 4.02944 13.9706 0 9 0ZM1.3 9C1.3 4.74741 4.74741 1.3 9 1.3C13.2526 1.3 16.7 4.74741 16.7 9C16.7 13.2526 13.2526 16.7 9 16.7C4.74741 16.7 1.3 13.2526 1.3 9Z" fill="#0062FF"/>
</svg>
